<?xml version="1.0" encoding="UTF-8" standalone="no"?><!DOCTYPE svg PUBLIC "-//W3C//DTD SVG 1.1//EN" "http://www.w3.org/Graphics/SVG/1.1/DTD/svg11.dtd"><svg width="100%" height="100%" viewBox="0 0 60 57" version="1.1" xmlns="http://www.w3.org/2000/svg" xmlns:xlink="http://www.w3.org/1999/xlink" xml:space="preserve" xmlns:serif="http://www.serif.com/" style="fill-rule:evenodd;clip-rule:evenodd;stroke-linejoin:round;stroke-miterlimit:2;"><path d="M55.705,2.123c-0.409,-0.83 -1.415,-1.172 -2.246,-0.761l-27.916,13.783c-0.83,0.409 -1.171,1.415 -0.761,2.245c0.292,0.593 0.886,0.937 1.505,0.937c0.249,0 0.502,-0.057 0.741,-0.175l27.916,-13.783c0.831,-0.409 1.171,-1.416 0.761,-2.246Z" style="fill:#ea1d25;fill-rule:nonzero;"/><path d="M20.915,14.58c-0.902,-2.376 -1.001,-5.107 -2.402,-7.145c-0.03,-0.264 -0.059,-0.518 -0.088,-0.763c-0.138,-1.174 -0.732,-1.898 -1.012,-2.765c-0.225,-0.697 -0.406,-1.64 -0.406,-1.64c0,0 -0.578,0.39 -0.999,0.99l-2.153,3.984c-0.694,0.273 -3.763,0.891 -4.814,1.633c-0.271,0.193 -0.474,0.438 -1.021,1.117c-0.22,0.273 -0.599,0.743 -0.814,0.976c-0.524,0.178 0.086,0.301 -0.689,0.472c-2.5,0.553 -3.755,0.829 -4.082,2.136c-0.37,1.484 1.409,1.972 2.348,3.775c0.323,0.617 0.992,0.966 1.683,0.89c1.953,-0.23 4.24,0.823 5.508,1.887l9.77,-3.412c-0.279,-0.689 -0.552,-1.404 -0.829,-2.135Z" style="fill:#ea1d25;fill-rule:nonzero;"/><path d="M53.201,38.281c-0.046,-0.04 -4.592,-4.14 -4.923,-8.847c-0.177,-2.503 -0.017,-1.546 -0.907,-3.072c1.855,-1.089 4.655,-3.447 4.554,-7.726c-0.021,-0.913 -0.768,-1.638 -1.676,-1.638c-0.013,0 -0.027,0 -0.04,0.001c-0.926,0.021 -1.66,0.789 -1.638,1.715c0.078,3.269 -2.774,4.762 -3.644,5.141c-0.377,-0.222 -0.777,-0.409 -1.205,-0.556c-1.931,-0.664 -5.213,-0.348 -5.85,-0.278c-0.025,0.003 -0.05,0.007 -0.074,0.01c-1.723,0.267 -3.534,0.451 -3.943,0.409c-5.176,-0.723 -9.33,-2.395 -10.101,-2.887c-0.189,-0.246 -0.366,-0.517 -0.539,-0.799l-9.858,3.444c0.162,1.768 -0.078,3.976 -0.285,5.868c-0.298,2.734 -0.376,2.458 -0.362,3.633c0.039,3.251 1.391,5.286 2.091,6.102l2.667,12.117l-1.642,2.149c-0.564,0.739 -0.483,1.881 0.258,2.44c0.302,0.229 0.658,0.34 1.01,0.34c0.505,0 1.005,-0.228 1.335,-0.659l2.178,-2.852c0.299,-0.392 0.411,-0.896 0.305,-1.378l-2.37,-10.765l1.051,0.223c0.561,2.385 1.354,5.714 2.481,10.395c0.184,0.769 0.872,1.286 1.63,1.286c0.163,0 0.33,-0.025 0.494,-0.074c0.862,-0.261 1.33,-1.197 1.119,-2.073c-0.642,-2.669 -1.465,-6.112 -2.173,-9.111c0.025,0 0.051,0.002 0.076,0.002c1.081,0 1.92,-0.799 2.91,-1.153c2.787,-0.996 4.441,-1.94 5.768,-2.976c1.423,-1.111 2.703,-1.121 4.901,-1.121c0.076,0 0.149,-0.012 0.222,-0.022c2.985,4.268 9.126,4.776 12.719,5.81l0.029,0.797c0.091,2.56 -0.452,5.103 -1.583,7.403l-2.301,1.84c-0.653,0.523 -0.888,1.452 -0.473,2.178c0.32,0.561 0.889,0.856 1.465,0.856c0.368,0 0.738,-0.12 1.047,-0.368l2.795,-2.237c0.285,-0.227 0.487,-0.541 0.577,-0.892l2.013,-7.854l0,-0.002c0.001,-0.001 0.001,-0.002 0.001,-0.002c0.541,-2.137 0.46,-3.533 0.449,-3.685c-0.032,-0.436 -0.232,-0.841 -0.558,-1.132Z" style="fill:#ea1d25;fill-rule:nonzero;"/></svg>