<?xml version="1.0" encoding="UTF-8" standalone="no"?><!DOCTYPE svg PUBLIC "-//W3C//DTD SVG 1.1//EN" "http://www.w3.org/Graphics/SVG/1.1/DTD/svg11.dtd"><svg width="100%" height="100%" viewBox="0 0 60 76" version="1.1" xmlns="http://www.w3.org/2000/svg" xmlns:xlink="http://www.w3.org/1999/xlink" xml:space="preserve" xmlns:serif="http://www.serif.com/" style="fill-rule:evenodd;clip-rule:evenodd;stroke-linejoin:round;stroke-miterlimit:2;"><g id="Vector_Smart_Object"><path d="M42.917,40.304l3.659,3.659l-3.659,0l-3.659,0l3.659,-3.659Z" style="fill:#fd990d;fill-rule:nonzero;"/><path d="M22.182,34.205l3.659,3.659l-3.659,0l-3.659,0l3.659,-3.659Z" style="fill:#ea1d25;fill-rule:nonzero;"/><path d="M38.977,15.057c-1.481,-8.062 -8.575,-13.972 -16.771,-13.972c-9.355,0 -17.053,7.697 -17.053,17.052c0,9.354 7.698,17.052 17.053,17.052c9.354,0 17.052,-7.698 17.052,-17.052c0,-0.002 0,-0.005 0,-0.007c-0.001,-1.031 -0.095,-2.059 -0.281,-3.073Z" style="fill:#ea1d25;fill-rule:nonzero;"/><path d="M56.333,27.887c-0.004,7.358 -6.059,13.409 -13.416,13.409c-5.413,0 -10.318,-3.275 -12.392,-8.274c6.357,-3.553 9.768,-10.803 8.452,-17.965c1.271,-0.389 2.593,-0.586 3.923,-0.586c7.362,0 13.424,6.054 13.433,13.416Z" style="fill:#fd990d;fill-rule:nonzero;"/><path d="M19.438,54.94l-19.003,0l0,18.295l19.137,0c-0.729,-1.077 -1.096,-2.359 -1.049,-3.659l0,-10.977c0.047,-1.27 0.358,-2.517 0.915,-3.659Z" style="fill:#f5a122;fill-rule:nonzero;"/><path d="M18.523,67.136l-18.088,0l0,6.099l19.137,0c-0.529,-1.304 -0.868,-2.789 -0.996,-4.334c-0.048,-0.582 -0.066,-1.172 -0.053,-1.765Z" style="fill:#ff8000;fill-rule:nonzero;"/><path d="M19.572,73.235c1.246,1.51 3.092,2.401 5.05,2.439l6.098,0l0,-12.197l-0.061,-0.048c-1.586,2.036 -4.196,3.707 -8.477,3.707l-3.659,0l0,2.44c-0.047,1.3 0.32,2.582 1.049,3.659Z" style="fill:#ff8000;fill-rule:nonzero;"/><path d="M36.818,70.795c-1.336,0.004 -2.435,1.103 -2.439,2.44c0.01,1.334 1.105,2.429 2.439,2.439l4.879,0c1.337,-0.004 2.435,-1.103 2.439,-2.439c-0.01,-1.335 -1.105,-2.43 -2.439,-2.44l-4.879,0Z" style="fill:#f5a122;fill-rule:nonzero;"/><path d="M39.258,65.917c-1.337,0.004 -2.436,1.102 -2.44,2.439c0.01,1.334 1.105,2.429 2.44,2.439l4.878,0c1.337,-0.004 2.436,-1.102 2.44,-2.439c-0.01,-1.334 -1.105,-2.429 -2.44,-2.439l-4.878,0Z" style="fill:#f5a122;fill-rule:nonzero;"/><path d="M40.477,61.038c-1.336,0.004 -2.435,1.103 -2.439,2.439c0.01,1.335 1.105,2.43 2.439,2.44l4.879,0c1.337,-0.004 2.435,-1.103 2.439,-2.44c-0.01,-1.334 -1.105,-2.429 -2.439,-2.439l-4.879,0Z" style="fill:#f5a122;fill-rule:nonzero;"/><path d="M39.258,56.159c-1.337,0.004 -2.436,1.103 -2.44,2.44c0.01,1.334 1.105,2.429 2.44,2.439l4.878,0c1.337,-0.004 2.436,-1.103 2.44,-2.439c-0.01,-1.335 -1.105,-2.43 -2.44,-2.44l-4.878,0Z" style="fill:#f5a122;fill-rule:nonzero;"/><path d="M19.438,54.94c-0.557,1.142 -0.868,2.389 -0.915,3.659l0,8.537l3.659,0c4.281,0 6.891,-1.671 8.477,-3.707c1.542,-2.118 2.413,-4.651 2.5,-7.27l4.879,0c4.879,0 4.879,-4.878 4.879,-4.878l-17.076,0c-2.675,-0.202 -5.218,1.251 -6.403,3.659Z" style="fill:#f5a122;fill-rule:nonzero;"/><path d="M23.402,63.477c3.345,0 6.098,-2.752 6.098,-6.098c0,-2.007 1.652,-3.659 3.659,-3.659l4.879,0c1.542,-0.003 2.924,-0.984 3.435,-2.439l1.444,0c0,0 0,4.878 -4.879,4.878l-4.879,0c0,0 0,10.977 -10.977,10.977l-3.659,0l0,-1.721c0,-0.514 0.204,-1.007 0.568,-1.37c0.363,-0.363 0.856,-0.568 1.37,-0.568c1.361,0 2.941,0 2.941,0Z" style="fill:#f5a122;fill-rule:nonzero;"/><path d="M38.038,63.477c0.004,-1.336 1.103,-2.435 2.439,-2.439l-1.219,0c-1.335,-0.01 -2.43,-1.105 -2.44,-2.439c0.004,-1.337 1.103,-2.436 2.44,-2.44l-6.099,0c-0.087,2.619 -0.958,5.152 -2.5,7.27c-1.586,2.036 -4.196,3.707 -8.477,3.707l-3.659,0l0,2.44l7.318,0c1.339,0 2.44,1.101 2.44,2.439l0,1.22c0,1.338 -1.101,2.439 -2.44,2.439l10.977,0c-1.334,-0.01 -2.429,-1.105 -2.439,-2.439c0.004,-1.337 1.103,-2.436 2.439,-2.44l2.44,0c-1.335,-0.01 -2.43,-1.105 -2.44,-2.439c0.004,-1.337 1.103,-2.435 2.44,-2.439l1.219,0c-1.334,-0.01 -2.429,-1.105 -2.439,-2.44Z" style="fill:#ff8000;fill-rule:nonzero;"/><path d="M42.917,21.789c-0.002,0 -0.003,0 -0.004,0c-1.335,0 -2.434,-1.098 -2.434,-2.433c0,-1.077 0.715,-2.031 1.747,-2.335c-0.242,-0.837 -0.548,-1.655 -0.914,-2.446c-0.791,0.092 -1.572,0.253 -2.335,0.482c1.308,7.161 -2.101,14.407 -8.452,17.965c2.068,5.002 6.972,8.281 12.385,8.281c3.431,0 6.734,-1.317 9.224,-3.679c-3.53,-0.049 -6.975,-1.099 -9.932,-3.028c-1.598,-1.147 -2.096,-3.329 -1.154,-5.056c1.23,-2.398 1.871,-5.056 1.869,-7.751Z" style="fill:#fd990d;fill-rule:nonzero;"/><path d="M40.477,19.35c0,1.338 1.101,2.439 2.44,2.439c-0.001,-1.031 -0.095,-2.06 -0.281,-3.073c-0.107,-0.572 -0.244,-1.137 -0.41,-1.695c-1.03,0.304 -1.744,1.255 -1.749,2.329Z" style="fill:#fd990d;fill-rule:nonzero;"/><path d="M31.33,51.281l-1.22,0c0,-3.529 -2.101,-5.173 -4.326,-6.915c-2.071,-1.623 -4.211,-3.294 -4.211,-6.502l1.219,0c0,2.614 1.735,3.97 3.743,5.543c2.248,1.757 4.795,3.751 4.795,7.874Z" style="fill:#ea1d25;fill-rule:nonzero;"/><path d="M36.209,51.281l-1.22,0c0,-2.366 2.4,-3.747 4.513,-4.964c1.377,-0.792 2.805,-1.611 2.805,-2.354l1.219,0c0,1.449 -1.657,2.402 -3.415,3.415c-1.829,1.049 -3.902,2.242 -3.902,3.903Z" style="fill:#fd990d;fill-rule:nonzero;"/><path d="M27.198,27.887c-1.911,0.013 -5.202,-0.59 -7.072,-1.48c-5.015,-2.387 -7.557,-5.944 -8.875,-9.161c-1.555,-3.794 -1.68,-8.027 -0.353,-11.907c-3.669,3.238 -5.773,7.902 -5.773,12.795c0,9.361 7.703,17.064 17.064,17.064c7.298,0 13.824,-4.681 16.164,-11.593c-0.906,0.802 -1.895,1.506 -2.949,2.099c-2.506,1.413 -5.33,2.165 -8.206,2.183Z" style="fill:#ea1d25;fill-rule:nonzero;"/><path d="M44.073,17.398c-0.938,0.61 -1.552,1.569 -0.825,2.498c0.919,1.161 4.896,4.37 8.104,4.334c3.208,-0.037 -0.01,-5.469 -2.915,-6.868c-1.389,-0.628 -2.986,-0.615 -4.364,0.036Z" style="fill:#fff;fill-rule:nonzero;"/><path d="M49.459,26.841c-0.109,0.272 -0.199,0.552 -0.27,0.837c-0.223,0.895 -0.232,1.831 -0.026,2.73c0.28,0.89 0.891,1.639 1.707,2.091c0.305,0.189 0.66,0.28 1.019,0.26c0.778,-0.082 1.273,-0.881 1.538,-1.628c0.289,-0.822 0.446,-1.683 0.467,-2.553c0.036,-0.646 -0.069,-1.291 -0.308,-1.892c-0.201,-0.533 -0.641,-0.942 -1.186,-1.105c-0.617,-0.192 -1.279,-0.177 -1.886,0.044c-0.492,0.258 -0.869,0.692 -1.055,1.216Z" style="fill:#fff;fill-rule:nonzero;"/><path d="M15.55,7.512c-0.115,0.206 -0.241,0.407 -0.377,0.6c-0.4,0.58 -0.915,1.073 -1.514,1.446c-0.535,0.295 -1.18,0.319 -1.735,0.064c-0.218,-0.092 -0.392,-0.264 -0.488,-0.48c-0.131,-0.622 0.013,-1.272 0.395,-1.782c0.351,-0.591 0.777,-1.135 1.267,-1.618c0.327,-0.345 0.721,-0.619 1.158,-0.805c0.334,-0.161 0.734,-0.106 1.013,0.138c0.33,0.306 0.543,0.718 0.604,1.163c0.018,0.447 -0.094,0.89 -0.323,1.274Z" style="fill:#fff;fill-rule:nonzero;"/><path d="M31.525,5.941c-0.295,-0.041 -0.595,0.017 -0.854,0.164c-0.33,0.256 -0.531,0.644 -0.551,1.06c-0.026,0.428 0.045,0.855 0.206,1.252c0.488,1.116 1.229,2.103 2.164,2.883c0.761,0.715 2.542,2.849 3.466,1.518c0.355,-0.933 0.291,-1.976 -0.176,-2.86c-0.783,-1.85 -2.395,-3.873 -4.255,-4.017Z" style="fill:#fff;fill-rule:nonzero;"/><path d="M34.61,14.489c-0.325,0.754 -0.306,1.612 0.05,2.351c0.089,0.205 0.228,0.384 0.403,0.523c0.192,0.143 0.44,0.188 0.67,0.122c0.219,-0.1 0.396,-0.272 0.502,-0.488c0.123,-0.185 0.233,-0.378 0.331,-0.578c0.295,-0.637 0.447,-1.853 -0.212,-2.372c-0.198,-0.119 -0.423,-0.182 -0.654,-0.182c-0.448,0 -0.864,0.238 -1.09,0.624Z" style="fill:#fff;fill-rule:nonzero;"/></g></svg>