<?xml version="1.0" encoding="UTF-8" standalone="no"?><!DOCTYPE svg PUBLIC "-//W3C//DTD SVG 1.1//EN" "http://www.w3.org/Graphics/SVG/1.1/DTD/svg11.dtd"><svg width="100%" height="100%" viewBox="0 0 60 57" version="1.1" xmlns="http://www.w3.org/2000/svg" xmlns:xlink="http://www.w3.org/1999/xlink" xml:space="preserve" xmlns:serif="http://www.serif.com/" style="fill-rule:evenodd;clip-rule:evenodd;stroke-linejoin:round;stroke-miterlimit:2;"><g id="surface1"><g id="_2" serif:id="2"><path d="M47.889,37.156l0.001,0c0,0 -0.006,-0.007 -0.016,-0.018c-0.023,-0.023 -0.046,-0.047 -0.07,-0.069c-1.435,-1.441 -21.064,-21.175 -21.261,-21.376c-0.205,-0.206 -0.402,-0.23 -1.752,-0.688c-1.188,-0.405 -3.018,-2.052 -3.439,-2.442l-13.956,13.957c0.492,1.127 2.164,4.702 4.556,7.096c2.873,2.872 17.867,18.555 17.867,18.555l0.002,-0.004c0.579,0.634 1.411,1.032 2.336,1.032c1.753,0 3.173,-1.421 3.173,-3.173c0,-0.436 -0.086,-0.85 -0.246,-1.227c0.505,0.922 1.486,1.549 2.61,1.549c1.644,0 2.975,-1.332 2.975,-2.974c0,-0.577 -0.167,-1.112 -0.45,-1.568c0.491,0.385 1.11,0.617 1.783,0.617c1.6,0 2.898,-1.297 2.898,-2.896c0,-0.592 -0.179,-1.14 -0.481,-1.599c0.39,0.185 0.827,0.292 1.288,0.292c1.664,0 3.013,-1.344 3.013,-3c0,-0.799 -0.317,-1.526 -0.831,-2.064" style="fill:#f4a022;fill-rule:nonzero;"/><path d="M12.938,39.637c-0.689,0 -1.374,-0.279 -1.872,-0.827c-0.938,-1.033 -0.862,-2.632 0.171,-3.571l2.739,-2.486c1.033,-0.939 2.631,-0.861 3.57,0.17c0.938,1.035 0.861,2.633 -0.172,3.572l-2.737,2.485c-0.485,0.442 -1.093,0.657 -1.699,0.657" style="fill:#ea1d25;fill-rule:nonzero;"/><path d="M25.028,52.88c-0.688,0 -1.374,-0.281 -1.872,-0.829c-0.938,-1.033 -0.862,-2.632 0.17,-3.571l2.74,-2.486c1.033,-0.938 2.631,-0.861 3.569,0.171c0.94,1.034 0.862,2.632 -0.171,3.572l-2.738,2.486c-0.484,0.439 -1.092,0.657 -1.698,0.657" style="fill:#ea1d25;fill-rule:nonzero;"/><path d="M16.517,44.54c-0.681,0 -1.362,-0.276 -1.86,-0.817c-0.945,-1.025 -0.878,-2.626 0.149,-3.569l3.295,-3.032c1.027,-0.945 2.626,-0.88 3.572,0.149c0.945,1.027 0.877,2.626 -0.149,3.571l-3.296,3.031c-0.485,0.448 -1.098,0.667 -1.711,0.667" style="fill:#ea1d25;fill-rule:nonzero;"/><path d="M20.724,48.771c-0.681,0 -1.362,-0.274 -1.859,-0.815c-0.946,-1.029 -0.879,-2.628 0.149,-3.573l3.293,-3.031c1.027,-0.945 2.626,-0.878 3.572,0.148c0.945,1.028 0.878,2.629 -0.149,3.571l-3.295,3.033c-0.485,0.446 -1.099,0.667 -1.711,0.667" style="fill:#ea1d25;fill-rule:nonzero;"/><path d="M33.75,14.813c-3.963,-0.428 -6.06,0.031 -7.037,0.95c-0.977,0.918 -7.898,7.458 -7.898,7.458c0,0 -1.877,2.143 0.537,4.251c2.412,2.104 4.136,0.917 4.48,0.613c0.345,-0.308 5.475,-5.401 5.475,-5.401c0,0 1.991,2.068 3.907,2.375c1.914,0.305 2.489,0.052 3.751,1.195c1.264,1.14 9.096,9.063 9.096,9.063l6.724,-7.991l-14.059,-14.058c-0.58,0.658 -2.056,1.864 -4.976,1.545" style="fill:#ea1d25;fill-rule:nonzero;"/><path d="M45.32,2.287c0.677,-0.657 1.582,-1.026 2.525,-1.029c1.824,-0.017 4.717,-0.051 7.072,-0.076c1.976,-0.009 3.588,1.58 3.609,3.557c0.06,5.527 0.172,15.858 0.195,19.394c0.001,0.619 -0.244,1.213 -0.682,1.651c-0.612,0.612 -1.411,1.412 -1.411,1.412c-1.234,1.232 -3.232,1.232 -4.464,-0.001l-13.741,-13.741c-1.233,-1.231 -1.233,-3.23 0,-4.464c0,0 4.738,-4.605 6.897,-6.703Z" style="fill:#fdc30d;fill-rule:nonzero;"/><path d="M15.467,2.208c-0.678,-0.658 -1.586,-1.026 -2.531,-1.026c-1.986,0 -5.283,0 -7.872,0c-1.969,0 -3.572,1.586 -3.593,3.555c-0.061,5.319 -0.171,15.092 -0.194,18.53c-0.001,0.619 0.244,1.213 0.682,1.651c0.612,0.613 1.411,1.412 1.411,1.412c1.234,1.232 3.232,1.232 4.464,-0.001l13.741,-13.74c1.233,-1.232 1.233,-3.231 0,-4.464c0,0 -4.114,-3.986 -6.108,-5.917Z" style="fill:#de5700;fill-rule:nonzero;"/><path d="M6.975,24.039c-0.856,0.856 -2.245,0.856 -3.1,0c-0.856,-0.855 -0.856,-2.244 0,-3.101c0.857,-0.856 2.245,-0.856 3.101,0c0.856,0.856 0.856,2.245 -0.001,3.101" style="fill:#fdc30d;fill-rule:nonzero;"/></g></g></svg>