<?xml version="1.0" encoding="UTF-8" standalone="no"?><!DOCTYPE svg PUBLIC "-//W3C//DTD SVG 1.1//EN" "http://www.w3.org/Graphics/SVG/1.1/DTD/svg11.dtd"><svg width="100%" height="100%" viewBox="0 0 60 57" version="1.1" xmlns="http://www.w3.org/2000/svg" xmlns:xlink="http://www.w3.org/1999/xlink" xml:space="preserve" xmlns:serif="http://www.serif.com/" style="fill-rule:evenodd;clip-rule:evenodd;stroke-linejoin:round;stroke-miterlimit:2;"><g id="Vector_Smart_Object"><path d="M49.379,4.091c-5.514,-5.272 -14.317,-5.272 -19.831,0c-5.514,-5.272 -14.318,-5.272 -19.832,0c-2.622,2.5 -4.107,5.97 -4.107,9.593c0,3.623 1.485,7.093 4.107,9.594l19.832,19.187l19.831,-19.187c2.622,-2.501 4.107,-5.971 4.107,-9.594c0,-3.623 -1.485,-7.093 -4.107,-9.593Z" style="fill:#ea4b1d;fill-rule:nonzero;"/><path d="M44.279,38.865c0,0 3.986,-2.624 4.658,-1.961l1.989,-1.971l4.401,-7.199l2.762,0.92l-3.839,13.479l-9.971,8.517l0,6.546l-11.969,0l0,-9.17c0.195,-2.016 1.146,-3.885 2.66,-5.23c1.515,-1.345 3.987,-3.931 9.309,-3.931Z" style="fill:#f55022;fill-rule:nonzero;"/><path d="M10.158,36.904c0.672,-0.663 4.659,1.961 4.659,1.961c5.321,0 9.308,3.931 9.308,3.931c1.514,1.345 2.465,3.214 2.661,5.23l0,9.17l-11.969,0l0,-6.546l-9.971,-8.517l-3.84,-13.479l2.762,-0.92l4.401,7.199l1.989,1.971Z" style="fill:#f55022;fill-rule:nonzero;"/><path d="M48.937,36.904c0.663,0.653 1.989,1.961 -1.998,5.892l-4.502,2.431l-4.603,2.762l0,9.207l-5.524,0l0,-9.17c0.195,-2.016 1.146,-3.885 2.66,-5.23c1.515,-1.345 3.987,-3.931 9.309,-3.931c0,0 3.986,-2.624 4.658,-1.961Z" style="fill:#fdc30d;fill-rule:nonzero;"/><path d="M48.937,36.904c-0.068,-0.055 -0.152,-0.087 -0.239,-0.092c0.467,0.719 0.31,1.686 -0.359,2.222l-2.892,2.314c-0.165,0.132 -0.343,0.246 -0.531,0.34l-7.682,3.481c-1.314,0.595 -2.162,1.91 -2.162,3.353l0,2.229c-0.004,1.67 -1.145,3.138 -2.762,3.553l0,2.892l5.524,0l0,-9.207l4.603,-2.762l4.502,-2.431c3.987,-3.931 2.661,-5.239 1.998,-5.892Z" style="fill:#f57e22;fill-rule:nonzero;"/><path d="M50.926,34.933l-1.901,1.884l0.034,0.026c0.478,0.358 1.059,0.551 1.656,0.551c1.022,0 1.964,-0.568 2.442,-1.472l3.263,-6.161c0.29,-0.545 0.755,-0.977 1.319,-1.227l-2.412,-0.8l-4.401,7.199Z" style="fill:#f57e22;fill-rule:nonzero;"/><path d="M44.279,50.751c-2.021,0 -3.683,1.662 -3.683,3.683l0,2.762l3.683,0l0,-6.445Z" style="fill:#f55022;fill-rule:nonzero;"/><path d="M10.158,36.904c-0.663,0.653 -1.989,1.961 1.998,5.892l4.502,2.431l4.603,2.762l0,9.207l5.525,0l0,-9.17c-0.196,-2.016 -1.147,-3.885 -2.661,-5.23c-1.514,-1.345 -3.987,-3.931 -9.308,-3.931c0,0 -3.987,-2.624 -4.659,-1.961Z" style="fill:#fdc30d;fill-rule:nonzero;"/><path d="M10.158,36.904c0.068,-0.055 0.152,-0.087 0.239,-0.092c-0.466,0.719 -0.31,1.686 0.359,2.222l2.892,2.314c0.165,0.132 0.343,0.246 0.532,0.34l7.681,3.481c1.314,0.595 2.162,1.91 2.163,3.353l0,2.229c0.003,1.67 1.144,3.138 2.762,3.553l0,2.892l-5.525,0l0,-9.207l-4.603,-2.762l-4.502,-2.431c-3.987,-3.931 -2.661,-5.239 -1.998,-5.892Z" style="fill:#f57e22;fill-rule:nonzero;"/><path d="M8.169,34.933l1.902,1.884l-0.035,0.026c-0.477,0.358 -1.058,0.551 -1.655,0.551c-1.023,0 -1.965,-0.568 -2.443,-1.472l-3.262,-6.157c-0.291,-0.545 -0.755,-0.977 -1.32,-1.228l2.412,-0.803l4.401,7.199Z" style="fill:#f57e22;fill-rule:nonzero;"/><path d="M14.817,50.751c2.02,0 3.682,1.662 3.682,3.683l0,2.762l-3.682,0l0,-6.445Z" style="fill:#f55022;fill-rule:nonzero;"/><path d="M53.341,11.829c-1.237,7.117 -10.584,14.063 -21.952,14.063l-3.683,0c-11.367,0 -20.715,-6.946 -21.952,-14.063c-0.6,4.228 0.875,8.495 3.959,11.449l19.835,19.187l19.831,-19.187c3.085,-2.953 4.562,-7.221 3.962,-11.449Z" style="fill:#ea1d25;fill-rule:nonzero;"/><path d="M21.59,2.579c1.241,0.764 2.05,1.969 1.09,3.137c-1.213,1.459 -6.467,5.491 -10.704,5.445c-4.237,-0.046 0.012,-6.872 3.85,-8.629c1.715,-0.786 4.44,-0.769 5.764,0.047Z" style="fill:#fff;fill-rule:nonzero;"/><path d="M11.719,13.133c0.083,0.206 0.151,0.417 0.204,0.632c0.169,0.676 0.176,1.382 0.02,2.061c-0.211,0.672 -0.673,1.237 -1.289,1.579c-0.23,0.142 -0.498,0.211 -0.769,0.196c-0.587,-0.062 -0.961,-0.665 -1.161,-1.229c-0.218,-0.62 -0.337,-1.271 -0.352,-1.927c-0.027,-0.488 0.052,-0.975 0.232,-1.428c0.152,-0.403 0.484,-0.711 0.896,-0.835c0.465,-0.145 0.965,-0.133 1.423,0.034c0.372,0.194 0.656,0.522 0.796,0.917Z" style="fill:#fff;fill-rule:nonzero;"/><path d="M39.675,3.796c-5.556,0 -10.127,4.572 -10.127,10.127c0,5.556 4.571,10.128 10.127,10.128c2.191,0 4.324,-0.711 6.077,-2.026c2.548,-1.911 4.051,-4.916 4.051,-8.102c0,-5.555 -4.572,-10.127 -10.128,-10.127Zm-0.921,18.357c-1.107,-0.122 -2.178,-0.468 -3.147,-1.018l3.147,-3.148l0,4.166Zm1.842,-4.166l3.148,3.148c-0.969,0.55 -2.041,0.896 -3.148,1.018l0,-4.166Zm-9.207,-4.064c0.006,-4.196 3.195,-7.761 7.365,-8.231l0,9.692l-4.655,4.656c-1.73,-1.562 -2.716,-3.787 -2.71,-6.117Zm13.863,6.117l-4.656,-4.656l0,-9.692c4.17,0.47 7.36,4.035 7.365,8.231c0.006,2.33 -0.98,4.555 -2.709,6.117Z" style="fill:#fff;fill-rule:nonzero;"/></g></svg>