<?xml version="1.0" encoding="UTF-8" standalone="no"?><!DOCTYPE svg PUBLIC "-//W3C//DTD SVG 1.1//EN" "http://www.w3.org/Graphics/SVG/1.1/DTD/svg11.dtd"><svg width="100%" height="100%" viewBox="0 0 60 57" version="1.1" xmlns="http://www.w3.org/2000/svg" xmlns:xlink="http://www.w3.org/1999/xlink" xml:space="preserve" xmlns:serif="http://www.serif.com/" style="fill-rule:evenodd;clip-rule:evenodd;stroke-linecap:round;stroke-linejoin:round;stroke-miterlimit:1.5;"><g id="surface1"><path d="M33.548,14.696c0,1.959 -1.589,3.548 -3.548,3.548c-1.959,0 -3.548,-1.589 -3.548,-3.548c0,-1.96 1.589,-3.548 3.548,-3.548c1.959,0 3.548,1.588 3.548,3.548" style="fill:#8faebf;fill-rule:nonzero;"/><path d="M29.999,15.582c1.137,0 2.254,0.086 3.348,0.246c0.12,-0.358 0.201,-0.734 0.201,-1.132c0,-1.96 -1.589,-3.548 -3.548,-3.548c-1.959,0 -3.548,1.588 -3.548,3.548c0,0.398 0.081,0.774 0.201,1.132c1.093,-0.16 2.21,-0.246 3.346,-0.246" style="fill:#b1c4d0;fill-rule:nonzero;"/><path d="M33.548,14.696c0,-1.96 -1.589,-3.548 -3.548,-3.548l0,7.096c1.959,0 3.548,-1.589 3.548,-3.548" style="fill:#8faebf;fill-rule:nonzero;"/><path d="M55.61,41.305l-51.22,0c-0.979,0 -1.774,0.795 -1.774,1.774c0,0.979 0.795,1.774 1.774,1.774l51.22,0c0.979,0 1.774,-0.795 1.774,-1.774c0,-0.979 -0.795,-1.774 -1.774,-1.774" style="fill:#ea1d25;fill-rule:nonzero;"/><path d="M53.062,39.531c0,-0.001 -0.001,-0.003 -0.001,-0.006c-0.004,-12.713 -10.348,-23.055 -23.062,-23.055c-12.717,0 -23.062,10.345 -23.062,23.062c0,0.979 -0.001,1.773 0.001,1.773l46.124,0c0.002,0 0,-1.529 0,-1.774" style="fill:#b1c4d0;fill-rule:nonzero;"/><path d="M30,16.47l0,24.835l23.062,0c0.002,0 0,-1.529 0,-1.774c0,-0.001 -0.001,-0.003 -0.001,-0.006c-0.004,-12.713 -10.347,-23.055 -23.061,-23.055" style="fill:#8faebf;fill-rule:nonzero;"/><path d="M14.493,6.836c1.591,-3.15 4.772,-3.15 6.363,-1.575c1.591,1.575 1.591,4.725 0,7.875c-1.114,2.363 -3.977,4.725 -6.363,6.3c-2.386,-1.575 -5.25,-3.937 -6.363,-6.3c-1.591,-3.15 -1.591,-6.3 0,-7.875c1.591,-1.575 4.772,-1.575 6.363,1.575Z" style="fill:#ea1d25;stroke:#f57e22;stroke-width:1px;"/><path d="M55.61,41.305l-51.22,0c-0.979,0 -1.774,0.795 -1.774,1.774l54.768,0c0,-0.979 -0.795,-1.774 -1.774,-1.774" style="fill:#f57e22;fill-rule:nonzero;"/></g></svg>