<?xml version="1.0" encoding="UTF-8" standalone="no"?><!DOCTYPE svg PUBLIC "-//W3C//DTD SVG 1.1//EN" "http://www.w3.org/Graphics/SVG/1.1/DTD/svg11.dtd"><svg width="100%" height="100%" viewBox="0 0 108 50" version="1.1" xmlns="http://www.w3.org/2000/svg" xmlns:xlink="http://www.w3.org/1999/xlink" xml:space="preserve" xmlns:serif="http://www.serif.com/" style="fill-rule:evenodd;clip-rule:evenodd;stroke-linejoin:round;stroke-miterlimit:2;"><g id="Layer_1-2"><path d="M40.635,30.108c-1.008,0.216 -2.593,0.28 -4.231,0.249l0,-0.626c0,-2.906 4.176,-11.91 7.013,-8.659c1.229,1.407 1.282,8.065 -2.782,9.036m4.282,-11.725c-3.273,-2.815 -6.356,-0.187 -8.458,3.533c0,-6.752 -0.08,-13.6 -0.571,-20.195l-2.73,0.438c0.683,9.16 0.548,18.975 0.548,28.198c-1.174,-0.033 -3.002,0 -3.765,-0.033l0.026,3.034c2.073,0.03 7.04,-0.032 9.003,-0.157c9.577,-0.686 9.059,-12.161 5.947,-14.818" style="fill:#355666;fill-rule:nonzero;"/><path d="M72.854,30.108c-1.009,0.216 -2.592,0.28 -4.229,0.249l0,-0.626c0,-2.906 4.176,-11.91 7.011,-8.659c1.229,1.407 1.282,8.065 -2.782,9.036m-18.087,0.655c-1.393,0.187 -2.675,-0.313 -2.756,-1.782c-0.191,-3.252 3.245,-5.47 6.001,-7.19c0.082,1.124 0.165,2.125 0.192,2.501c0.082,0.813 0.108,1.594 0.164,2.344c0.137,2.313 -1.338,3.845 -3.601,4.127m22.37,-12.38c-3.273,-2.815 -6.357,-0.187 -8.458,3.533c0,-6.752 -0.082,-13.6 -0.573,-20.195l-2.729,0.438c0.681,9.16 0.547,18.975 0.547,28.198c-0.422,-0.012 -0.932,-0.015 -1.446,-0.016l0,-0.045c-0.6,0 -3.053,0.311 -3.219,-1.003c-0.491,-3.843 -0.572,-8.159 -0.982,-12.161l-2.592,0.47c0,0.028 0.024,0.368 0.074,0.853c0.02,-0.013 0.043,-0.027 0.064,-0.041l-0.056,0.125c-0.004,-0.03 -0.004,-0.056 -0.008,-0.084c-3.049,2.026 -7.2,4.612 -8.151,8.462c-1.88,7.504 6.167,8.848 9.687,4.753c0.546,0.963 1.417,1.535 2.889,1.663l0.002,0.025c2.073,0.03 7.038,-0.032 9.003,-0.157c9.578,-0.686 9.059,-12.161 5.948,-14.818" style="fill:#355666;fill-rule:nonzero;"/><path d="M25.032,29.451c1.937,3.374 -1.637,4.094 -5.103,4.158c-0.053,-5.878 3.493,-6.973 5.103,-4.158m-4.747,6.689c4.474,-0.125 9.276,-1.344 7.72,-7.159c-1.487,-5.582 -7.857,-6.094 -10.008,-0.331c-1.824,-1.256 -5.431,-4.234 -8.175,-6.501c-1.599,-1.321 -2.872,-2.369 -3.829,-3.134c0,-0.02 0,-0.04 -0.001,-0.059c2.882,-2.579 7.163,-6.415 8.829,-8.397l-1.999,-2.205c-1.239,1.473 -4.328,4.31 -6.869,6.6c-0.052,-5.93 -0.074,-11.629 -0.074,-12.827l-2.702,0.249c0.014,1.617 0.034,8.388 0.103,14.973c-0.202,0.181 -0.391,0.353 -0.562,0.505l-1.648,1.491l1.843,1.153c0.101,0.063 0.242,0.162 0.409,0.286c0.075,5.427 0.189,10.033 0.374,10.48c0.607,1.474 1.533,2.156 2.599,2.3l-0.007,-3.646c-0.101,-0.105 -0.183,-3.037 -0.243,-6.966c0.688,0.564 1.423,1.174 2.154,1.775c4.311,3.561 7.54,6.199 9.133,7.139c-0.029,0.4 -0.05,0.808 -0.049,1.242l0.246,3.313c1.227,8.159 13.916,6.128 19.316,6.095l0,-3.092c-3.465,-0.034 -15.224,1.437 -16.56,-3.284" style="fill:#355666;fill-rule:nonzero;"/><path d="M26.834,21.072c-0.983,-1.282 -0.792,-0.844 -1.582,-2.314l-2.294,1.656c0.873,1.534 0.792,1.283 1.828,2.658l2.048,-2Z" style="fill:#ea1d25;fill-rule:nonzero;"/><path d="M22.303,21.072c-0.954,-1.283 -0.764,-0.844 -1.582,-2.314l-2.264,1.656c0.874,1.534 0.79,1.283 1.801,2.657l2.045,-1.999l0,0Z" style="fill:#ea1d25;fill-rule:nonzero;"/><path d="M39.442,38.203l2.662,6.06l1.133,2.949l-0.29,-3.071l0,-5.938l1.398,0l0,11.292l-1.292,0l-2.688,-5.98l-1.055,-2.869l0.238,2.93l0,5.919l-1.397,0l0,-11.292l1.291,0Z" style="fill:#58595b;fill-rule:nonzero;"/><path d="M50.221,45.657l-0.318,-1.677l-0.578,-3.635l-0.606,3.635l-0.344,1.677l1.846,0Zm0.184,0.868l0,0.02l-2.135,0l-0.606,2.95l-1.37,0l2.267,-11.292l1.501,0l2.293,11.292l-1.37,0l-0.58,-2.97Z" style="fill:#58595b;fill-rule:nonzero;"/><path d="M58.838,39.132l-2.004,0l0,10.363l-1.319,0l0,-10.363l-2.028,0l0,-0.929l5.351,0l0,0.929Z" style="fill:#58595b;fill-rule:nonzero;"/><rect x="60.601" y="38.203" width="1.371" height="11.292" style="fill:#58595b;"/><path d="M65.504,40.505l0,6.687c0,0.767 0.527,1.433 1.607,1.433c1.081,0 1.554,-0.645 1.554,-1.454l0,-6.666c0,-0.727 -0.449,-1.454 -1.554,-1.454c-1.08,0 -1.607,0.647 -1.607,1.454m-1.398,6.688l0,-6.688c0,-1.252 1.029,-2.403 3.005,-2.403c1.819,0 2.926,1.11 2.926,2.403l0,6.666c0,1.253 -0.975,2.445 -2.926,2.445c-1.87,0 -3.005,-1.091 -3.005,-2.423" style="fill:#58595b;fill-rule:nonzero;"/><path d="M73.7,38.203l2.661,6.06l1.134,2.949l-0.29,-3.071l0,-5.938l1.395,0l0,11.292l-1.29,0l-2.688,-5.98l-1.054,-2.869l0.237,2.93l0,5.919l-1.397,0l0,-11.292l1.292,0Z" style="fill:#58595b;fill-rule:nonzero;"/><path d="M99.856,13.72c2.466,-2.305 3.799,-3.156 0.963,-5.138c0,0 -4.831,-2.672 -8.372,-4.27c0,0 -11.506,-6.903 -11.581,-2.562c-0.037,2.195 1.27,27.919 1.27,27.919c0.085,0.51 4.443,-3.536 17.72,-15.949" style="fill:#f57e22;fill-rule:nonzero;"/><path d="M103.217,15.862c-0.629,-1.364 -2.465,0.595 -3.862,1.99c-4.636,4.636 -10.422,9.244 -12.221,11.152c-1.798,1.908 -4.492,4.22 -2.819,5.228c0.897,1.082 2.987,2.679 3.878,3.446c2.504,2.16 3.595,3.48 6.199,5.502c3.504,2.723 4.047,1.974 5.059,-2.273c1.645,-6.882 3.213,-14.512 4.572,-21.47c0.256,-1.302 0.052,-2.072 -0.806,-3.575" style="fill:#ea1d25;fill-rule:nonzero;"/><path d="M83.361,36.895l1.711,8.526c0.14,0.685 0.774,1.141 1.425,1.02l6.382,0.516c0.647,-0.122 1.058,-0.776 0.922,-1.459l-10.441,-8.603l0.001,0Z" style="fill:#fdc30d;fill-rule:nonzero;"/></g></svg>