<?xml version="1.0" encoding="UTF-8" standalone="no"?><!DOCTYPE svg PUBLIC "-//W3C//DTD SVG 1.1//EN" "http://www.w3.org/Graphics/SVG/1.1/DTD/svg11.dtd"><svg width="100%" height="100%" viewBox="0 0 642 257" version="1.1" xmlns="http://www.w3.org/2000/svg" xmlns:xlink="http://www.w3.org/1999/xlink" xml:space="preserve" xmlns:serif="http://www.serif.com/" style="fill-rule:evenodd;clip-rule:evenodd;stroke-linejoin:round;stroke-miterlimit:2;"><g><g><path d="M50,0c0,0 -50,0 -50,50l0,156.021c0,0 0,50 50,50l541.921,0c0,0 50,0 50,-50l0,-156.021c0,0 0,-50 -50,-50l-541.921,0Zm0,7.5c0,0 -42.5,0 -42.5,42.5c0,0 0,156.021 0,156.021c0,0 0,42.5 42.5,42.5c0,0 541.921,0 541.921,0c0,0 42.5,0 42.5,-42.5c0,0 0,-156.021 0,-156.021c0,0 0,-42.5 -42.5,-42.5l-541.921,0Z" style="fill:#fdde80;"/></g><g><path d="M171.789,109.283c-0.612,-0.223 -0.917,-0.612 -0.917,-1.167c0,-0.333 0.028,-0.611 0.083,-0.833c1.611,-5.556 3,-11.125 4.167,-16.709c1.167,-5.583 2.361,-11.236 3.583,-16.958c1,-4.667 1.972,-9.306 2.917,-13.917c0.944,-4.611 1.805,-9.278 2.583,-14l0.75,-0.167l1.167,-0.041l3.083,-0.167c0.5,-0.028 0.861,-0.042 1.084,-0.042c0.777,0 1.222,0.306 1.333,0.917c0.5,1.778 0.917,3.556 1.25,5.333c0.333,1.778 0.75,3.556 1.25,5.334c0.444,1.555 1.042,3.153 1.792,4.791c0.75,1.639 1.402,3.153 1.958,4.542c2,5.222 3.792,10.639 5.375,16.25c1.583,5.611 3.125,11.111 4.625,16.5c0.444,1.611 0.972,3.125 1.583,4.542c0.611,1.417 1.139,2.875 1.584,4.375c0.055,0.167 -0.334,0.347 -1.167,0.542c-0.833,0.194 -1.792,0.347 -2.875,0.458c-1.083,0.111 -2.125,0.222 -3.125,0.333c-1,0.111 -1.611,0.167 -1.833,0.167l-3.167,0.25l-0.667,0c-0.666,0 -1.43,-0.028 -2.291,-0.083c-0.862,-0.056 -1.292,-0.112 -1.292,-0.167l-0.75,-0.833c0,-0.112 -0.056,-0.723 -0.167,-1.834c-0.111,-1.111 -0.25,-2.319 -0.416,-3.625c-0.167,-1.305 -0.375,-2.486 -0.625,-3.541c-0.25,-1.056 -0.514,-1.584 -0.792,-1.584l-9.667,0c-0.166,0.056 -0.416,0.084 -0.75,0.084l-1.416,-0.084c-0.167,0 -0.32,0.014 -0.459,0.042c-0.139,0.028 -0.264,0.153 -0.375,0.375c-0.111,0.333 -0.25,1.069 -0.416,2.208c-0.167,1.139 -0.362,2.32 -0.584,3.542c-0.222,1.222 -0.472,2.333 -0.75,3.333c-0.278,1 -0.555,1.528 -0.833,1.584c-0.445,0.111 -0.945,0.236 -1.5,0.375c-0.556,0.138 -1.111,0.208 -1.667,0.208c-0.722,0 -1.278,-0.111 -1.666,-0.333Zm8.916,-15.75l3.417,0.083l1.667,0c0.777,0 1.569,-0.014 2.375,-0.042c0.805,-0.028 1.513,-0.097 2.125,-0.208c0.611,-0.111 0.916,-0.25 0.916,-0.417l0,-0.25c-0.333,-1.444 -0.778,-3.194 -1.333,-5.25c-0.556,-2.055 -1.111,-4.041 -1.667,-5.958c-0.555,-1.917 -1.083,-3.556 -1.583,-4.917c-0.5,-1.361 -0.861,-2.041 -1.083,-2.041c-0.278,0 -0.514,0.347 -0.709,1.041c-0.194,0.695 -0.403,1.597 -0.625,2.709c-0.222,1.166 -0.514,2.319 -0.875,3.458c-0.361,1.139 -0.722,2.292 -1.083,3.458c-0.361,1.167 -0.695,2.334 -1,3.5c-0.306,1.167 -0.486,2.334 -0.542,3.5l0,1.334Z" style="fill:#fbc311;fill-rule:nonzero;"/><path d="M254.789,110.116c-0.945,-0.889 -1.834,-1.875 -2.667,-2.958c-0.833,-1.084 -1.75,-2.098 -2.75,-3.042c-0.056,0 -0.097,-0.014 -0.125,-0.042c-0.028,-0.028 -0.07,-0.041 -0.125,-0.041c-0.111,0 -0.236,0.125 -0.375,0.375c-0.139,0.25 -0.278,0.541 -0.417,0.875c-0.139,0.333 -0.291,0.666 -0.458,1c-0.167,0.333 -0.306,0.555 -0.417,0.666c-1,1.278 -2.458,2.139 -4.375,2.584c-1.916,0.444 -3.875,0.666 -5.875,0.666c-4.166,0 -7.819,-0.791 -10.958,-2.375c-3.139,-1.583 -5.75,-3.68 -7.833,-6.291c-2.084,-2.612 -3.653,-5.612 -4.709,-9c-1.055,-3.389 -1.583,-6.917 -1.583,-10.584c0,-4.722 0.764,-9.333 2.292,-13.833c1.527,-4.5 3.652,-8.695 6.375,-12.584c1.333,-1.888 2.805,-3.472 4.416,-4.75c1.611,-1.277 3.334,-2.319 5.167,-3.125c1.833,-0.805 3.764,-1.43 5.792,-1.875c2.027,-0.444 4.125,-0.805 6.291,-1.083l1.084,-0.083c1,0 1.986,0.125 2.958,0.375c0.972,0.25 1.93,0.514 2.875,0.791c1.333,0.5 2.5,1.028 3.5,1.584c1,0.555 1.833,1.222 2.5,2c0.667,0.778 1.153,1.694 1.458,2.75c0.306,1.055 0.459,2.305 0.459,3.75c0,1.5 -0.264,3.083 -0.792,4.75c-0.528,1.666 -1.278,3.18 -2.25,4.541c-0.972,1.362 -2.153,2.487 -3.542,3.376c-1.389,0.888 -2.944,1.333 -4.666,1.333c-0.778,0 -1.584,-0.097 -2.417,-0.292c-0.833,-0.194 -1.597,-0.541 -2.292,-1.041c-0.694,-0.5 -1.264,-1.139 -1.708,-1.917c-0.445,-0.778 -0.667,-1.75 -0.667,-2.917c0,-2.222 0.514,-3.847 1.542,-4.875c1.028,-1.028 2.569,-1.93 4.625,-2.708c0.222,-0.056 0.514,-0.097 0.875,-0.125c0.361,-0.028 0.694,-0.07 1,-0.125c0.305,-0.056 0.569,-0.153 0.792,-0.292c0.222,-0.139 0.333,-0.375 0.333,-0.708c0,-0.5 -0.25,-0.986 -0.75,-1.459c-0.5,-0.472 -1.083,-0.888 -1.75,-1.25c-0.667,-0.361 -1.333,-0.666 -2,-0.916c-0.667,-0.25 -1.139,-0.403 -1.417,-0.459c-0.278,-0.055 -0.514,-0.097 -0.708,-0.125c-0.195,-0.027 -0.431,-0.041 -0.708,-0.041c-1.223,0 -2.334,0.361 -3.334,1.083c-1,0.722 -1.903,1.625 -2.708,2.708c-0.806,1.084 -1.486,2.223 -2.042,3.417c-0.555,1.195 -1,2.264 -1.333,3.208c-0.556,1.612 -0.875,3.278 -0.958,5c-0.084,1.723 -0.209,3.389 -0.375,5.001c-0.278,2.5 -0.556,4.986 -0.834,7.458c-0.278,2.472 -0.416,4.958 -0.416,7.458c0,1.445 0.069,2.847 0.208,4.209c0.139,1.361 0.403,2.736 0.792,4.125c0.277,1.055 0.68,1.986 1.208,2.791c0.528,0.806 1.097,1.653 1.708,2.542c0.834,1.333 1.861,2.25 3.084,2.75c1.222,0.5 2.666,0.75 4.333,0.75c0.778,0 1.472,-0.292 2.083,-0.875c0.611,-0.583 1.125,-1.292 1.542,-2.125c0.417,-0.833 0.722,-1.736 0.917,-2.708c0.194,-0.973 0.291,-1.848 0.291,-2.625c0,-0.056 -0.055,-0.584 -0.166,-1.584c-0.112,-1 -0.264,-2.083 -0.459,-3.25c-0.194,-1.166 -0.416,-2.222 -0.666,-3.166c-0.25,-0.945 -0.542,-1.417 -0.875,-1.417c-0.945,0.111 -1.903,0.278 -2.875,0.5c-0.973,0.222 -1.848,0.333 -2.625,0.333c-0.889,0 -1.625,-0.236 -2.209,-0.708c-0.583,-0.472 -0.875,-1.403 -0.875,-2.792c0,-1.222 0.431,-1.958 1.292,-2.208c0.861,-0.25 1.792,-0.375 2.792,-0.375l3.5,0.083l1,-0.083l13.166,-1.333c1.389,-0.112 2.667,-0.362 3.834,-0.75c1.166,-0.389 2.166,-0.584 3,-0.584c0.666,0 1.194,0.209 1.583,0.625c0.389,0.417 0.583,1.181 0.583,2.292c0,0.722 -0.083,1.611 -0.25,2.667c-0.333,0.166 -0.847,0.319 -1.541,0.458c-0.695,0.139 -1.389,0.264 -2.084,0.375c-0.694,0.111 -1.319,0.208 -1.875,0.292c-0.555,0.083 -0.861,0.208 -0.916,0.375c0.333,8.611 1.416,17.055 3.25,25.333l0,0.333c0,0.278 -0.167,0.5 -0.5,0.667c-0.334,0.167 -0.737,0.278 -1.209,0.333c-0.472,0.056 -0.972,0.084 -1.5,0.084l-1.875,0c-0.278,0 -0.486,-0.07 -0.625,-0.209c-0.139,-0.139 -0.486,-0.458 -1.041,-0.958Z" style="fill:#fbc311;fill-rule:nonzero;"/><path d="M301.539,108.866c-0.278,-0.111 -0.57,-0.236 -0.875,-0.375c-0.306,-0.139 -0.514,-0.32 -0.625,-0.542c-0.611,-1.833 -1.125,-3.611 -1.542,-5.333c-0.417,-1.722 -0.931,-3.556 -1.542,-5.5c-0.222,-0.667 -0.527,-1.597 -0.916,-2.792c-0.389,-1.194 -0.82,-2.361 -1.292,-3.5c-0.472,-1.139 -0.958,-2.139 -1.458,-3c-0.5,-0.861 -0.973,-1.291 -1.417,-1.291c-0.278,0 -0.681,0.055 -1.208,0.166c-0.528,0.111 -1.056,0.236 -1.584,0.375c-0.527,0.139 -1,0.292 -1.416,0.459c-0.417,0.166 -0.681,0.333 -0.792,0.5c-0.167,1.055 -0.278,2.111 -0.333,3.166c-0.056,1.056 -0.084,2.139 -0.084,3.25c0,1.778 0.056,3.57 0.167,5.375c0.111,1.806 0.167,3.57 0.167,5.292l-0.084,2.333c-0.333,0.445 -0.805,0.792 -1.416,1.042c-0.611,0.25 -1.264,0.43 -1.959,0.542c-0.694,0.111 -1.416,0.18 -2.166,0.208c-0.75,0.028 -1.431,0.042 -2.042,0.042c-1.111,0 -2.333,-0.084 -3.667,-0.25c-0.333,-0.056 -0.694,-0.084 -1.083,-0.084c-0.389,0 -0.75,-0.055 -1.083,-0.166c-0.334,-0.112 -0.612,-0.292 -0.834,-0.542c-0.222,-0.25 -0.333,-0.681 -0.333,-1.292l0,-20.666c0,-7 -0.056,-13.889 -0.167,-20.667c-0.055,-2.222 -0.222,-4.486 -0.5,-6.792c-0.278,-2.305 -0.416,-4.625 -0.416,-6.958c0,-1.056 0.041,-2.097 0.125,-3.125c0.083,-1.028 0.263,-2.042 0.541,-3.042c0.222,-0.444 0.959,-0.722 2.209,-0.833c1.25,-0.111 2.569,-0.167 3.958,-0.167c4.667,0 9.472,0.167 14.417,0.5c2.444,0.167 4.805,0.403 7.083,0.708c2.278,0.306 4.472,1.098 6.583,2.375c1.278,0.778 2.361,1.723 3.25,2.834c0.889,1.111 1.625,2.333 2.209,3.666c0.583,1.334 1.014,2.764 1.291,4.292c0.278,1.528 0.417,3.042 0.417,4.542c0,1.833 -0.181,3.639 -0.542,5.417c-0.361,1.777 -0.847,3.388 -1.458,4.833c-0.611,1.389 -1.514,2.764 -2.708,4.125c-1.195,1.361 -2.32,2.569 -3.375,3.625c0,1 0.25,2.278 0.75,3.833c0.5,1.556 1.097,3.153 1.791,4.792c0.695,1.639 1.417,3.208 2.167,4.708c0.75,1.5 1.375,2.695 1.875,3.584c0.167,0.222 0.444,0.708 0.833,1.458c0.389,0.75 0.792,1.583 1.209,2.5c0.416,0.917 0.777,1.861 1.083,2.833c0.306,0.972 0.458,1.792 0.458,2.459c0,0.722 -0.222,1.166 -0.666,1.333c-0.778,0.222 -1.778,0.389 -3,0.5c-1.223,0.111 -2.5,0.167 -3.834,0.167c-1.222,0 -2.375,-0.07 -3.458,-0.209c-1.083,-0.139 -1.986,-0.375 -2.708,-0.708Zm-14.75,-30.167c0.055,0.5 0.361,0.75 0.916,0.75c0.556,0 1.278,-0.194 2.167,-0.583c0.889,-0.389 1.778,-0.833 2.667,-1.333c0.889,-0.5 1.68,-1 2.375,-1.5c0.694,-0.5 1.097,-0.862 1.208,-1.084c0.944,-1.611 1.694,-3.319 2.25,-5.125c0.556,-1.805 0.833,-3.625 0.833,-5.458c0,-2.389 -0.555,-4.667 -1.666,-6.834c-1.167,-2.333 -2.625,-3.916 -4.375,-4.75c-1.75,-0.833 -4.125,-1.25 -7.125,-1.25l-0.167,0.167c0,0 -0.014,0.403 -0.042,1.208c-0.027,0.806 -0.055,1.764 -0.083,2.875c-0.028,1.112 -0.042,2.25 -0.042,3.417l0,2.917c0,2.778 0.111,5.555 0.334,8.333c0.222,2.778 0.472,5.528 0.75,8.25Z" style="fill:#fbc311;fill-rule:nonzero;"/><path d="M322.539,110.283c-0.389,-0.334 -0.639,-0.931 -0.75,-1.792c-0.111,-0.861 -0.167,-1.82 -0.167,-2.875c0,-0.889 0.028,-1.778 0.083,-2.667c0.056,-0.889 0.084,-1.555 0.084,-2l-0.25,-42.333l0,-4.375c0,-0.861 -0.014,-1.695 -0.042,-2.5c-0.028,-0.806 -0.069,-1.486 -0.125,-2.042c-0.056,-0.444 -0.139,-0.875 -0.25,-1.292c-0.111,-0.416 -0.167,-0.819 -0.167,-1.208c0,-0.555 0.139,-0.944 0.417,-1.167c0.278,-0.222 0.611,-0.375 1,-0.458c0.389,-0.083 0.819,-0.111 1.292,-0.083c0.472,0.028 0.93,-0.014 1.375,-0.125c1.222,0.111 2.527,0.194 3.916,0.25c1.389,0.055 2.736,0.097 4.042,0.125c1.306,0.028 2.5,0.055 3.583,0.083c1.084,0.028 1.959,0.042 2.625,0.042l2.417,0c0.778,0 1.361,-0.028 1.75,-0.084l0.917,0.084c0.777,0 1.402,-0.014 1.875,-0.042c0.472,-0.028 0.944,-0.069 1.416,-0.125c0.473,-0.055 1.014,-0.139 1.625,-0.25c0.611,-0.111 1.417,-0.25 2.417,-0.417c0.389,-0.055 0.833,-0.18 1.333,-0.375c0.5,-0.194 0.973,-0.291 1.417,-0.291c0.778,0 1.292,0.444 1.542,1.333c0.25,0.889 0.375,1.889 0.375,3c0,0.556 -0.028,1.083 -0.084,1.583c-0.055,0.5 -0.111,0.889 -0.166,1.167c-0.389,0.167 -0.945,0.292 -1.667,0.375c-0.722,0.083 -1.514,0.153 -2.375,0.208c-0.861,0.056 -1.722,0.098 -2.583,0.125c-0.861,0.028 -1.598,0.07 -2.209,0.125l-7.666,0c-0.723,0.223 -1.264,0.667 -1.625,1.334c-0.361,0.666 -0.625,1.25 -0.792,1.75c-0.111,2.111 -0.194,4.236 -0.25,6.375c-0.056,2.139 -0.083,4.264 -0.083,6.375l0,3.917c0.111,0.277 0.444,0.444 1,0.5c0.555,0.055 1.277,0.083 2.166,0.083c0.889,0 1.903,-0.028 3.042,-0.083c1.139,-0.056 2.306,-0.125 3.5,-0.209c1.194,-0.083 2.375,-0.166 3.542,-0.25c1.166,-0.083 2.222,-0.125 3.166,-0.125c1.556,0 2.681,0.111 3.375,0.334c0.695,0.222 1.042,1.111 1.042,2.666c0,0.722 -0.056,1.403 -0.167,2.042c-0.111,0.639 -0.305,1.097 -0.583,1.375c-0.333,-0.056 -0.667,-0.083 -1,-0.083l-1.167,0c-1.389,0 -2.902,0.069 -4.541,0.208c-1.639,0.139 -3.264,0.305 -4.875,0.5c-1.611,0.194 -3.139,0.389 -4.584,0.583c-1.444,0.195 -2.666,0.32 -3.666,0.375l-0.334,0.084l0,3.916c0,1 0.014,2.347 0.042,4.042c0.028,1.694 0.056,3.375 0.083,5.042l0.125,6.333l0.167,2c0,0.222 0.472,0.389 1.417,0.5c0.944,0.111 2.125,0.194 3.541,0.25c1.417,0.055 2.973,0.097 4.667,0.125c1.694,0.028 3.319,0.069 4.875,0.125c1.556,0.055 2.903,0.111 4.042,0.167c1.139,0.055 1.902,0.138 2.291,0.25c0.445,0.166 0.736,0.597 0.875,1.291c0.139,0.695 0.209,1.403 0.209,2.125c0,0.445 -0.028,0.861 -0.084,1.25c-0.055,0.389 -0.139,0.667 -0.25,0.834c-0.055,0.055 -0.847,0.138 -2.375,0.25c-1.527,0.111 -3.444,0.25 -5.75,0.416c-2.305,0.167 -4.847,0.361 -7.625,0.584c-2.777,0.222 -5.43,0.444 -7.958,0.666c-2.528,0.222 -4.792,0.431 -6.792,0.625c-2,0.195 -3.361,0.375 -4.083,0.542l-0.167,0c-0.277,0 -0.555,-0.167 -0.833,-0.5c-0.278,-0.333 -0.472,-0.528 -0.583,-0.583Z" style="fill:#fbc311;fill-rule:nonzero;"/><path d="M403.122,111.533c-0.333,-0.223 -0.708,-0.57 -1.125,-1.042c-0.417,-0.472 -0.861,-0.986 -1.333,-1.542c-0.473,-0.555 -0.959,-1.111 -1.459,-1.666c-0.5,-0.556 -0.972,-1 -1.416,-1.334c-0.111,0 -0.306,0.097 -0.584,0.292l-1.875,1.292c-0.305,0.222 -0.514,0.361 -0.625,0.416c-1.944,0.778 -3.611,1.375 -5,1.792c-1.389,0.417 -2.944,0.625 -4.666,0.625c-2.945,0 -5.542,-0.5 -7.792,-1.5c-2.25,-1 -4.208,-2.347 -5.875,-4.042c-1.667,-1.694 -3.056,-3.666 -4.167,-5.916c-1.111,-2.25 -2.014,-4.639 -2.708,-7.167c-0.694,-2.528 -1.181,-5.111 -1.458,-7.75c-0.278,-2.639 -0.417,-5.208 -0.417,-7.708c0,-2.834 0.292,-5.375 0.875,-7.625c0.583,-2.251 1.319,-4.681 2.208,-7.292c0.111,-0.5 0.32,-1.195 0.625,-2.084c0.306,-0.888 0.681,-1.555 1.125,-2l3.834,-4.083c0.889,-1.611 2.208,-2.889 3.958,-3.833c1.75,-0.945 3.486,-1.778 5.208,-2.5c0.111,0 0.32,-0.07 0.625,-0.209l2.084,-0.833c0.305,-0.139 0.514,-0.208 0.625,-0.208c2,-0.834 4.166,-1.25 6.5,-1.25c1.722,0 3.472,0.25 5.25,0.75c0.666,0.222 1.347,0.347 2.041,0.375c0.695,0.028 1.375,0.18 2.042,0.458c2.278,0.945 4.111,2.417 5.5,4.417c1.389,2 2.528,4.055 3.417,6.166l0,4.584c0,1 -0.306,1.958 -0.917,2.875c-0.611,0.916 -1.389,1.708 -2.333,2.375c-0.945,0.667 -2,1.208 -3.167,1.625c-1.167,0.417 -2.306,0.625 -3.417,0.625c-1.5,0 -2.805,-0.458 -3.916,-1.375c-1.111,-0.917 -1.667,-2.459 -1.667,-4.625c0,-0.5 0.042,-1.181 0.125,-2.042c0.083,-0.861 0.347,-1.597 0.792,-2.208c0.333,-0.5 0.68,-0.903 1.041,-1.209c0.361,-0.305 0.681,-0.569 0.959,-0.791c0.277,-0.222 0.514,-0.445 0.708,-0.667c0.194,-0.222 0.292,-0.472 0.292,-0.75c0,-0.555 -0.584,-1.5 -1.75,-2.833c-0.111,-0.111 -0.403,-0.334 -0.875,-0.667c-0.473,-0.333 -0.848,-0.5 -1.125,-0.5l-5,0c-0.556,0 -1.292,0.25 -2.209,0.75c-0.916,0.5 -1.541,1 -1.875,1.5c-0.666,0.945 -1.097,1.972 -1.291,3.083c-0.195,1.112 -0.431,2.195 -0.709,3.25c-0.666,2.834 -1.097,5.695 -1.291,8.584c-0.195,2.889 -0.292,5.833 -0.292,8.833c0,0.667 0.014,1.542 0.042,2.625c0.027,1.084 0.055,2.278 0.083,3.584c0.028,1.305 0.056,2.68 0.083,4.125c0.028,1.444 0.07,2.861 0.125,4.25c0,1.111 0.056,2.236 0.167,3.375c0.111,1.138 0.361,2.18 0.75,3.125c0.389,0.944 0.986,1.722 1.792,2.333c0.805,0.611 1.93,0.917 3.375,0.917c0.833,0 1.555,-0.195 2.166,-0.584c0.611,-0.389 1.125,-0.889 1.542,-1.5c0.417,-0.611 0.722,-1.319 0.917,-2.125c0.194,-0.805 0.291,-1.597 0.291,-2.375c0,-0.611 0.014,-1.43 0.042,-2.458c0.028,-1.028 0.069,-2.056 0.125,-3.083c0.056,-1.028 0.097,-1.973 0.125,-2.834c0.028,-0.861 0.042,-1.458 0.042,-1.791c0,-0.667 -0.056,-1.375 -0.167,-2.125c-0.111,-0.75 -0.556,-1.125 -1.333,-1.125c-0.556,0 -1.236,0.083 -2.042,0.25c-0.806,0.166 -1.569,0.25 -2.292,0.25c-0.611,0 -1.111,-0.098 -1.5,-0.292c-0.389,-0.195 -0.583,-0.653 -0.583,-1.375l0.25,-2.333l0.25,-0.25l1.583,0c3.778,0 7.542,-0.292 11.292,-0.875c3.75,-0.584 7.514,-0.875 11.292,-0.875c1.055,0 1.722,0.18 2,0.541c0.277,0.361 0.416,1.264 0.416,2.709c0,0.666 -0.083,1 -0.25,1c-0.166,0.055 -0.458,0.097 -0.875,0.125c-0.416,0.027 -0.902,0.041 -1.458,0.041l-3.333,0c-0.389,0.167 -0.653,0.486 -0.792,0.959c-0.139,0.472 -0.208,1.013 -0.208,1.625c0,1.111 0.125,2.319 0.375,3.625c0.25,1.305 0.375,2.263 0.375,2.875c0,0.444 -0.07,0.902 -0.209,1.375c-0.139,0.472 -0.208,0.875 -0.208,1.208c0,0.611 0.056,1.236 0.167,1.875c0.111,0.639 0.194,1.18 0.25,1.625c0.111,1.111 0.236,2.264 0.375,3.458c0.139,1.195 0.264,2.375 0.375,3.542c0.111,1.278 0.319,2.583 0.625,3.917c0.305,1.333 0.458,2.638 0.458,3.916c0,0.667 -0.194,1.111 -0.583,1.334c-0.389,0.222 -1.223,0.333 -2.5,0.333c-0.223,0 -0.528,-0.111 -0.917,-0.333Z" style="fill:#fbc311;fill-rule:nonzero;"/><path d="M413.289,109.283c-0.611,-0.223 -0.917,-0.612 -0.917,-1.167c0,-0.333 0.028,-0.611 0.083,-0.833c1.611,-5.556 3,-11.125 4.167,-16.709c1.167,-5.583 2.361,-11.236 3.583,-16.958c1,-4.667 1.973,-9.306 2.917,-13.917c0.945,-4.611 1.806,-9.278 2.583,-14l0.75,-0.167l1.167,-0.041l3.083,-0.167c0.5,-0.028 0.862,-0.042 1.084,-0.042c0.778,0 1.222,0.306 1.333,0.917c0.5,1.778 0.917,3.556 1.25,5.333c0.333,1.778 0.75,3.556 1.25,5.334c0.445,1.555 1.042,3.153 1.792,4.791c0.75,1.639 1.403,3.153 1.958,4.542c2,5.222 3.792,10.639 5.375,16.25c1.583,5.611 3.125,11.111 4.625,16.5c0.445,1.611 0.972,3.125 1.583,4.542c0.612,1.417 1.139,2.875 1.584,4.375c0.055,0.167 -0.334,0.347 -1.167,0.542c-0.833,0.194 -1.792,0.347 -2.875,0.458c-1.083,0.111 -2.125,0.222 -3.125,0.333c-1,0.111 -1.611,0.167 -1.833,0.167l-3.167,0.25l-0.667,0c-0.666,0 -1.43,-0.028 -2.291,-0.083c-0.861,-0.056 -1.292,-0.112 -1.292,-0.167l-0.75,-0.833c0,-0.112 -0.055,-0.723 -0.167,-1.834c-0.111,-1.111 -0.25,-2.319 -0.416,-3.625c-0.167,-1.305 -0.375,-2.486 -0.625,-3.541c-0.25,-1.056 -0.514,-1.584 -0.792,-1.584l-9.667,0c-0.166,0.056 -0.416,0.084 -0.75,0.084l-1.416,-0.084c-0.167,0 -0.32,0.014 -0.459,0.042c-0.138,0.028 -0.263,0.153 -0.375,0.375c-0.111,0.333 -0.25,1.069 -0.416,2.208c-0.167,1.139 -0.361,2.32 -0.584,3.542c-0.222,1.222 -0.472,2.333 -0.75,3.333c-0.277,1 -0.555,1.528 -0.833,1.584c-0.444,0.111 -0.944,0.236 -1.5,0.375c-0.556,0.138 -1.111,0.208 -1.667,0.208c-0.722,0 -1.277,-0.111 -1.666,-0.333Zm8.916,-15.75l3.417,0.083l1.667,0c0.778,0 1.569,-0.014 2.375,-0.042c0.805,-0.028 1.514,-0.097 2.125,-0.208c0.611,-0.111 0.916,-0.25 0.916,-0.417l0,-0.25c-0.333,-1.444 -0.777,-3.194 -1.333,-5.25c-0.555,-2.055 -1.111,-4.041 -1.667,-5.958c-0.555,-1.917 -1.083,-3.556 -1.583,-4.917c-0.5,-1.361 -0.861,-2.041 -1.083,-2.041c-0.278,0 -0.514,0.347 -0.709,1.041c-0.194,0.695 -0.402,1.597 -0.625,2.709c-0.222,1.166 -0.513,2.319 -0.875,3.458c-0.361,1.139 -0.722,2.292 -1.083,3.458c-0.361,1.167 -0.694,2.334 -1,3.5c-0.305,1.167 -0.486,2.334 -0.542,3.5l0,1.334Z" style="fill:#fbc311;fill-rule:nonzero;"/><path d="M94.372,209.033c-0.334,-0.111 -0.542,-0.528 -0.625,-1.25c-0.084,-0.723 -0.125,-1.473 -0.125,-2.25c0,-2.778 0.097,-5.528 0.291,-8.25c0.195,-2.723 0.292,-5.473 0.292,-8.25c0,-1.278 -0.069,-2.528 -0.208,-3.75c-0.139,-1.223 -0.236,-2.473 -0.292,-3.75c-0.111,-3.778 -0.153,-7.584 -0.125,-11.417c0.028,-3.833 -0.014,-7.667 -0.125,-11.5c0,-0.445 0.028,-1.028 0.083,-1.75c0.056,-0.722 0.084,-1.472 0.084,-2.25c0,-0.611 -0.028,-1.181 -0.084,-1.708c-0.055,-0.528 -0.166,-0.959 -0.333,-1.292c-0.722,-0.056 -1.778,-0.097 -3.167,-0.125c-1.388,-0.028 -2.763,-0.056 -4.125,-0.083c-1.361,-0.028 -2.583,-0.112 -3.666,-0.25c-1.084,-0.139 -1.653,-0.348 -1.709,-0.625c-0.055,-0.389 -0.125,-0.875 -0.208,-1.459c-0.083,-0.583 -0.125,-1.18 -0.125,-1.791c0,-0.5 0.056,-1 0.167,-1.5c0.111,-0.5 0.361,-0.917 0.75,-1.25l16.333,1c2.445,0 4.486,-0.028 6.125,-0.084c1.639,-0.055 3.125,-0.125 4.458,-0.208c1.334,-0.083 2.667,-0.167 4,-0.25c1.334,-0.083 2.889,-0.125 4.667,-0.125c1.111,0 2.097,0.042 2.958,0.125c0.862,0.083 1.348,0.264 1.459,0.542l0,4c0,0.444 -0.32,0.75 -0.959,0.916c-0.638,0.167 -1.43,0.25 -2.375,0.25c-0.888,0 -1.847,-0.041 -2.875,-0.125c-1.027,-0.083 -1.986,-0.125 -2.875,-0.125c-0.722,0 -1.361,0.056 -1.916,0.167c-0.556,0.111 -0.917,0.305 -1.084,0.583c-0.611,3 -0.986,6.056 -1.125,9.167c-0.138,3.111 -0.208,6.305 -0.208,9.583c0,3.722 0.07,7.459 0.208,11.209c0.139,3.75 0.292,7.375 0.459,10.875c0.111,2.222 0.264,4.444 0.458,6.666c0.195,2.222 0.32,4.445 0.375,6.667c0.056,0.278 0.097,0.556 0.125,0.833c0.028,0.278 0.042,0.556 0.042,0.834c0,1.111 -0.695,1.833 -2.084,2.166c-1.388,0.334 -3.444,0.5 -6.166,0.5c-1.5,0 -2.889,-0.055 -4.167,-0.166c-1.278,-0.111 -2.139,-0.278 -2.583,-0.5Z" style="fill:#fbc311;fill-rule:nonzero;"/><path d="M145.372,210.199c-2.834,-0.5 -5.403,-1.472 -7.709,-2.916c-2.305,-1.445 -4.43,-3.195 -6.375,-5.25c-0.5,-1.112 -1.041,-2.167 -1.625,-3.167c-0.583,-1 -1.069,-2.083 -1.458,-3.25c-0.722,-2.333 -1.208,-4.736 -1.458,-7.208c-0.25,-2.473 -0.375,-4.959 -0.375,-7.459c0,-2.833 0.069,-5.639 0.208,-8.416c0.139,-2.778 0.208,-5.5 0.208,-8.167c0,-0.278 -0.013,-0.958 -0.041,-2.042l-0.167,-7c-0.028,-1.083 -0.042,-1.764 -0.042,-2.041l0,-4.584c0,-1 0.098,-1.791 0.292,-2.375c0.195,-0.583 0.625,-1.028 1.292,-1.333c0.666,-0.306 1.68,-0.486 3.041,-0.542c1.362,-0.055 3.209,-0.083 5.542,-0.083c1.111,0 2.139,0.055 3.083,0.167c0.945,0.111 1.473,0.388 1.584,0.833c0,1.278 -0.014,2.569 -0.042,3.875c-0.028,1.305 -0.042,2.625 -0.042,3.958c0,3.5 0.042,6.972 0.125,10.417c0.084,3.444 0.237,6.917 0.459,10.417l0.083,2.25c0,1.111 -0.028,2.347 -0.083,3.708c-0.056,1.361 -0.084,2.708 -0.084,4.042c0,2 0.098,3.916 0.292,5.75c0.195,1.833 0.597,3.388 1.209,4.666c0.444,0.945 1.013,1.889 1.708,2.834c0.694,0.944 1.472,1.791 2.333,2.541c0.861,0.75 1.806,1.361 2.834,1.834c1.027,0.472 2.125,0.708 3.291,0.708c2.111,0 3.875,-0.57 5.292,-1.708c1.417,-1.139 2.375,-2.57 2.875,-4.292c1,-3.5 1.764,-7.153 2.292,-10.958c0.527,-3.806 0.791,-7.653 0.791,-11.542c0,-4.167 -0.25,-8.139 -0.75,-11.917c-0.055,-0.278 -0.166,-0.944 -0.333,-2c-0.167,-1.055 -0.347,-2.278 -0.542,-3.666c-0.194,-1.389 -0.375,-2.848 -0.541,-4.375c-0.167,-1.528 -0.25,-2.875 -0.25,-4.042c0,-1 0.069,-1.806 0.208,-2.417c0.139,-0.611 0.403,-0.916 0.792,-0.916l6.083,0c0.167,0 0.333,0.388 0.5,1.166c0.167,0.778 0.319,1.667 0.458,2.667c0.139,1 0.25,1.944 0.334,2.833c0.083,0.889 0.125,1.417 0.125,1.584c0.055,0.777 0.097,1.597 0.125,2.458c0.027,0.861 0.041,1.736 0.041,2.625c0,2 -0.028,4.028 -0.083,6.083c-0.056,2.056 -0.083,4 -0.083,5.834c0,3.5 0.152,6.777 0.458,9.833c0.305,3.055 0.458,6.278 0.458,9.667c0,1.444 -0.139,2.68 -0.416,3.708c-0.278,1.028 -0.612,2.153 -1,3.375c-0.5,1.611 -1.167,3.18 -2,4.708c-0.834,1.528 -1.82,2.917 -2.959,4.167c-1.139,1.25 -2.458,2.292 -3.958,3.125c-1.5,0.833 -3.167,1.361 -5,1.583c-1,0.111 -2.125,0.236 -3.375,0.375c-1.25,0.139 -2.514,0.209 -3.792,0.209c-0.666,0 -1.319,-0.028 -1.958,-0.084c-0.639,-0.055 -1.264,-0.139 -1.875,-0.25Z" style="fill:#fbc311;fill-rule:nonzero;"/><path d="M201.539,209.033c-0.445,-0.056 -0.709,-0.25 -0.792,-0.584c-0.083,-0.333 -0.125,-0.722 -0.125,-1.166c0,-2.5 0.153,-4.945 0.458,-7.334c0.306,-2.389 0.459,-4.889 0.459,-7.5l0,-31.916c0,-1.612 -0.209,-3.389 -0.625,-5.334c-0.417,-1.944 -0.625,-3.778 -0.625,-5.5c0,-1.222 0.305,-2.278 0.916,-3.166c0,-0.445 0.597,-0.792 1.792,-1.042c1.194,-0.25 2.583,-0.431 4.167,-0.542c1.583,-0.111 3.138,-0.18 4.666,-0.208c1.528,-0.028 2.625,-0.042 3.292,-0.042c1.333,0 3,0.125 5,0.375c2,0.25 4.014,0.653 6.042,1.209c2.027,0.555 3.916,1.277 5.666,2.166c1.75,0.889 3.042,1.972 3.875,3.25c1.445,2.334 2.542,4.764 3.292,7.292c0.75,2.528 1.125,5.042 1.125,7.542c0,5.388 -1.667,10.5 -5,15.333c-1.111,1.667 -2.445,3.014 -4,4.042c-1.556,1.027 -3.236,1.847 -5.042,2.458c-1.805,0.611 -3.666,1.069 -5.583,1.375c-1.917,0.305 -3.792,0.542 -5.625,0.708c-0.056,0.056 -0.125,0.278 -0.208,0.667c-0.084,0.389 -0.153,0.833 -0.209,1.333c-0.055,0.5 -0.097,1.028 -0.125,1.584c-0.028,0.555 -0.041,1.027 -0.041,1.416c0,0.5 -0.042,1.486 -0.125,2.959c-0.084,1.472 -0.209,2.986 -0.375,4.541c-0.167,1.556 -0.334,2.945 -0.5,4.167c-0.167,1.222 -0.334,1.861 -0.5,1.917c-0.556,0.277 -1.223,0.416 -2,0.416c-0.778,0 -1.57,-0.069 -2.375,-0.208c-0.806,-0.139 -1.431,-0.208 -1.875,-0.208l-5,0Zm13.583,-28.167c0.055,0.333 0.153,0.625 0.292,0.875c0.138,0.25 0.402,0.375 0.791,0.375l2.042,-0.958l2.625,-1.209c0.278,-0.111 0.68,-0.347 1.208,-0.708c0.528,-0.361 0.847,-0.57 0.959,-0.625c0.444,-0.222 0.833,-0.736 1.166,-1.542c0.334,-0.805 0.625,-1.75 0.875,-2.833c0.25,-1.083 0.431,-2.264 0.542,-3.542c0.111,-1.278 0.167,-2.472 0.167,-3.583c0,-1.945 -0.167,-3.889 -0.5,-5.833c-0.334,-1.945 -0.862,-3.709 -1.584,-5.292c-0.722,-1.583 -1.68,-2.875 -2.875,-3.875c-1.194,-1 -2.625,-1.5 -4.291,-1.5c-0.612,0 -1,0.111 -1.167,0.333l0,1.834c0,2.666 -0.083,5.347 -0.25,8.041c-0.167,2.695 -0.25,5.375 -0.25,8.042l0,2.375c0,1.139 0.014,2.347 0.042,3.625c0.027,1.278 0.055,2.486 0.083,3.625c0.028,1.139 0.069,1.93 0.125,2.375Z" style="fill:#fbc311;fill-rule:nonzero;"/><path d="M279.205,208.866c-0.278,-0.111 -0.569,-0.236 -0.875,-0.375c-0.305,-0.139 -0.514,-0.319 -0.625,-0.542c-0.611,-1.833 -1.125,-3.611 -1.541,-5.333c-0.417,-1.722 -0.931,-3.556 -1.542,-5.5c-0.222,-0.667 -0.528,-1.597 -0.917,-2.792c-0.389,-1.194 -0.819,-2.361 -1.291,-3.5c-0.473,-1.139 -0.959,-2.139 -1.459,-3c-0.5,-0.861 -0.972,-1.291 -1.416,-1.291c-0.278,0 -0.681,0.055 -1.209,0.166c-0.528,0.111 -1.055,0.236 -1.583,0.375c-0.528,0.139 -1,0.292 -1.417,0.459c-0.416,0.166 -0.68,0.333 -0.791,0.5c-0.167,1.055 -0.278,2.111 -0.334,3.166c-0.055,1.056 -0.083,2.139 -0.083,3.25c0,1.778 0.055,3.57 0.167,5.375c0.111,1.806 0.166,3.57 0.166,5.292l-0.083,2.333c-0.333,0.445 -0.806,0.792 -1.417,1.042c-0.611,0.25 -1.264,0.431 -1.958,0.542c-0.695,0.111 -1.417,0.18 -2.167,0.208c-0.75,0.028 -1.43,0.042 -2.041,0.042c-1.112,0 -2.334,-0.084 -3.667,-0.25c-0.333,-0.056 -0.695,-0.084 -1.083,-0.084c-0.389,0 -0.75,-0.055 -1.084,-0.166c-0.333,-0.111 -0.611,-0.292 -0.833,-0.542c-0.222,-0.25 -0.333,-0.681 -0.333,-1.292l0,-20.666c0,-7 -0.056,-13.889 -0.167,-20.667c-0.056,-2.222 -0.222,-4.486 -0.5,-6.792c-0.278,-2.305 -0.417,-4.625 -0.417,-6.958c0,-1.056 0.042,-2.097 0.125,-3.125c0.084,-1.028 0.264,-2.042 0.542,-3.042c0.222,-0.444 0.958,-0.722 2.208,-0.833c1.25,-0.111 2.57,-0.167 3.959,-0.167c4.666,0 9.472,0.167 14.416,0.5c2.445,0.167 4.806,0.403 7.084,0.709c2.277,0.305 4.472,1.097 6.583,2.375c1.278,0.777 2.361,1.722 3.25,2.833c0.889,1.111 1.625,2.333 2.208,3.667c0.584,1.333 1.014,2.763 1.292,4.291c0.278,1.528 0.417,3.042 0.417,4.542c0,1.833 -0.181,3.639 -0.542,5.417c-0.361,1.777 -0.847,3.388 -1.458,4.833c-0.611,1.389 -1.514,2.764 -2.709,4.125c-1.194,1.361 -2.319,2.569 -3.375,3.625c0,1 0.25,2.278 0.75,3.833c0.5,1.556 1.098,3.153 1.792,4.792c0.694,1.639 1.417,3.208 2.167,4.708c0.75,1.5 1.375,2.695 1.875,3.584c0.166,0.222 0.444,0.708 0.833,1.458c0.389,0.75 0.792,1.583 1.208,2.5c0.417,0.917 0.778,1.861 1.084,2.833c0.305,0.973 0.458,1.792 0.458,2.459c0,0.722 -0.222,1.166 -0.667,1.333c-0.777,0.222 -1.777,0.389 -3,0.5c-1.222,0.111 -2.5,0.167 -3.833,0.167c-1.222,0 -2.375,-0.07 -3.458,-0.209c-1.084,-0.139 -1.987,-0.375 -2.709,-0.708Zm-14.75,-30.167c0.056,0.5 0.361,0.75 0.917,0.75c0.555,0 1.278,-0.194 2.167,-0.583c0.888,-0.389 1.777,-0.833 2.666,-1.333c0.889,-0.5 1.681,-1 2.375,-1.5c0.695,-0.5 1.097,-0.862 1.209,-1.084c0.944,-1.611 1.694,-3.319 2.25,-5.125c0.555,-1.805 0.833,-3.625 0.833,-5.458c0,-2.389 -0.556,-4.667 -1.667,-6.833c-1.166,-2.334 -2.625,-3.917 -4.375,-4.75c-1.75,-0.834 -4.125,-1.25 -7.125,-1.25l-0.166,0.166c0,0 -0.014,0.403 -0.042,1.209c-0.028,0.805 -0.056,1.763 -0.083,2.875c-0.028,1.111 -0.042,2.25 -0.042,3.416l0,2.917c0,2.778 0.111,5.555 0.333,8.333c0.222,2.778 0.472,5.528 0.75,8.25Z" style="fill:#fbc311;fill-rule:nonzero;"/><path d="M314.614,209.699c-1.611,-0.222 -3.056,-0.652 -4.334,-1.291c-1.277,-0.639 -2.458,-1.417 -3.541,-2.334c-1.084,-0.916 -2.07,-1.93 -2.959,-3.041c-0.889,-1.112 -1.722,-2.25 -2.5,-3.417c-0.389,-0.611 -0.819,-1.153 -1.291,-1.625c-0.473,-0.472 -0.82,-1.07 -1.042,-1.792c-1.111,-3.5 -1.944,-6.916 -2.5,-10.25c-0.556,-3.333 -0.833,-6.805 -0.833,-10.416c0,-1.112 0.111,-2.514 0.333,-4.209c0.222,-1.694 0.542,-3.5 0.958,-5.416c0.417,-1.917 0.973,-3.875 1.667,-5.875c0.694,-2 1.5,-3.903 2.417,-5.709c0.916,-1.805 1.986,-3.43 3.208,-4.875c1.222,-1.444 2.583,-2.555 4.083,-3.333c3.223,-1.722 6.667,-2.583 10.334,-2.583c3.666,0 7.194,0.791 10.583,2.375c3.389,1.583 6.333,3.708 8.833,6.375c0.223,0.333 0.584,0.75 1.084,1.25c0.5,0.5 1.014,1.027 1.541,1.583c0.528,0.555 0.986,1.111 1.375,1.667c0.389,0.555 0.584,1 0.584,1.333l0,0.833c0.277,1.111 0.555,2.07 0.833,2.875c0.278,0.806 0.542,1.667 0.792,2.584c0.25,0.916 0.444,2.013 0.583,3.291c0.139,1.278 0.208,3 0.208,5.167c0.111,0.944 0.25,1.958 0.417,3.042c0.167,1.083 0.25,2.097 0.25,3.041l0,0.75c-0.167,1.778 -0.306,3.32 -0.417,4.625c-0.111,1.306 -0.305,2.542 -0.583,3.709c-0.278,1.166 -0.681,2.361 -1.208,3.583c-0.528,1.222 -1.264,2.611 -2.209,4.167c-1.166,2 -2.569,3.861 -4.208,5.583c-1.639,1.722 -3.431,3.208 -5.375,4.458c-1.944,1.25 -4.069,2.236 -6.375,2.959c-2.306,0.722 -4.708,1.083 -7.208,1.083l-1.709,0c-0.583,0 -1.18,-0.056 -1.791,-0.167Zm6.416,-7.916c0.278,0.111 0.542,0.166 0.792,0.166l0.792,0c0.944,0 1.777,-0.208 2.5,-0.625c0.722,-0.416 1.361,-0.958 1.916,-1.625c0.556,-0.666 1.042,-1.43 1.459,-2.291c0.416,-0.862 0.791,-1.709 1.125,-2.542c0,-2.333 0.083,-4.556 0.25,-6.667c0.166,-2.111 0.25,-4.333 0.25,-6.666c0,-2.5 -0.139,-5.07 -0.417,-7.709c-0.278,-2.639 -0.472,-5.236 -0.583,-7.791c-0.056,-1.167 -0.153,-2.625 -0.292,-4.375c-0.139,-1.75 -0.458,-3.445 -0.958,-5.084c-0.5,-1.639 -1.278,-3.041 -2.334,-4.208c-1.055,-1.167 -2.5,-1.75 -4.333,-1.75c-0.444,0 -1.014,0.153 -1.708,0.458c-0.695,0.306 -1.389,0.695 -2.084,1.167c-0.694,0.472 -1.333,1 -1.916,1.583c-0.584,0.584 -0.959,1.153 -1.125,1.709c-0.223,0.666 -0.375,1.402 -0.459,2.208c-0.083,0.805 -0.139,1.625 -0.166,2.458c-0.028,0.834 -0.042,1.639 -0.042,2.417c0,0.778 -0.028,1.472 -0.083,2.083c-0.111,1.556 -0.306,3.847 -0.584,6.875c-0.277,3.028 -0.416,6.292 -0.416,9.792c0,2.278 0.111,4.555 0.333,6.833c0.222,2.278 0.653,4.347 1.292,6.209c0.639,1.861 1.5,3.458 2.583,4.791c1.083,1.334 2.486,2.195 4.208,2.584Z" style="fill:#fbc311;fill-rule:nonzero;"/><path d="M354.872,209.533c-0.167,-0.111 -0.347,-0.25 -0.542,-0.417c-0.194,-0.167 -0.319,-0.333 -0.375,-0.5c0.334,-4.556 0.5,-9.167 0.5,-13.833c0,-6.278 -0.222,-12.459 -0.666,-18.542c-0.445,-6.083 -0.667,-12.236 -0.667,-18.458l0,-2.625c0,-0.862 0.056,-1.764 0.167,-2.709c0,-0.389 -0.139,-0.666 -0.417,-0.833l-11.083,-0.75l-0.5,-0.5c0,-0.278 -0.07,-0.75 -0.209,-1.417c-0.139,-0.666 -0.208,-1.333 -0.208,-2c0,-0.778 0.222,-1.291 0.667,-1.541c0.444,-0.25 1,-0.375 1.666,-0.375c3.334,0 6.653,0.083 9.959,0.25c3.305,0.166 6.625,0.25 9.958,0.25c0.167,0 0.528,-0.014 1.083,-0.042l3.542,-0.25c0.528,-0.028 0.847,-0.042 0.958,-0.042l1.334,0.084c0.833,0 1.569,-0.028 2.208,-0.084c0.639,-0.055 1.222,-0.097 1.75,-0.125c0.528,-0.028 1.042,-0.069 1.542,-0.125c0.5,-0.055 1.083,-0.083 1.75,-0.083l1.208,0c0.472,0 0.931,0.014 1.375,0.042l1.75,0.125l0.167,0.25c0.111,0.944 0.291,1.944 0.541,3c0.25,1.055 0.375,1.777 0.375,2.166c0,0.556 -0.25,0.917 -0.75,1.084c-0.777,0 -1.541,0.027 -2.291,0.083c-0.75,0.055 -1.403,0.083 -1.959,0.083c-1,0 -2.027,-0.028 -3.083,-0.083c-1.056,-0.056 -2.083,-0.083 -3.083,-0.083c-0.667,0 -1.445,0.013 -2.334,0.041c-0.889,0.028 -1.472,0.292 -1.75,0.792c0.056,0.5 0.084,1.014 0.084,1.542l0,1.541c0,1.445 -0.028,2.875 -0.084,4.292c-0.055,1.417 -0.083,2.819 -0.083,4.208c0,3.278 0.194,6.514 0.583,9.709c0.389,3.194 0.584,6.402 0.584,9.625l0,6.666c0,0.445 0.041,1.111 0.125,2c0.083,0.889 0.194,1.917 0.333,3.084c0.139,1.166 0.25,2.416 0.333,3.75c0.084,1.333 0.125,2.611 0.125,3.833c0,1.611 -0.125,3.056 -0.375,4.333c-0.25,1.278 -0.708,2.139 -1.375,2.584c-1,0.166 -2,0.264 -3,0.291c-1,0.028 -2,0.042 -3,0.042c-1.111,0 -2.25,-0.028 -3.416,-0.083c-1.167,-0.056 -2.306,-0.139 -3.417,-0.25Z" style="fill:#fbc311;fill-rule:nonzero;"/><path d="M387.539,209.699c-0.278,-0.166 -0.486,-0.958 -0.625,-2.375c-0.139,-1.416 -0.25,-2.972 -0.334,-4.666c-0.083,-1.695 -0.125,-3.292 -0.125,-4.792l0,-2.75c0,-6.056 0.181,-12.07 0.542,-18.042c0.361,-5.972 0.542,-11.986 0.542,-18.041l0,-4.667c0,-1.445 0.041,-2.903 0.125,-4.375c0.083,-1.472 0.264,-2.931 0.541,-4.375c0.278,-0.389 0.848,-0.625 1.709,-0.708c0.861,-0.084 1.597,-0.125 2.208,-0.125c4.333,0 8.639,0.097 12.917,0.291c4.277,0.195 8.5,0.292 12.666,0.292c2.723,0 5.417,-0.167 8.084,-0.5c0.5,0 0.833,0.278 1,0.833c0.166,0.556 0.25,1.306 0.25,2.25c0,0.945 -0.07,1.847 -0.209,2.709c-0.138,0.861 -0.263,1.486 -0.375,1.875c-0.111,0 -0.402,0.013 -0.875,0.041c-0.472,0.028 -0.791,0.07 -0.958,0.125c-0.167,0 -0.597,-0.028 -1.292,-0.083l-4.625,-0.333c-0.722,-0.056 -1.166,-0.084 -1.333,-0.084c-0.056,0 -0.306,0.014 -0.75,0.042c-0.444,0.028 -0.917,0.042 -1.417,0.042l-1.333,-0.084l-3.583,0c-1.056,0 -1.778,0.084 -2.167,0.25l-1.083,0.75c-0.056,0.111 -0.125,0.556 -0.209,1.334c-0.083,0.777 -0.152,1.388 -0.208,1.833c-0.278,1.722 -0.444,3.444 -0.5,5.167c-0.056,1.722 -0.083,3.472 -0.083,5.25l0,3.25c0,1.055 0.027,2.138 0.083,3.25c0.167,0.388 0.431,0.597 0.792,0.625c0.361,0.027 0.736,0.069 1.125,0.125c1.666,0 3.333,-0.014 5,-0.042c1.666,-0.028 3.361,-0.042 5.083,-0.042c3,0 5.972,0.084 8.917,0.25c0.166,0.111 0.333,0.611 0.5,1.5c0.166,0.889 0.25,1.778 0.25,2.667c0,0.5 -0.042,0.93 -0.125,1.292c-0.084,0.361 -0.209,0.597 -0.375,0.708c-1,0.111 -2,0.194 -3,0.25c-1,0.055 -1.972,0.083 -2.917,0.083c-2.278,0 -4.528,-0.069 -6.75,-0.208c-2.222,-0.139 -4.472,-0.208 -6.75,-0.208c-0.611,0 -1.028,0.097 -1.25,0.291c-0.222,0.195 -0.389,0.514 -0.5,0.959c-0.167,2 -0.319,4.013 -0.458,6.041c-0.139,2.028 -0.236,3.903 -0.292,5.625c-0.056,1.722 -0.097,3.222 -0.125,4.5c-0.028,1.278 -0.042,2.139 -0.042,2.584c0,0.666 0.223,1.138 0.667,1.416c0.444,0.278 1,0.459 1.667,0.542c0.666,0.083 1.402,0.111 2.208,0.083c0.806,-0.028 1.569,0.014 2.292,0.125c0.444,0 1.222,-0.028 2.333,-0.083c1.111,-0.056 2.347,-0.125 3.708,-0.208c1.362,-0.084 2.737,-0.167 4.125,-0.25c1.389,-0.084 2.639,-0.125 3.75,-0.125c1.667,0 2.639,0.138 2.917,0.416c0.111,0.278 0.195,0.834 0.25,1.667c0.056,0.833 0.083,1.722 0.083,2.667c0,0.777 -0.027,1.444 -0.083,2c-0.055,0.555 -0.194,0.861 -0.417,0.916c-1.944,-0.166 -3.791,-0.277 -5.541,-0.333c-1.75,-0.056 -3.514,-0.083 -5.292,-0.083c-1.944,0 -3.958,0.041 -6.042,0.125c-2.083,0.083 -4.194,0.194 -6.333,0.333c-2.139,0.139 -4.278,0.25 -6.417,0.333c-2.139,0.084 -4.18,0.125 -6.125,0.125c-1.777,0 -3.583,-0.083 -5.416,-0.25Z" style="fill:#fbc311;fill-rule:nonzero;"/><path d="M437.039,208.866l-0.792,0c-0.305,0 -0.597,-0.028 -0.875,-0.083c-0.333,-0.056 -0.667,-0.111 -1,-0.167l-0.583,-0.5c0.166,-7.945 0.319,-15.778 0.458,-23.5c0.139,-7.722 0.208,-15.556 0.208,-23.5c0,-2.333 -0.013,-4.653 -0.041,-6.958c-0.028,-2.306 -0.042,-4.625 -0.042,-6.959c0.167,-0.5 0.528,-0.889 1.083,-1.166c0.556,-0.278 1.209,-0.487 1.959,-0.625c0.75,-0.139 1.514,-0.223 2.291,-0.25c0.778,-0.028 1.445,-0.042 2,-0.042c0.723,0 1.334,0.028 1.834,0.083l2.708,0.417c0.472,0.055 1.07,0.083 1.792,0.083c0.778,0 1.597,0.111 2.458,0.334c0.861,0.222 1.347,0.722 1.458,1.5c0.112,1 0.195,1.986 0.25,2.958c0.056,0.972 0.084,1.93 0.084,2.875c0,1.667 -0.056,3.347 -0.167,5.042c-0.111,1.694 -0.167,3.375 -0.167,5.041c0,4.834 0.07,9.667 0.209,14.5c0.139,4.834 0.208,9.695 0.208,14.584l0,3.291c0,1.084 -0.028,2.181 -0.083,3.292c-0.056,1.333 -0.167,2.667 -0.334,4c-0.166,1.333 -0.25,2.667 -0.25,4l0,1c-2.888,0.722 -5.777,1.083 -8.666,1.083c-1,0 -1.986,-0.027 -2.959,-0.083c-0.972,-0.056 -1.986,-0.139 -3.041,-0.25Zm3.75,-65.417c-0.445,-0.055 -0.917,-0.139 -1.417,-0.25c-0.5,-0.111 -0.917,-0.389 -1.25,-0.833c0.222,-0.611 0.403,-1.111 0.542,-1.5c0.139,-0.389 0.333,-0.806 0.583,-1.25c0.25,-0.445 0.583,-0.986 1,-1.625c0.417,-0.639 0.986,-1.542 1.708,-2.708c0.389,-0.556 0.778,-1.223 1.167,-2c0.389,-0.778 0.847,-1.514 1.375,-2.209c0.528,-0.694 1.125,-1.278 1.792,-1.75c0.666,-0.472 1.444,-0.708 2.333,-0.708c0.5,0 1.097,-0.056 1.792,-0.167c0.694,-0.111 1.403,-0.166 2.125,-0.166c0.666,0 1.403,0.097 2.208,0.291c0.806,0.195 1.208,0.57 1.208,1.125c0,0.445 -0.18,0.778 -0.541,1c-0.361,0.222 -0.625,0.528 -0.792,0.917c-0.889,1.278 -1.736,2.514 -2.542,3.708c-0.805,1.195 -1.652,2.403 -2.541,3.625c-0.611,0.945 -1.125,1.709 -1.542,2.292c-0.417,0.583 -0.805,1.055 -1.167,1.417c-0.361,0.361 -0.777,0.611 -1.25,0.75c-0.472,0.138 -1.069,0.208 -1.791,0.208l-1.334,0c-0.5,0 -1.055,-0.056 -1.666,-0.167Z" style="fill:#fbc311;fill-rule:nonzero;"/><path d="M494.372,208.866c-0.444,-0.556 -0.778,-1.139 -1,-1.75c-0.222,-0.611 -0.583,-1.222 -1.083,-1.833c-4,-4.889 -7.889,-9.792 -11.667,-14.709c-3.778,-4.916 -7.5,-9.958 -11.167,-15.125c-0.111,-0.055 -0.25,-0.111 -0.416,-0.166c-0.167,-0.056 -0.334,-0.084 -0.5,-0.084c-0.334,0 -0.5,0.167 -0.5,0.5c0,4.334 0.083,8.806 0.25,13.417c0.166,4.611 0.278,9.083 0.333,13.417c0.056,0.111 0.111,0.444 0.167,1c0.055,0.555 0.083,0.888 0.083,1c0.167,0.722 0.264,1.347 0.292,1.875c0.028,0.527 0.041,1.097 0.041,1.708c0,0.722 -0.027,1.083 -0.083,1.083l-0.25,0.334c-0.278,0.055 -0.958,0.152 -2.042,0.291c-1.083,0.139 -2.097,0.209 -3.041,0.209c-0.5,0 -0.917,-0.042 -1.25,-0.125c-0.334,-0.084 -0.5,-0.209 -0.5,-0.375c-0.111,-6.223 -0.195,-12.556 -0.25,-19c-0.056,-6.445 -0.084,-12.778 -0.084,-19c0,-0.889 -0.055,-2.153 -0.166,-3.792c-0.111,-1.639 -0.222,-3.403 -0.334,-5.292c-0.111,-1.889 -0.222,-3.819 -0.333,-5.791c-0.111,-1.973 -0.167,-3.792 -0.167,-5.459c0,-1.666 0.07,-3.055 0.209,-4.166c0.139,-1.112 0.403,-1.778 0.791,-2l4.334,-0.084c0.944,0 1.75,0.056 2.416,0.167c0.667,0.111 1.056,0.333 1.167,0.667c1.222,2.166 2.458,4.319 3.708,6.458c1.25,2.139 2.375,4.292 3.375,6.458c0,0.222 0.139,0.472 0.417,0.75c2.278,3.056 4.431,5.986 6.458,8.792c2.028,2.805 4.098,5.792 6.209,8.958c0.333,0.611 0.694,1.32 1.083,2.125c0.389,0.806 0.792,1.57 1.208,2.292c0.417,0.722 0.834,1.333 1.25,1.833c0.417,0.5 0.792,0.75 1.125,0.75c0.445,0 0.75,-0.361 0.917,-1.083c0.167,-1.833 0.306,-3.708 0.417,-5.625c0.111,-1.917 0.166,-3.82 0.166,-5.708l0,-2.5l-0.916,-16.5l-0.167,-6.75c0,-0.112 0.097,-0.362 0.292,-0.75c0.194,-0.389 0.347,-0.584 0.458,-0.584l6,0c0.111,0 0.236,0.25 0.375,0.75c0.139,0.5 0.264,0.972 0.375,1.417c-0.055,0.444 -0.083,1.278 -0.083,2.5l0,8.667c0,1.166 0.014,2.138 0.041,2.916c0.028,0.778 0.042,1.486 0.042,2.125l0,2.459c0,4.5 -0.014,9.125 -0.042,13.875c-0.027,4.75 -0.069,9.263 -0.125,13.541c-0.055,0.167 -0.097,0.639 -0.125,1.417l-0.166,5.083c-0.028,0.778 -0.042,1.278 -0.042,1.5c0,0.945 0.028,1.861 0.083,2.75c0.056,0.889 0.084,1.806 0.084,2.75l0,1.167c0,0.389 -0.056,0.806 -0.167,1.25l-0.417,0c-0.444,0 -0.902,0.069 -1.375,0.208c-0.472,0.139 -0.902,0.264 -1.291,0.375l-3.917,0c0,-0.111 -0.069,-0.222 -0.208,-0.333c-0.139,-0.111 -0.236,-0.194 -0.292,-0.25Z" style="fill:#fbc311;fill-rule:nonzero;"/><path d="M508.289,209.449c-0.5,-0.166 -0.75,-0.527 -0.75,-1.083c0,-0.222 0.055,-0.5 0.166,-0.833c0.556,-2.834 1.278,-5.737 2.167,-8.709c0.889,-2.972 1.82,-5.958 2.792,-8.958c0.972,-3 1.903,-5.972 2.791,-8.917c0.889,-2.944 1.667,-5.833 2.334,-8.666c0.833,-3.667 1.791,-7.264 2.875,-10.792c1.083,-3.528 2.069,-7.097 2.958,-10.708c0.056,-0.389 0.125,-0.848 0.208,-1.375c0.084,-0.528 0.181,-1.07 0.292,-1.625c0.111,-0.556 0.264,-1.07 0.458,-1.542c0.195,-0.472 0.431,-0.847 0.709,-1.125c0.5,0 1,-0.028 1.5,-0.083c0.5,-0.056 0.972,-0.084 1.416,-0.084c0.834,0 1.5,0.111 2,0.334c0,0 0.167,0.68 0.5,2.041c0.334,1.361 0.764,3.084 1.292,5.167c0.528,2.083 1.097,4.361 1.708,6.833c0.612,2.472 1.195,4.834 1.75,7.084c0.556,2.25 1.056,4.236 1.5,5.958c0.445,1.722 0.75,2.833 0.917,3.333c0.667,2.5 1.25,5.042 1.75,7.625c0.5,2.584 0.972,5.181 1.417,7.792c0.444,2.611 0.889,5.222 1.333,7.833c0.445,2.611 0.972,5.195 1.583,7.75c0.112,0.278 0.237,0.528 0.375,0.75c0.139,0.223 0.209,0.473 0.209,0.75c0,0.5 -0.431,0.834 -1.292,1c-0.861,0.167 -2.097,0.25 -3.708,0.25c-1.667,0 -3.32,-0.069 -4.959,-0.208c-1.638,-0.139 -2.708,-0.292 -3.208,-0.458c-0.444,-0.778 -0.805,-1.778 -1.083,-3c-0.278,-1.223 -0.542,-2.459 -0.792,-3.709c-0.25,-1.25 -0.555,-2.389 -0.917,-3.416c-0.361,-1.028 -0.819,-1.764 -1.375,-2.209c-0.888,-0.111 -1.777,-0.194 -2.666,-0.25c-0.889,-0.055 -1.806,-0.083 -2.75,-0.083c-1.945,0 -3.778,0.083 -5.5,0.25c-0.111,0 -0.292,0.319 -0.542,0.958c-0.25,0.639 -0.5,1.375 -0.75,2.209c-0.25,0.833 -0.486,1.708 -0.708,2.625c-0.222,0.916 -0.389,1.652 -0.5,2.208c-0.278,1.444 -0.57,2.708 -0.875,3.792c-0.306,1.083 -1.153,1.625 -2.542,1.625c-0.833,0 -1.528,-0.111 -2.083,-0.334Zm9.5,-18.333c-0.056,0.111 -0.097,0.278 -0.125,0.5c-0.028,0.222 -0.042,0.361 -0.042,0.417c0.667,0.055 1.236,0.097 1.708,0.125c0.473,0.027 0.931,0.055 1.375,0.083c0.445,0.028 0.917,0.042 1.417,0.042l1.833,0c0.889,0 1.612,-0.056 2.167,-0.167c0.556,-0.111 0.833,-0.472 0.833,-1.083c0,-0.334 -0.055,-0.667 -0.166,-1c-0.278,-0.889 -0.5,-1.764 -0.667,-2.625c-0.167,-0.862 -0.319,-1.75 -0.458,-2.667c-0.139,-0.917 -0.292,-1.889 -0.459,-2.917c-0.166,-1.028 -0.388,-2.125 -0.666,-3.291c0,-0.945 -0.097,-1.75 -0.292,-2.417c-0.194,-0.667 -0.458,-1 -0.792,-1c-0.277,0 -0.5,0.139 -0.666,0.417c-0.945,2.5 -1.861,5.055 -2.75,7.666c-0.889,2.611 -1.639,5.25 -2.25,7.917Z" style="fill:#fbc311;fill-rule:nonzero;"/></g></g></svg>