<?xml version="1.0" encoding="UTF-8" standalone="no"?><!DOCTYPE svg PUBLIC "-//W3C//DTD SVG 1.1//EN" "http://www.w3.org/Graphics/SVG/1.1/DTD/svg11.dtd"><svg width="100%" height="100%" viewBox="0 0 910 408" version="1.1" xmlns="http://www.w3.org/2000/svg" xmlns:xlink="http://www.w3.org/1999/xlink" xml:space="preserve" xmlns:serif="http://www.serif.com/" style="fill-rule:evenodd;clip-rule:evenodd;stroke-miterlimit:10;"><g><g><path d="M67.405,59.692c-0.034,5.087 -1.711,49.942 -49.942,49.942l-8.527,0l0,188.42l8.527,0c5.086,0.034 49.942,1.715 49.942,49.942l0,8.527l775.037,0l0,-8.527c0.034,-5.087 1.715,-49.942 49.942,-49.942l8.527,0l0,-188.42l-8.527,0c-5.087,-0.034 -49.942,-1.71 -49.942,-49.942l0,-8.527l-775.037,0l0,8.527Z" style="fill:none;fill-rule:nonzero;stroke:#59cb95;stroke-width:17.05px;"/></g><g><path d="M88.722,73.897c-4.36,22.837 -19.65,51.594 -57.06,57.411l0,145.427c22.842,4.356 51.594,19.65 57.416,57.06l732.038,0c4.356,-22.841 19.651,-51.593 57.061,-57.416l0,-145.421c-22.842,-4.361 -51.594,-19.651 -57.416,-57.061l-732.039,0Z" style="fill:none;fill-rule:nonzero;stroke:#59cb95;stroke-width:5.7px;"/></g><g><path d="M117.874,182.124c-0.52,-0.065 -0.829,-0.292 -0.926,-0.682c-0.098,-0.39 -0.146,-0.845 -0.146,-1.365c0,-2.923 0.178,-5.781 0.536,-8.575c0.357,-2.793 0.536,-5.717 0.536,-8.77l0,-37.323c0,-1.884 -0.244,-3.963 -0.731,-6.236c-0.487,-2.274 -0.731,-4.418 -0.731,-6.432c0,-1.429 0.357,-2.664 1.072,-3.703c0,-0.52 0.698,-0.926 2.095,-1.218c1.397,-0.292 3.021,-0.504 4.872,-0.634c1.852,-0.129 3.671,-0.211 5.457,-0.243c1.787,-0.033 3.07,-0.049 3.85,-0.049c1.559,0 3.508,0.146 5.847,0.439c2.338,0.292 4.693,0.763 7.064,1.413c2.372,0.649 4.581,1.494 6.627,2.533c2.046,1.04 3.557,2.307 4.531,3.801c1.689,2.728 2.972,5.57 3.849,8.526c0.877,2.956 1.316,5.896 1.316,8.819c0,6.302 -1.949,12.279 -5.847,17.931c-1.299,1.949 -2.858,3.524 -4.677,4.726c-1.819,1.202 -3.785,2.16 -5.896,2.875c-2.111,0.714 -4.288,1.25 -6.529,1.608c-2.241,0.357 -4.434,0.633 -6.578,0.828c-0.065,0.065 -0.146,0.325 -0.243,0.78c-0.098,0.454 -0.179,0.974 -0.244,1.559c-0.065,0.584 -0.114,1.202 -0.146,1.851c-0.033,0.65 -0.049,1.202 -0.049,1.657c0,0.585 -0.049,1.738 -0.146,3.459c-0.097,1.722 -0.244,3.492 -0.439,5.311c-0.194,1.819 -0.389,3.443 -0.584,4.873c-0.195,1.429 -0.39,2.176 -0.585,2.241c-0.65,0.325 -1.429,0.487 -2.339,0.487c-0.909,0 -1.835,-0.081 -2.777,-0.244c-0.942,-0.162 -1.673,-0.243 -2.193,-0.243l-5.846,0Zm15.884,-32.938c0.065,0.39 0.178,0.731 0.341,1.024c0.162,0.292 0.471,0.438 0.925,0.438l2.388,-1.12l3.07,-1.413c0.324,-0.13 0.795,-0.406 1.413,-0.829c0.617,-0.422 0.99,-0.666 1.12,-0.731c0.52,-0.259 0.975,-0.86 1.364,-1.802c0.39,-0.942 0.731,-2.047 1.024,-3.314c0.292,-1.266 0.503,-2.647 0.633,-4.141c0.13,-1.494 0.195,-2.891 0.195,-4.19c0,-2.274 -0.195,-4.548 -0.585,-6.822c-0.39,-2.274 -1.007,-4.336 -1.851,-6.188c-0.845,-1.851 -1.965,-3.362 -3.362,-4.531c-1.397,-1.169 -3.07,-1.754 -5.019,-1.754c-0.714,0 -1.169,0.13 -1.364,0.39l0,2.144c0,3.118 -0.097,6.252 -0.292,9.403c-0.195,3.151 -0.293,6.286 -0.293,9.404l0,2.777c0,1.332 0.017,2.745 0.049,4.239c0.032,1.494 0.065,2.907 0.097,4.239c0.033,1.332 0.082,2.258 0.147,2.777Z" style="fill:#64c191;fill-rule:nonzero;"/><path d="M171.567,182.903c-0.324,-0.194 -0.568,-1.12 -0.73,-2.777c-0.163,-1.656 -0.293,-3.475 -0.39,-5.457c-0.098,-1.981 -0.146,-3.849 -0.146,-5.603l0,-3.216c0,-7.081 0.211,-14.114 0.633,-21.097c0.422,-6.984 0.633,-14.017 0.633,-21.098l0,-5.457c0,-1.689 0.049,-3.394 0.147,-5.116c0.097,-1.722 0.308,-3.427 0.633,-5.116c0.325,-0.455 0.991,-0.731 1.998,-0.828c1.007,-0.098 1.867,-0.146 2.582,-0.146c5.067,0 10.102,0.113 15.104,0.341c5.003,0.227 9.94,0.341 14.813,0.341c3.183,0 6.334,-0.195 9.452,-0.585c0.585,0 0.974,0.325 1.169,0.974c0.195,0.65 0.293,1.527 0.293,2.632c0,1.104 -0.081,2.16 -0.244,3.167c-0.162,1.007 -0.308,1.737 -0.438,2.192c-0.13,0 -0.471,0.016 -1.024,0.049c-0.552,0.032 -0.925,0.081 -1.12,0.146c-0.195,0 -0.699,-0.032 -1.511,-0.097l-5.408,-0.39c-0.845,-0.065 -1.364,-0.098 -1.559,-0.098c-0.065,0 -0.358,0.017 -0.877,0.049c-0.52,0.033 -1.072,0.049 -1.657,0.049l-1.559,-0.098l-4.19,0c-1.235,0 -2.079,0.098 -2.534,0.293l-1.267,0.877c-0.065,0.13 -0.146,0.649 -0.243,1.559c-0.098,0.909 -0.179,1.624 -0.244,2.144c-0.325,2.014 -0.52,4.028 -0.585,6.042c-0.065,2.013 -0.097,4.06 -0.097,6.139l0,3.8c0,1.235 0.032,2.501 0.097,3.801c0.195,0.454 0.504,0.698 0.926,0.731c0.422,0.032 0.861,0.081 1.316,0.146c1.949,0 3.898,-0.016 5.846,-0.049c1.949,-0.032 3.931,-0.049 5.945,-0.049c3.508,0 6.984,0.098 10.427,0.293c0.195,0.13 0.39,0.714 0.584,1.754c0.195,1.039 0.293,2.079 0.293,3.118c0,0.585 -0.049,1.088 -0.146,1.51c-0.098,0.423 -0.244,0.699 -0.439,0.829c-1.169,0.13 -2.339,0.227 -3.508,0.292c-1.169,0.065 -2.306,0.098 -3.411,0.098c-2.663,0 -5.294,-0.082 -7.893,-0.244c-2.599,-0.162 -5.23,-0.244 -7.893,-0.244c-0.715,0 -1.202,0.114 -1.462,0.341c-0.26,0.228 -0.455,0.601 -0.585,1.121c-0.195,2.339 -0.373,4.694 -0.536,7.065c-0.162,2.371 -0.276,4.564 -0.341,6.578c-0.065,2.014 -0.113,3.768 -0.146,5.262c-0.032,1.494 -0.049,2.501 -0.049,3.021c0,0.779 0.26,1.332 0.78,1.656c0.52,0.325 1.169,0.536 1.949,0.634c0.779,0.097 1.64,0.13 2.582,0.097c0.942,-0.032 1.836,0.017 2.68,0.146c0.52,0 1.429,-0.032 2.729,-0.097c1.299,-0.065 2.744,-0.146 4.336,-0.244c1.592,-0.097 3.2,-0.194 4.824,-0.292c1.624,-0.097 3.086,-0.146 4.385,-0.146c1.949,0 3.086,0.162 3.411,0.487c0.13,0.325 0.227,0.975 0.292,1.949c0.065,0.975 0.097,2.014 0.097,3.118c0,0.91 -0.032,1.69 -0.097,2.339c-0.065,0.65 -0.227,1.007 -0.487,1.072c-2.274,-0.195 -4.434,-0.325 -6.481,-0.39c-2.046,-0.065 -4.109,-0.097 -6.188,-0.097c-2.273,0 -4.628,0.049 -7.065,0.146c-2.436,0.097 -4.904,0.227 -7.406,0.39c-2.501,0.162 -5.002,0.292 -7.503,0.39c-2.501,0.097 -4.889,0.146 -7.162,0.146c-2.079,0 -4.191,-0.098 -6.335,-0.293Z" style="fill:#64c191;fill-rule:nonzero;"/><path d="M264.533,181.929c-0.325,-0.13 -0.666,-0.276 -1.023,-0.439c-0.358,-0.162 -0.601,-0.373 -0.731,-0.633c-0.715,-2.144 -1.316,-4.223 -1.803,-6.237c-0.487,-2.014 -1.088,-4.157 -1.803,-6.431c-0.26,-0.78 -0.617,-1.868 -1.072,-3.265c-0.455,-1.396 -0.958,-2.761 -1.51,-4.092c-0.552,-1.332 -1.121,-2.502 -1.706,-3.509c-0.584,-1.007 -1.137,-1.51 -1.656,-1.51c-0.325,0 -0.796,0.065 -1.413,0.195c-0.617,0.13 -1.235,0.276 -1.852,0.438c-0.617,0.163 -1.169,0.341 -1.656,0.536c-0.488,0.195 -0.796,0.39 -0.926,0.585c-0.195,1.234 -0.325,2.469 -0.39,3.703c-0.065,1.234 -0.097,2.501 -0.097,3.8c0,2.079 0.065,4.175 0.195,6.286c0.129,2.111 0.194,4.174 0.194,6.188l-0.097,2.728c-0.39,0.52 -0.942,0.926 -1.657,1.218c-0.714,0.293 -1.478,0.504 -2.29,0.634c-0.812,0.13 -1.656,0.211 -2.533,0.243c-0.877,0.033 -1.673,0.049 -2.388,0.049c-1.299,0 -2.728,-0.097 -4.287,-0.292c-0.39,-0.065 -0.813,-0.098 -1.267,-0.098c-0.455,0 -0.877,-0.065 -1.267,-0.194c-0.39,-0.13 -0.715,-0.342 -0.975,-0.634c-0.259,-0.292 -0.389,-0.796 -0.389,-1.51l0,-24.167c0,-8.186 -0.065,-16.242 -0.195,-24.167c-0.065,-2.599 -0.26,-5.246 -0.585,-7.942c-0.325,-2.697 -0.487,-5.409 -0.487,-8.137c0,-1.235 0.049,-2.453 0.146,-3.655c0.097,-1.202 0.309,-2.387 0.633,-3.557c0.26,-0.519 1.121,-0.844 2.583,-0.974c1.461,-0.13 3.004,-0.195 4.629,-0.195c5.457,0 11.076,0.195 16.858,0.585c2.858,0.195 5.619,0.471 8.283,0.828c2.664,0.357 5.23,1.283 7.698,2.777c1.495,0.91 2.761,2.014 3.801,3.314c1.039,1.299 1.9,2.728 2.582,4.287c0.682,1.559 1.186,3.232 1.511,5.019c0.325,1.786 0.487,3.557 0.487,5.311c0,2.144 -0.211,4.255 -0.633,6.334c-0.423,2.079 -0.991,3.963 -1.706,5.652c-0.714,1.624 -1.77,3.232 -3.167,4.824c-1.397,1.591 -2.712,3.004 -3.946,4.239c0,1.169 0.292,2.663 0.877,4.482c0.584,1.819 1.283,3.687 2.095,5.603c0.812,1.917 1.656,3.752 2.533,5.506c0.877,1.754 1.608,3.151 2.193,4.19c0.195,0.26 0.52,0.829 0.974,1.706c0.455,0.877 0.926,1.851 1.413,2.923c0.488,1.072 0.91,2.177 1.267,3.313c0.358,1.137 0.536,2.096 0.536,2.875c0,0.845 -0.26,1.364 -0.779,1.559c-0.91,0.26 -2.079,0.455 -3.509,0.585c-1.429,0.13 -2.923,0.195 -4.482,0.195c-1.429,0 -2.777,-0.081 -4.044,-0.244c-1.267,-0.162 -2.323,-0.438 -3.167,-0.828Zm-17.249,-35.276c0.065,0.585 0.423,0.877 1.072,0.877c0.65,0 1.495,-0.228 2.534,-0.682c1.039,-0.455 2.079,-0.975 3.118,-1.559c1.04,-0.585 1.966,-1.17 2.778,-1.754c0.812,-0.585 1.283,-1.007 1.413,-1.267c1.104,-1.884 1.981,-3.882 2.631,-5.993c0.649,-2.112 0.974,-4.239 0.974,-6.383c0,-2.794 -0.649,-5.457 -1.949,-7.991c-1.364,-2.728 -3.069,-4.58 -5.116,-5.554c-2.046,-0.975 -4.823,-1.462 -8.332,-1.462l-0.194,0.195c0,0 -0.017,0.471 -0.049,1.413c-0.033,0.942 -0.065,2.062 -0.098,3.362c-0.032,1.299 -0.048,2.631 -0.048,3.995l0,3.411c0,3.248 0.13,6.496 0.389,9.744c0.26,3.249 0.553,6.465 0.877,9.648Z" style="fill:#64c191;fill-rule:nonzero;"/><path d="M301.855,183.196c-2.014,-0.52 -4.028,-1.316 -6.042,-2.388c-2.013,-1.072 -3.865,-2.355 -5.554,-3.849c-1.689,-1.494 -3.151,-3.118 -4.385,-4.872c-1.235,-1.754 -2.079,-3.573 -2.534,-5.457c-0.065,-0.13 -0.13,-0.293 -0.195,-0.488c-0.13,-0.389 -0.195,-0.714 -0.195,-0.974c0,-0.325 0.276,-0.633 0.829,-0.926c0.552,-0.292 1.185,-0.536 1.9,-0.731c0.715,-0.195 1.413,-0.357 2.095,-0.487c0.682,-0.13 1.186,-0.195 1.51,-0.195c0.39,0 1.072,0.731 2.047,2.193c0.974,1.461 2.16,3.086 3.557,4.872c1.396,1.787 2.939,3.411 4.629,4.873c1.689,1.461 3.475,2.192 5.359,2.192c1.299,0 2.469,-0.357 3.508,-1.072c1.04,-0.714 1.933,-1.591 2.68,-2.631c0.747,-1.039 1.316,-2.16 1.705,-3.362c0.39,-1.202 0.585,-2.257 0.585,-3.167c0,-2.079 -0.52,-4.353 -1.559,-6.821c-0.65,-1.624 -1.657,-3.021 -3.021,-4.191c-1.364,-1.169 -2.664,-2.338 -3.898,-3.508c-1.104,-1.039 -2.371,-2.225 -3.8,-3.556c-1.43,-1.332 -2.794,-2.453 -4.093,-3.362c-3.508,-2.404 -6.237,-5.084 -8.186,-8.04c-1.949,-2.956 -2.923,-6.318 -2.923,-10.086c0,-2.793 0.584,-5.457 1.754,-7.99c1.169,-2.534 2.777,-4.759 4.824,-6.676c2.046,-1.916 4.466,-3.427 7.259,-4.531c2.794,-1.104 5.847,-1.657 9.161,-1.657c4.287,0 8.055,0.926 11.303,2.778c3.249,1.851 6.01,4.271 8.284,7.26c0.519,0.714 0.877,1.656 1.071,2.826c0.195,1.169 0.293,2.111 0.293,2.826c0,1.299 -0.731,2.192 -2.193,2.679c-1.461,0.488 -3.037,0.731 -4.726,0.731c-0.974,0 -1.592,-0.211 -1.851,-0.633c-0.26,-0.422 -0.407,-0.975 -0.439,-1.657c-0.032,-0.682 -0.114,-1.429 -0.244,-2.241c-0.13,-0.812 -0.552,-1.608 -1.266,-2.388c-0.585,-0.714 -1.316,-1.299 -2.193,-1.754c-0.877,-0.454 -1.803,-0.828 -2.777,-1.12c-0.975,-0.293 -1.965,-0.504 -2.972,-0.634c-1.007,-0.13 -1.933,-0.195 -2.778,-0.195c-0.844,0 -1.819,0.114 -2.923,0.341c-1.105,0.228 -2.16,0.585 -3.167,1.072c-1.007,0.488 -1.852,1.137 -2.534,1.949c-0.682,0.812 -1.023,1.836 -1.023,3.07c0,3.053 0.747,5.717 2.241,7.991c1.494,2.273 3.346,4.336 5.555,6.188c2.209,1.851 4.58,3.605 7.113,5.262c2.534,1.656 4.84,3.394 6.919,5.213c2.599,2.274 4.483,4.824 5.652,7.65c1.17,2.826 2.112,5.863 2.826,9.111l-0.682,5.847c-0.455,0.91 -0.828,1.884 -1.121,2.924c-0.292,1.039 -0.763,1.949 -1.413,2.728c-2.208,2.859 -4.986,5.197 -8.331,7.016c-3.346,1.819 -6.903,2.729 -10.671,2.729c-1.754,0 -3.411,-0.227 -4.97,-0.682Z" style="fill:#64c191;fill-rule:nonzero;"/><path d="M363.053,183.878c-0.975,-0.065 -2.063,-0.162 -3.265,-0.292c-1.202,-0.13 -2.42,-0.341 -3.654,-0.634c-1.235,-0.292 -2.436,-0.649 -3.606,-1.072c-1.169,-0.422 -2.144,-0.99 -2.923,-1.705c-1.3,-1.104 -2.453,-2.323 -3.46,-3.654c-1.007,-1.332 -2.095,-2.713 -3.264,-4.142c-0.715,-0.844 -1.316,-1.998 -1.803,-3.459c-0.487,-1.462 -0.893,-3.005 -1.218,-4.629c-0.325,-1.624 -0.601,-3.248 -0.828,-4.872c-0.228,-1.625 -0.439,-3.021 -0.634,-4.191c-0.325,-1.494 -0.568,-3.086 -0.731,-4.775c-0.162,-1.689 -0.243,-3.41 -0.243,-5.164c0,-2.599 0.162,-5.214 0.487,-7.845c0.325,-2.631 0.845,-5.213 1.559,-7.747c0.715,-2.534 1.624,-4.937 2.729,-7.211c1.104,-2.274 2.436,-4.32 3.995,-6.139c1.04,-1.235 2.306,-2.42 3.801,-3.557c1.494,-1.137 3.085,-2.128 4.774,-2.972c1.69,-0.845 3.411,-1.511 5.165,-1.998c1.754,-0.487 3.476,-0.731 5.165,-0.731c1.689,0 3.102,0.211 4.239,0.633c1.137,0.423 2.55,0.926 4.239,1.511c1.494,0.585 2.858,1.364 4.093,2.339c1.234,0.974 2.355,2.078 3.362,3.313c1.007,1.234 1.916,2.55 2.728,3.946c0.812,1.397 1.543,2.778 2.193,4.142c1.884,3.963 3.362,8.137 4.434,12.522c1.072,4.385 1.608,8.852 1.608,13.399c0,4.028 -0.439,7.975 -1.316,11.84c-0.877,3.865 -2.258,7.552 -4.141,11.06c-0.13,0.195 -0.342,0.585 -0.634,1.17c-0.292,0.584 -0.617,1.218 -0.974,1.9l-1.608,2.972c-1.494,2.599 -3.59,4.32 -6.286,5.165c-2.696,0.844 -5.505,1.267 -8.429,1.267c-0.974,0 -1.933,-0.033 -2.875,-0.098c-0.942,-0.065 -1.835,-0.162 -2.679,-0.292Zm-0.78,-9.453c0.65,0.26 1.38,0.504 2.193,0.731c0.812,0.228 1.672,0.341 2.582,0.341c1.169,0 2.046,-0.211 2.631,-0.633c0.585,-0.422 1.056,-1.088 1.413,-1.998c0.357,-0.909 0.666,-2.046 0.926,-3.41c0.26,-1.365 0.617,-3.021 1.072,-4.97c0.13,-0.65 0.227,-1.787 0.292,-3.411c0.065,-1.624 0.114,-3.427 0.146,-5.408c0.033,-1.982 0.049,-4.012 0.049,-6.091l0,-5.359c0,-0.065 -0.016,-0.374 -0.049,-0.926c-0.032,-0.552 -0.081,-1.202 -0.146,-1.949c-0.065,-0.747 -0.13,-1.511 -0.195,-2.29c-0.065,-0.78 -0.097,-1.429 -0.097,-1.949c-0.13,-1.559 -0.276,-3.492 -0.439,-5.798c-0.162,-2.306 -0.52,-4.532 -1.072,-6.675c-0.552,-2.144 -1.38,-3.98 -2.485,-5.506c-1.104,-1.527 -2.631,-2.29 -4.58,-2.29c-2.079,0 -3.719,0.39 -4.921,1.169c-1.202,0.78 -2.127,1.77 -2.777,2.972c-0.65,1.202 -1.105,2.518 -1.364,3.947c-0.26,1.429 -0.455,2.793 -0.585,4.093c-0.13,0.974 -0.244,1.981 -0.341,3.021c-0.098,1.039 -0.146,2.079 -0.146,3.118c0,0.715 0.032,1.429 0.097,2.144c0.065,0.714 0.195,1.429 0.39,2.144l0,19.197c0,1.299 0.146,2.761 0.438,4.385c0.293,1.624 0.731,3.183 1.316,4.678c0.585,1.494 1.348,2.858 2.29,4.092c0.942,1.235 2.063,2.112 3.362,2.631Z" style="fill:#64c191;fill-rule:nonzero;"/><path d="M439.354,181.929c-0.519,-0.65 -0.909,-1.332 -1.169,-2.046c-0.26,-0.715 -0.682,-1.43 -1.267,-2.144c-4.677,-5.717 -9.225,-11.45 -13.643,-17.2c-4.417,-5.749 -8.77,-11.645 -13.058,-17.687c-0.13,-0.065 -0.292,-0.13 -0.487,-0.195c-0.195,-0.064 -0.39,-0.097 -0.585,-0.097c-0.389,0 -0.584,0.195 -0.584,0.585c0,5.067 0.097,10.297 0.292,15.689c0.195,5.392 0.325,10.622 0.39,15.689c0.065,0.13 0.13,0.52 0.195,1.169c0.065,0.65 0.097,1.04 0.097,1.17c0.195,0.844 0.309,1.575 0.341,2.192c0.033,0.617 0.049,1.283 0.049,1.998c0,0.844 -0.032,1.267 -0.097,1.267l-0.293,0.39c-0.325,0.065 -1.12,0.178 -2.387,0.341c-1.267,0.162 -2.453,0.243 -3.557,0.243c-0.585,0 -1.072,-0.048 -1.462,-0.146c-0.39,-0.097 -0.585,-0.244 -0.585,-0.438c-0.129,-7.277 -0.227,-14.683 -0.292,-22.219c-0.065,-7.536 -0.097,-14.942 -0.097,-22.218c0,-1.039 -0.065,-2.517 -0.195,-4.434c-0.13,-1.916 -0.26,-3.979 -0.39,-6.188c-0.13,-2.208 -0.26,-4.466 -0.39,-6.772c-0.13,-2.306 -0.195,-4.434 -0.195,-6.383c0,-1.949 0.082,-3.573 0.244,-4.872c0.162,-1.3 0.471,-2.079 0.926,-2.339l5.067,-0.098c1.104,0 2.046,0.065 2.826,0.195c0.78,0.13 1.234,0.39 1.364,0.78c1.429,2.534 2.875,5.051 4.337,7.552c1.461,2.501 2.777,5.019 3.946,7.552c0,0.26 0.163,0.553 0.488,0.877c2.663,3.573 5.181,7 7.552,10.281c2.371,3.281 4.791,6.773 7.26,10.476c0.389,0.714 0.812,1.543 1.266,2.485c0.455,0.942 0.926,1.835 1.413,2.68c0.488,0.844 0.975,1.559 1.462,2.143c0.487,0.585 0.926,0.877 1.316,0.877c0.519,0 0.877,-0.422 1.072,-1.266c0.195,-2.144 0.357,-4.337 0.487,-6.578c0.13,-2.241 0.195,-4.467 0.195,-6.675l0,-2.924l-1.072,-19.294l-0.195,-7.894c0,-0.13 0.114,-0.422 0.341,-0.877c0.227,-0.455 0.406,-0.682 0.536,-0.682l7.016,0c0.13,0 0.276,0.292 0.439,0.877c0.162,0.585 0.308,1.137 0.438,1.657c-0.065,0.519 -0.097,1.494 -0.097,2.923l0,10.135c0,1.364 0.016,2.501 0.049,3.41c0.032,0.91 0.048,1.738 0.048,2.485l0,2.875c0,5.262 -0.016,10.671 -0.048,16.225c-0.033,5.555 -0.082,10.833 -0.147,15.835c-0.065,0.195 -0.113,0.748 -0.146,1.657l-0.195,5.944c-0.032,0.91 -0.048,1.495 -0.048,1.754c0,1.105 0.032,2.177 0.097,3.216c0.065,1.04 0.097,2.112 0.097,3.216l0,1.364c0,0.455 -0.064,0.942 -0.194,1.462l-0.488,0c-0.519,0 -1.055,0.081 -1.608,0.244c-0.552,0.162 -1.055,0.308 -1.51,0.438l-4.58,0c0,-0.13 -0.081,-0.26 -0.244,-0.39c-0.162,-0.13 -0.276,-0.227 -0.341,-0.292Z" style="fill:#64c191;fill-rule:nonzero;"/><path d="M453.484,182.611c-0.584,-0.195 -0.877,-0.617 -0.877,-1.267c0,-0.26 0.065,-0.584 0.195,-0.974c0.65,-3.313 1.494,-6.708 2.534,-10.183c1.039,-3.476 2.127,-6.968 3.264,-10.476c1.137,-3.508 2.225,-6.984 3.265,-10.427c1.039,-3.443 1.949,-6.821 2.728,-10.135c0.975,-4.287 2.095,-8.494 3.362,-12.619c1.267,-4.125 2.42,-8.299 3.46,-12.522c0.065,-0.455 0.146,-0.991 0.243,-1.608c0.098,-0.617 0.211,-1.251 0.341,-1.9c0.13,-0.65 0.309,-1.251 0.536,-1.803c0.228,-0.552 0.504,-0.991 0.829,-1.316c0.584,0 1.169,-0.032 1.754,-0.097c0.584,-0.065 1.137,-0.098 1.656,-0.098c0.975,0 1.754,0.13 2.339,0.39c0,0 0.195,0.796 0.585,2.388c0.389,1.591 0.893,3.605 1.51,6.041c0.617,2.437 1.283,5.1 1.998,7.991c0.714,2.891 1.397,5.652 2.046,8.283c0.65,2.631 1.235,4.954 1.754,6.968c0.52,2.014 0.877,3.313 1.072,3.898c0.78,2.923 1.462,5.895 2.047,8.916c0.584,3.021 1.137,6.058 1.656,9.112c0.52,3.053 1.04,6.106 1.559,9.16c0.52,3.053 1.137,6.074 1.852,9.062c0.13,0.325 0.276,0.618 0.438,0.877c0.163,0.26 0.244,0.553 0.244,0.877c0,0.585 -0.503,0.975 -1.51,1.17c-1.007,0.195 -2.453,0.292 -4.337,0.292c-1.949,0 -3.881,-0.081 -5.798,-0.244c-1.916,-0.162 -3.167,-0.341 -3.752,-0.535c-0.519,-0.91 -0.942,-2.079 -1.267,-3.509c-0.324,-1.429 -0.633,-2.874 -0.925,-4.336c-0.293,-1.462 -0.65,-2.794 -1.072,-3.995c-0.422,-1.202 -0.958,-2.063 -1.608,-2.583c-1.04,-0.13 -2.079,-0.227 -3.118,-0.292c-1.04,-0.065 -2.112,-0.098 -3.216,-0.098c-2.274,0 -4.418,0.098 -6.432,0.293c-0.13,0 -0.341,0.373 -0.633,1.12c-0.293,0.748 -0.585,1.608 -0.877,2.583c-0.293,0.974 -0.569,1.997 -0.829,3.069c-0.259,1.072 -0.454,1.933 -0.584,2.583c-0.325,1.689 -0.666,3.167 -1.023,4.434c-0.358,1.266 -1.348,1.9 -2.973,1.9c-0.974,0 -1.786,-0.13 -2.436,-0.39Zm11.109,-21.438c-0.065,0.13 -0.113,0.324 -0.146,0.584c-0.032,0.26 -0.049,0.423 -0.049,0.488c0.78,0.064 1.446,0.113 1.998,0.146c0.552,0.032 1.088,0.065 1.608,0.097c0.52,0.033 1.072,0.049 1.657,0.049l2.143,0c1.04,0 1.884,-0.065 2.534,-0.195c0.65,-0.13 0.975,-0.552 0.975,-1.267c0,-0.39 -0.065,-0.779 -0.195,-1.169c-0.325,-1.04 -0.585,-2.063 -0.78,-3.07c-0.195,-1.007 -0.373,-2.046 -0.536,-3.118c-0.162,-1.072 -0.341,-2.209 -0.536,-3.411c-0.195,-1.202 -0.455,-2.485 -0.779,-3.849c0,-1.104 -0.114,-2.046 -0.342,-2.826c-0.227,-0.78 -0.535,-1.169 -0.925,-1.169c-0.325,0 -0.585,0.162 -0.78,0.487c-1.104,2.923 -2.176,5.912 -3.216,8.965c-1.039,3.053 -1.916,6.139 -2.631,9.258Z" style="fill:#64c191;fill-rule:nonzero;"/><path d="M503.378,182.903c-0.39,-3.962 -0.585,-7.958 -0.585,-11.986c0,-3.443 0.081,-6.821 0.243,-10.134c0.163,-3.313 0.244,-6.627 0.244,-9.94l0,-1.998l-0.097,-6.87l0,-1.949l0.682,-24.069l0,-0.975l-0.098,-3.313l0,-0.974c0,-1.365 0.114,-2.339 0.341,-2.924c0.228,-0.585 0.991,-0.877 2.29,-0.877c0.91,0 2.128,0.049 3.655,0.146c1.526,0.098 3.053,0.195 4.58,0.293c1.526,0.097 2.858,0.178 3.995,0.243c1.137,0.065 1.77,0.098 1.9,0.098l0.293,0.584c-0.065,0.455 -0.114,1.283 -0.146,2.485c-0.033,1.202 -0.049,2.225 -0.049,3.07c0,0.52 0.016,0.958 0.049,1.315c0.032,0.358 0.113,0.764 0.243,1.219c-0.065,1.039 -0.114,2.03 -0.146,2.972c-0.032,0.942 -0.049,1.932 -0.049,2.972c0,3.508 0.098,7 0.293,10.476c0.195,3.475 0.292,6.967 0.292,10.475l0,6.87c0,2.177 -0.016,4.483 -0.049,6.919c-0.032,2.436 -0.065,4.743 -0.097,6.919c-0.033,2.176 -0.081,3.687 -0.146,4.531l0,1.559c0,0.65 0.048,1.316 0.146,1.998c0.097,0.682 0.26,1.348 0.487,1.998c0.227,0.649 0.568,1.137 1.023,1.461c0.195,0 0.52,0.017 0.975,0.049l3.021,0.195c0.454,0.033 0.779,0.049 0.974,0.049c0.13,0 0.698,-0.016 1.705,-0.049c1.007,-0.032 1.998,-0.049 2.973,-0.049l1.169,0c0.844,-0.13 1.965,-0.325 3.362,-0.584c1.397,-0.26 2.712,-0.39 3.947,-0.39c1.299,0 2.095,0.178 2.387,0.536c0.292,0.357 0.439,0.861 0.439,1.51c0,0.91 -0.033,1.852 -0.098,2.826c-0.065,0.975 -0.325,1.754 -0.78,2.339c-0.064,0.065 -0.682,0.146 -1.851,0.244c-1.169,0.097 -2.696,0.178 -4.58,0.243c-1.884,0.065 -4.028,0.146 -6.432,0.244c-2.403,0.097 -4.84,0.178 -7.308,0.243c-2.469,0.065 -4.889,0.114 -7.26,0.147c-2.371,0.032 -4.466,0.048 -6.285,0.048l-4.093,0c-1.04,0 -1.559,-0.065 -1.559,-0.195Z" style="fill:#64c191;fill-rule:nonzero;"/><path d="M552.686,182.221c-0.26,-0.649 -0.422,-1.413 -0.487,-2.29c-0.065,-0.877 -0.098,-1.543 -0.098,-1.997l0,-2.242c0,-3.898 -0.113,-7.714 -0.341,-11.45c-0.227,-3.735 -0.406,-7.552 -0.536,-11.45c-0.129,-6.107 -0.292,-12.165 -0.487,-18.174c-0.195,-6.009 -0.292,-12.067 -0.292,-18.174c0,-1.364 0.016,-2.712 0.049,-4.044c0.032,-1.332 0.048,-2.68 0.048,-4.044c0.065,-0.52 0.975,-0.893 2.729,-1.121c1.754,-0.227 3.768,-0.341 6.042,-0.341c2.208,0 4.336,0.065 6.382,0.195c2.047,0.13 3.492,0.26 4.337,0.39c0,0.325 0.032,0.926 0.097,1.803c0.065,0.877 0.13,1.445 0.195,1.705c0,2.599 -0.048,5.165 -0.146,7.698c-0.097,2.534 -0.146,5.1 -0.146,7.699l0,8.234c0,2.631 0.049,5.278 0.146,7.942c0.098,2.664 0.211,5.392 0.341,8.186c0.13,2.793 0.357,5.749 0.682,8.867l0,1.267c0,0.65 -0.016,1.413 -0.048,2.29c-0.033,0.877 -0.049,1.819 -0.049,2.826l0,2.778c0,1.169 0.032,2.143 0.097,2.923c0.065,0.78 0.146,1.494 0.244,2.144c0.097,0.649 0.179,1.315 0.244,1.997c0.064,0.683 0.097,1.543 0.097,2.583c0,1.104 -0.195,2.046 -0.585,2.826c-0.39,0.779 -1.169,1.169 -2.338,1.169l-14.325,0c-0.65,0.26 -1.072,0.39 -1.267,0.39c-0.325,0 -0.52,-0.195 -0.585,-0.585Z" style="fill:#64c191;fill-rule:nonzero;"/><path d="M579.387,183.488c-0.26,-0.065 -0.569,-0.26 -0.926,-0.585c-0.357,-0.324 -0.714,-0.682 -1.072,-1.071c-0.357,-0.39 -0.666,-0.748 -0.926,-1.072c-0.259,-0.325 -0.389,-0.52 -0.389,-0.585c0,-0.39 0.178,-0.796 0.536,-1.218c0.357,-0.422 0.633,-0.796 0.828,-1.121c0.974,-1.689 1.738,-3.199 2.29,-4.531c0.552,-1.332 1.251,-2.842 2.095,-4.531c1.689,-3.509 3.492,-7.017 5.408,-10.525c1.917,-3.508 3.85,-7.016 5.799,-10.524c1.949,-3.508 3.849,-7.033 5.7,-10.573c1.852,-3.541 3.59,-7.13 5.214,-10.768c0.26,-0.65 0.649,-1.381 1.169,-2.193c0.52,-0.812 1.023,-1.657 1.511,-2.534c0.487,-0.877 0.909,-1.786 1.266,-2.728c0.358,-0.942 0.536,-1.835 0.536,-2.68c0,-1.429 -0.422,-2.29 -1.266,-2.582c-0.845,-0.293 -1.819,-0.439 -2.924,-0.439c-1.754,0 -3.67,0.049 -5.749,0.146c-2.079,0.098 -4.174,0.228 -6.286,0.39c-2.111,0.163 -4.174,0.293 -6.188,0.39c-2.014,0.097 -3.865,0.146 -5.554,0.146c-0.91,0 -1.673,-0.162 -2.29,-0.487c-0.617,-0.325 -0.926,-1.072 -0.926,-2.241c0,-0.845 0.114,-1.641 0.341,-2.388c0.228,-0.747 0.504,-1.348 0.828,-1.803c0.13,0 0.423,-0.016 0.877,-0.048c0.455,-0.033 0.748,-0.082 0.877,-0.147c1.56,-0.259 3.33,-0.422 5.311,-0.487c1.982,-0.065 4.044,-0.097 6.188,-0.097c3.314,0 6.659,0.065 10.037,0.195c3.379,0.13 6.302,0.195 8.771,0.195c3.768,0 7.52,0.065 11.255,0.194c3.736,0.13 7.52,0.39 11.353,0.78c0.26,0.065 0.389,0.26 0.389,0.585c0,0.389 -0.162,0.925 -0.487,1.608c-0.325,0.682 -0.682,1.331 -1.072,1.949c-0.389,0.617 -0.763,1.185 -1.12,1.705c-0.358,0.52 -0.569,0.844 -0.634,0.974c-2.728,4.483 -5.327,8.949 -7.796,13.399c-2.468,4.451 -4.839,8.982 -7.113,13.594c-2.729,5.328 -5.197,10.768 -7.406,16.323c-2.209,5.554 -4.548,10.995 -7.017,16.322c0,0.13 0.049,0.358 0.147,0.683c0.097,0.324 0.243,0.552 0.438,0.682c1.884,0.195 3.898,0.325 6.042,0.39c2.144,0.065 4.385,0.097 6.724,0.097l4.775,-0.097c2.144,0 4.239,0.032 6.285,0.097c2.047,0.065 3.947,0.195 5.701,0.39c0.65,0.52 0.974,1.104 0.974,1.754c0,0.455 -0.097,0.812 -0.292,1.072c-0.195,0.26 -0.406,0.828 -0.633,1.705c-0.228,0.877 -0.504,1.348 -0.829,1.413c-2.014,0.455 -4.19,0.682 -6.529,0.682c-1.169,0 -2.355,-0.032 -3.557,-0.097c-1.201,-0.065 -2.42,-0.098 -3.654,-0.098c-0.52,0 -1.397,0.033 -2.631,0.098c-1.234,0.065 -2.469,0.097 -3.703,0.097c-0.715,0 -1.381,-0.032 -1.998,-0.097c-0.617,-0.065 -1.088,-0.195 -1.413,-0.39c-2.014,0.26 -3.995,0.439 -5.944,0.536c-1.949,0.097 -3.898,0.146 -5.847,0.146l-5.36,-0.097c-1.169,0 -2.354,0.113 -3.556,0.341c-1.202,0.227 -2.388,0.341 -3.557,0.341c-1.04,0 -2.047,-0.195 -3.021,-0.585Z" style="fill:#64c191;fill-rule:nonzero;"/><path d="M635.03,182.611c-0.585,-0.195 -0.877,-0.617 -0.877,-1.267c0,-0.26 0.065,-0.584 0.195,-0.974c0.649,-3.313 1.494,-6.708 2.533,-10.183c1.04,-3.476 2.128,-6.968 3.265,-10.476c1.137,-3.508 2.225,-6.984 3.264,-10.427c1.04,-3.443 1.949,-6.821 2.729,-10.135c0.974,-4.287 2.095,-8.494 3.362,-12.619c1.267,-4.125 2.42,-8.299 3.459,-12.522c0.065,-0.455 0.146,-0.991 0.244,-1.608c0.097,-0.617 0.211,-1.251 0.341,-1.9c0.13,-0.65 0.308,-1.251 0.536,-1.803c0.227,-0.552 0.503,-0.991 0.828,-1.316c0.585,0 1.169,-0.032 1.754,-0.097c0.585,-0.065 1.137,-0.098 1.657,-0.098c0.974,0 1.754,0.13 2.338,0.39c0,0 0.195,0.796 0.585,2.388c0.39,1.591 0.893,3.605 1.511,6.041c0.617,2.437 1.283,5.1 1.997,7.991c0.715,2.891 1.397,5.652 2.047,8.283c0.649,2.631 1.234,4.954 1.754,6.968c0.519,2.014 0.877,3.313 1.072,3.898c0.779,2.923 1.461,5.895 2.046,8.916c0.585,3.021 1.137,6.058 1.657,9.112c0.519,3.053 1.039,6.106 1.559,9.16c0.52,3.053 1.137,6.074 1.851,9.062c0.13,0.325 0.276,0.618 0.439,0.877c0.162,0.26 0.244,0.553 0.244,0.877c0,0.585 -0.504,0.975 -1.511,1.17c-1.007,0.195 -2.452,0.292 -4.336,0.292c-1.949,0 -3.882,-0.081 -5.799,-0.244c-1.916,-0.162 -3.167,-0.341 -3.751,-0.535c-0.52,-0.91 -0.942,-2.079 -1.267,-3.509c-0.325,-1.429 -0.633,-2.874 -0.926,-4.336c-0.292,-1.462 -0.649,-2.794 -1.072,-3.995c-0.422,-1.202 -0.958,-2.063 -1.608,-2.583c-1.039,-0.13 -2.079,-0.227 -3.118,-0.292c-1.039,-0.065 -2.111,-0.098 -3.216,-0.098c-2.274,0 -4.417,0.098 -6.431,0.293c-0.13,0 -0.341,0.373 -0.634,1.12c-0.292,0.748 -0.584,1.608 -0.877,2.583c-0.292,0.974 -0.568,1.997 -0.828,3.069c-0.26,1.072 -0.455,1.933 -0.585,2.583c-0.325,1.689 -0.666,3.167 -1.023,4.434c-0.357,1.266 -1.348,1.9 -2.972,1.9c-0.975,0 -1.787,-0.13 -2.436,-0.39Zm11.109,-21.438c-0.065,0.13 -0.114,0.324 -0.146,0.584c-0.033,0.26 -0.049,0.423 -0.049,0.488c0.779,0.064 1.445,0.113 1.998,0.146c0.552,0.032 1.088,0.065 1.607,0.097c0.52,0.033 1.072,0.049 1.657,0.049l2.144,0c1.039,0 1.884,-0.065 2.534,-0.195c0.649,-0.13 0.974,-0.552 0.974,-1.267c0,-0.39 -0.065,-0.779 -0.195,-1.169c-0.325,-1.04 -0.585,-2.063 -0.779,-3.07c-0.195,-1.007 -0.374,-2.046 -0.536,-3.118c-0.163,-1.072 -0.342,-2.209 -0.536,-3.411c-0.195,-1.202 -0.455,-2.485 -0.78,-3.849c0,-1.104 -0.114,-2.046 -0.341,-2.826c-0.227,-0.78 -0.536,-1.169 -0.926,-1.169c-0.325,0 -0.585,0.162 -0.779,0.487c-1.105,2.923 -2.177,5.912 -3.216,8.965c-1.04,3.053 -1.917,6.139 -2.631,9.258Z" style="fill:#64c191;fill-rule:nonzero;"/><g><path d="M685.215,184.95c-0.389,-0.13 -0.747,-0.325 -1.072,-0.585c-0.324,-0.26 -0.487,-0.617 -0.487,-1.072c0.13,-4.028 0.309,-8.039 0.536,-12.035c0.228,-3.995 0.341,-8.039 0.341,-12.132c0,-5.002 -0.065,-9.972 -0.195,-14.909c-0.13,-4.938 -0.195,-9.94 -0.195,-15.007c0,-3.573 0.033,-7.114 0.098,-10.622c0.065,-3.508 0.162,-7.081 0.292,-10.719c0.065,-0.13 0.211,-0.293 0.439,-0.488c0.227,-0.195 0.438,-0.292 0.633,-0.292l13.058,-0.39c0.585,0 1.316,0.211 2.193,0.634c0.877,0.422 1.478,0.893 1.803,1.413l0,1.169c0,2.274 0.146,4.483 0.438,6.626c0.292,2.144 0.439,4.288 0.439,6.432c-0.065,0.325 -0.114,1.104 -0.147,2.339c-0.032,1.234 -0.065,2.566 -0.097,3.995c-0.033,1.429 -0.049,2.761 -0.049,3.995l0,4.191l-0.097,4.19l0,0.974c0,1.949 0.13,3.963 0.39,6.042c0.259,2.079 0.389,4.126 0.389,6.139l0,9.355c0,0.715 0.017,1.381 0.049,1.998c0.033,0.617 0.049,1.023 0.049,1.218c0,0.39 0.016,0.958 0.049,1.706c0.032,0.747 0.113,1.526 0.243,2.338c0.13,0.812 0.309,1.576 0.536,2.29c0.227,0.715 0.536,1.267 0.926,1.657c0.195,0.195 0.812,0.292 1.851,0.292c0.845,0 1.884,-0.048 3.119,-0.146c1.234,-0.097 2.55,-0.211 3.946,-0.341c1.397,-0.13 2.81,-0.244 4.239,-0.341c1.43,-0.097 2.761,-0.146 3.996,-0.146c1.494,0 2.712,0.097 3.654,0.292c0.942,0.195 1.445,0.552 1.51,1.072l0.098,5.457l-2.924,0.78c-6.106,0.13 -12.197,0.406 -18.271,0.828c-6.074,0.422 -12.165,0.991 -18.272,1.705c-0.584,0.26 -1.234,0.39 -1.948,0.39c-0.39,0 -0.91,-0.097 -1.56,-0.292Z" style="fill:#64c191;fill-rule:nonzero;"/><path d="M748.644,182.903c-1.884,-0.259 -3.573,-0.763 -5.067,-1.51c-1.494,-0.747 -2.875,-1.657 -4.142,-2.729c-1.266,-1.071 -2.42,-2.257 -3.459,-3.556c-1.039,-1.3 -2.014,-2.631 -2.923,-3.996c-0.455,-0.714 -0.959,-1.348 -1.511,-1.9c-0.552,-0.552 -0.958,-1.251 -1.218,-2.095c-1.299,-4.093 -2.274,-8.088 -2.923,-11.986c-0.65,-3.898 -0.975,-7.958 -0.975,-12.181c0,-1.299 0.13,-2.94 0.39,-4.921c0.26,-1.982 0.633,-4.093 1.121,-6.334c0.487,-2.242 1.136,-4.532 1.948,-6.87c0.813,-2.339 1.755,-4.564 2.826,-6.676c1.072,-2.111 2.323,-4.011 3.752,-5.7c1.429,-1.689 3.021,-2.989 4.775,-3.898c3.768,-2.014 7.796,-3.021 12.084,-3.021c4.287,0 8.413,0.926 12.376,2.777c3.962,1.852 7.406,4.337 10.329,7.455c0.26,0.39 0.682,0.877 1.267,1.462c0.585,0.584 1.185,1.201 1.803,1.851c0.617,0.65 1.153,1.299 1.608,1.949c0.454,0.65 0.682,1.169 0.682,1.559l0,0.975c0.325,1.299 0.649,2.42 0.974,3.362c0.325,0.942 0.634,1.949 0.926,3.021c0.292,1.071 0.52,2.355 0.682,3.849c0.162,1.494 0.244,3.508 0.244,6.041c0.13,1.105 0.292,2.291 0.487,3.557c0.195,1.267 0.292,2.453 0.292,3.557l0,0.877c-0.195,2.079 -0.357,3.882 -0.487,5.409c-0.13,1.526 -0.357,2.972 -0.682,4.336c-0.325,1.364 -0.796,2.761 -1.413,4.19c-0.617,1.429 -1.478,3.054 -2.582,4.873c-1.365,2.338 -3.005,4.515 -4.922,6.529c-1.916,2.014 -4.011,3.751 -6.285,5.213c-2.274,1.462 -4.759,2.615 -7.455,3.46c-2.696,0.844 -5.506,1.266 -8.429,1.266l-1.998,0c-0.682,0 -1.38,-0.065 -2.095,-0.195Zm7.504,-9.257c0.324,0.13 0.633,0.195 0.925,0.195l0.926,0c1.105,0 2.079,-0.244 2.924,-0.731c0.844,-0.487 1.591,-1.121 2.241,-1.9c0.65,-0.78 1.218,-1.673 1.705,-2.68c0.487,-1.007 0.926,-1.998 1.316,-2.972c0,-2.729 0.097,-5.327 0.292,-7.796c0.195,-2.469 0.292,-5.067 0.292,-7.796c0,-2.923 -0.162,-5.928 -0.487,-9.014c-0.325,-3.086 -0.552,-6.123 -0.682,-9.111c-0.065,-1.365 -0.179,-3.07 -0.341,-5.116c-0.162,-2.047 -0.536,-4.028 -1.121,-5.945c-0.584,-1.916 -1.494,-3.556 -2.728,-4.921c-1.234,-1.364 -2.924,-2.046 -5.067,-2.046c-0.52,0 -1.186,0.179 -1.998,0.536c-0.812,0.357 -1.624,0.812 -2.436,1.364c-0.812,0.552 -1.559,1.17 -2.242,1.852c-0.682,0.682 -1.12,1.348 -1.315,1.997c-0.26,0.78 -0.439,1.641 -0.536,2.583c-0.098,0.942 -0.163,1.9 -0.195,2.874c-0.033,0.975 -0.049,1.917 -0.049,2.826c0,0.91 -0.032,1.722 -0.097,2.437c-0.13,1.819 -0.358,4.498 -0.682,8.039c-0.325,3.541 -0.488,7.357 -0.488,11.45c0,2.664 0.13,5.327 0.39,7.991c0.26,2.663 0.764,5.083 1.511,7.26c0.747,2.176 1.754,4.044 3.021,5.603c1.266,1.559 2.907,2.566 4.921,3.021Z" style="fill:#64c191;fill-rule:nonzero;"/></g><path d="M117.581,299.841c-4.742,-0.975 -8.575,-2.891 -11.499,-5.749c-2.923,-2.859 -5.213,-6.237 -6.87,-10.135c-1.656,-3.898 -2.777,-8.088 -3.362,-12.571c-0.584,-4.482 -0.877,-8.835 -0.877,-13.058c0,-6.042 0.975,-11.255 2.924,-15.64c1.949,-4.385 4.564,-8.023 7.844,-10.914c3.281,-2.891 7.065,-5.035 11.353,-6.432c4.288,-1.397 8.803,-2.095 13.545,-2.095c1.624,0 3.119,0.341 4.483,1.023c1.364,0.682 2.891,1.446 4.58,2.29c0.78,0.52 1.429,1.234 1.949,2.144c0.52,0.909 0.942,1.851 1.267,2.826c0.325,0.974 0.552,1.916 0.682,2.826c0.13,0.909 0.195,1.657 0.195,2.241c0,1.819 -0.276,3.411 -0.829,4.775c-0.552,1.364 -1.266,2.501 -2.143,3.411c-0.877,0.909 -1.884,1.592 -3.021,2.046c-1.137,0.455 -2.258,0.682 -3.362,0.682c-2.079,0 -3.849,-0.714 -5.311,-2.143c-1.462,-1.43 -2.193,-3.541 -2.193,-6.335c0,-1.039 0.13,-1.819 0.39,-2.338c0.26,-0.52 0.585,-0.959 0.975,-1.316c0.389,-0.357 0.844,-0.747 1.364,-1.169c0.52,-0.422 1.039,-1.088 1.559,-1.998c0.13,-0.13 0.195,-0.292 0.195,-0.487c0,-0.39 -0.244,-0.65 -0.731,-0.78c-0.487,-0.13 -1.023,-0.195 -1.608,-0.195c-2.469,0 -4.58,0.309 -6.334,0.926c-1.754,0.617 -3.378,1.543 -4.872,2.777c-0.325,0.325 -0.585,0.65 -0.78,0.975c-0.195,0.325 -0.455,0.65 -0.78,0.974c0,0.195 -0.065,0.618 -0.194,1.267c-0.13,0.65 -0.26,1.348 -0.39,2.095c-0.13,0.747 -0.244,1.446 -0.341,2.095c-0.098,0.65 -0.146,1.105 -0.146,1.365c-0.39,1.884 -0.666,3.784 -0.829,5.7c-0.162,1.917 -0.243,3.817 -0.243,5.701c0,2.274 0.097,4.564 0.292,6.87c0.195,2.306 0.455,4.661 0.78,7.065c0.194,1.624 0.373,3.346 0.535,5.165c0.163,1.819 0.471,3.605 0.926,5.36c0.455,1.754 1.137,3.361 2.047,4.823c0.909,1.462 2.176,2.68 3.8,3.655c2.209,1.234 4.288,1.851 6.237,1.851c2.728,0 5.051,-1.072 6.967,-3.216c1.917,-2.144 3.33,-4.872 4.239,-8.185c0.195,-0.65 0.358,-1.381 0.488,-2.193c0.129,-0.812 0.308,-1.559 0.535,-2.241c0.228,-0.682 0.585,-1.267 1.072,-1.754c0.488,-0.488 1.219,-0.731 2.193,-0.731c1.494,0 2.664,0.341 3.508,1.023c0.845,0.682 1.267,1.575 1.267,2.68c0,0.779 -0.179,1.754 -0.536,2.923c-0.357,1.17 -0.828,2.404 -1.413,3.703c-0.585,1.3 -1.251,2.599 -1.998,3.898c-0.747,1.3 -1.51,2.436 -2.29,3.411c-1.039,1.299 -2.452,2.615 -4.239,3.947c-1.786,1.331 -3.735,2.549 -5.847,3.654c-2.111,1.104 -4.271,1.998 -6.48,2.68c-2.209,0.682 -4.288,1.023 -6.237,1.023l-1.266,0c-0.39,0 -0.78,-0.065 -1.17,-0.195Z" style="fill:#64c191;fill-rule:nonzero;"/><path d="M177.609,299.841c-1.884,-0.26 -3.573,-0.763 -5.067,-1.51c-1.494,-0.748 -2.875,-1.657 -4.142,-2.729c-1.266,-1.072 -2.42,-2.258 -3.459,-3.557c-1.039,-1.299 -2.014,-2.631 -2.923,-3.995c-0.455,-0.715 -0.959,-1.348 -1.511,-1.9c-0.552,-0.553 -0.958,-1.251 -1.218,-2.096c-1.299,-4.092 -2.274,-8.088 -2.923,-11.986c-0.65,-3.898 -0.975,-7.958 -0.975,-12.181c0,-1.299 0.13,-2.939 0.39,-4.921c0.26,-1.981 0.633,-4.093 1.121,-6.334c0.487,-2.241 1.136,-4.531 1.948,-6.87c0.813,-2.339 1.755,-4.564 2.826,-6.675c1.072,-2.112 2.323,-4.012 3.752,-5.701c1.429,-1.689 3.021,-2.988 4.775,-3.898c3.768,-2.014 7.796,-3.021 12.084,-3.021c4.287,0 8.413,0.926 12.376,2.778c3.962,1.851 7.406,4.336 10.329,7.454c0.26,0.39 0.682,0.877 1.267,1.462c0.585,0.585 1.185,1.202 1.803,1.852c0.617,0.649 1.153,1.299 1.608,1.949c0.454,0.649 0.682,1.169 0.682,1.559l0,0.974c0.325,1.299 0.649,2.42 0.974,3.362c0.325,0.942 0.634,1.949 0.926,3.021c0.292,1.072 0.52,2.355 0.682,3.849c0.162,1.494 0.244,3.508 0.244,6.042c0.13,1.104 0.292,2.29 0.487,3.557c0.195,1.267 0.292,2.452 0.292,3.557l0,0.877c-0.195,2.079 -0.357,3.881 -0.487,5.408c-0.13,1.527 -0.357,2.972 -0.682,4.336c-0.325,1.365 -0.796,2.762 -1.413,4.191c-0.617,1.429 -1.478,3.053 -2.582,4.872c-1.365,2.339 -3.005,4.515 -4.922,6.529c-1.916,2.014 -4.011,3.752 -6.285,5.214c-2.274,1.461 -4.759,2.614 -7.455,3.459c-2.696,0.845 -5.506,1.267 -8.429,1.267l-1.998,0c-0.682,0 -1.38,-0.065 -2.095,-0.195Zm7.504,-9.258c0.325,0.13 0.633,0.195 0.925,0.195l0.926,0c1.105,0 2.079,-0.243 2.924,-0.731c0.844,-0.487 1.591,-1.12 2.241,-1.9c0.65,-0.779 1.218,-1.673 1.705,-2.68c0.488,-1.007 0.926,-1.997 1.316,-2.972c0,-2.728 0.097,-5.327 0.292,-7.796c0.195,-2.468 0.292,-5.067 0.292,-7.795c0,-2.924 -0.162,-5.929 -0.487,-9.014c-0.325,-3.086 -0.552,-6.123 -0.682,-9.112c-0.065,-1.364 -0.179,-3.069 -0.341,-5.116c-0.162,-2.046 -0.536,-4.028 -1.121,-5.944c-0.584,-1.917 -1.494,-3.557 -2.728,-4.921c-1.234,-1.364 -2.924,-2.047 -5.067,-2.047c-0.52,0 -1.186,0.179 -1.998,0.536c-0.812,0.358 -1.624,0.812 -2.436,1.365c-0.812,0.552 -1.559,1.169 -2.242,1.851c-0.682,0.682 -1.12,1.348 -1.315,1.998c-0.26,0.779 -0.439,1.64 -0.536,2.582c-0.098,0.942 -0.163,1.9 -0.195,2.875c-0.032,0.974 -0.049,1.916 -0.049,2.826c0,0.909 -0.032,1.721 -0.097,2.436c-0.13,1.819 -0.357,4.499 -0.682,8.04c-0.325,3.54 -0.488,7.357 -0.488,11.45c0,2.663 0.13,5.327 0.39,7.99c0.26,2.664 0.764,5.084 1.511,7.26c0.747,2.177 1.754,4.044 3.021,5.604c1.266,1.559 2.907,2.566 4.921,3.02Z" style="fill:#64c191;fill-rule:nonzero;"/><path d="M221.656,300.621c-0.91,0 -1.624,-0.212 -2.144,-0.634c-0.52,-0.422 -0.942,-0.942 -1.267,-1.559c-0.325,-0.617 -0.536,-1.299 -0.633,-2.046c-0.098,-0.748 -0.147,-1.446 -0.147,-2.096l0,-0.682c0.455,-9.939 0.796,-19.7 1.024,-29.283c0.227,-9.582 0.341,-19.571 0.341,-29.965l0,-5.36c0,-1.754 -0.033,-3.54 -0.098,-5.359c0.13,-0.13 0.358,-0.293 0.682,-0.488c0.325,-0.194 0.65,-0.292 0.975,-0.292l4.288,0c0.129,-0.065 0.324,-0.13 0.584,-0.195c0.26,-0.065 0.455,-0.097 0.585,-0.097c0.065,0 0.162,0.016 0.292,0.048c0.13,0.033 0.195,0.114 0.195,0.244c0.91,1.559 1.868,3.118 2.875,4.678c1.007,1.559 1.9,3.118 2.68,4.677c0.454,0.91 1.234,2.485 2.338,4.726c1.105,2.242 2.388,4.775 3.85,7.601c1.461,2.826 3.02,5.766 4.677,8.819c1.657,3.054 3.248,5.847 4.775,8.381c1.527,2.533 2.891,4.629 4.093,6.285c1.202,1.657 2.127,2.485 2.777,2.485c0.195,0 0.357,-0.243 0.487,-0.731c0.13,-0.487 0.276,-1.088 0.439,-1.803c0.162,-0.714 0.292,-1.477 0.39,-2.29c0.097,-0.812 0.211,-1.542 0.341,-2.192l-0.098,-3.606c0,-3.313 0.082,-6.561 0.244,-9.744c0.162,-3.184 0.309,-6.4 0.438,-9.648c0,-0.714 -0.065,-1.397 -0.194,-2.046c-0.13,-0.65 -0.195,-1.332 -0.195,-2.047c0,-1.819 0.113,-3.573 0.341,-5.262c0.227,-1.689 0.341,-3.411 0.341,-5.165l0,-0.974l0.292,-0.195l5.165,0c0.455,0 0.747,0.227 0.877,0.682c0.13,0.455 0.195,0.845 0.195,1.17l0,18.904c0.39,2.924 0.584,5.847 0.584,8.771c0,4.677 -0.259,9.322 -0.779,13.935c-0.52,4.612 -0.812,9.257 -0.877,13.935c-0.325,0.844 -0.504,2.144 -0.536,3.898c-0.033,1.754 -0.098,3.589 -0.195,5.506c-0.097,1.916 -0.276,3.686 -0.536,5.311c-0.26,1.624 -0.78,2.728 -1.559,3.313c-0.325,0.26 -0.828,0.438 -1.511,0.536c-0.682,0.097 -1.348,0.146 -1.997,0.146l-1.657,-0.098c-1.559,-1.299 -2.858,-2.826 -3.898,-4.58c-1.039,-1.754 -2.144,-3.475 -3.313,-5.164c-1.039,-1.495 -2.128,-2.973 -3.265,-4.434c-1.136,-1.462 -2.225,-2.94 -3.264,-4.434c-1.039,-1.559 -2.014,-3.151 -2.923,-4.775c-0.91,-1.624 -1.884,-3.216 -2.924,-4.775c-0.974,-1.559 -2.128,-3.151 -3.459,-4.775c-1.332,-1.624 -2.453,-3.248 -3.362,-4.872c-0.195,-0.325 -0.504,-0.845 -0.926,-1.56c-0.422,-0.714 -0.796,-1.071 -1.121,-1.071c-0.26,0 -0.389,0.487 -0.389,1.461c0,1.235 0.016,2.42 0.048,3.557c0.033,1.137 0.049,2.225 0.049,3.265c0,2.143 -0.016,4.206 -0.049,6.188c-0.032,1.981 -0.081,3.979 -0.146,5.993c-0.065,2.014 -0.13,4.092 -0.195,6.236c-0.065,2.144 -0.097,4.418 -0.097,6.822c0,0.195 0.048,0.519 0.146,0.974c0.097,0.455 0.211,0.975 0.341,1.559c0.13,0.585 0.244,1.186 0.341,1.803c0.098,0.617 0.146,1.153 0.146,1.608c0,0.65 -0.13,1.007 -0.39,1.072c-0.194,0 -0.389,-0.098 -0.584,-0.292l-3.508,0Z" style="fill:#64c191;fill-rule:nonzero;"/><path d="M322.027,300.426c-3.313,-0.585 -6.318,-1.722 -9.014,-3.411c-2.696,-1.689 -5.181,-3.736 -7.455,-6.139c-0.584,-1.3 -1.218,-2.534 -1.9,-3.703c-0.682,-1.17 -1.251,-2.436 -1.705,-3.801c-0.845,-2.728 -1.413,-5.538 -1.706,-8.429c-0.292,-2.891 -0.438,-5.798 -0.438,-8.722c0,-3.313 0.081,-6.594 0.243,-9.842c0.163,-3.248 0.244,-6.431 0.244,-9.55c0,-0.325 -0.016,-1.12 -0.049,-2.387l-0.195,-8.186c-0.032,-1.267 -0.048,-2.062 -0.048,-2.387l0,-5.36c0,-1.169 0.113,-2.095 0.341,-2.777c0.227,-0.682 0.731,-1.202 1.51,-1.559c0.78,-0.358 1.965,-0.569 3.557,-0.634c1.592,-0.065 3.752,-0.097 6.48,-0.097c1.3,0 2.502,0.065 3.606,0.195c1.104,0.13 1.722,0.454 1.851,0.974c0,1.494 -0.016,3.005 -0.048,4.531c-0.033,1.527 -0.049,3.07 -0.049,4.629c0,4.093 0.049,8.153 0.146,12.181c0.098,4.028 0.276,8.088 0.536,12.181l0.098,2.631c0,1.3 -0.033,2.745 -0.098,4.337c-0.065,1.591 -0.097,3.167 -0.097,4.726c0,2.339 0.113,4.58 0.341,6.724c0.227,2.144 0.698,3.963 1.413,5.457c0.52,1.104 1.185,2.209 1.997,3.313c0.813,1.105 1.722,2.095 2.729,2.972c1.007,0.877 2.111,1.592 3.313,2.144c1.202,0.552 2.485,0.829 3.849,0.829c2.469,0 4.532,-0.666 6.188,-1.998c1.657,-1.332 2.778,-3.005 3.362,-5.019c1.17,-4.093 2.063,-8.364 2.68,-12.814c0.617,-4.45 0.926,-8.949 0.926,-13.497c0,-4.872 -0.292,-9.517 -0.877,-13.935c-0.065,-0.325 -0.195,-1.104 -0.39,-2.338c-0.195,-1.235 -0.406,-2.664 -0.633,-4.288c-0.228,-1.624 -0.439,-3.33 -0.634,-5.116c-0.195,-1.787 -0.292,-3.362 -0.292,-4.726c0,-1.17 0.081,-2.112 0.244,-2.826c0.162,-0.715 0.471,-1.072 0.925,-1.072l7.114,0c0.195,0 0.39,0.454 0.585,1.364c0.195,0.909 0.373,1.949 0.536,3.118c0.162,1.17 0.292,2.274 0.389,3.314c0.098,1.039 0.147,1.656 0.147,1.851c0.065,0.91 0.113,1.868 0.146,2.875c0.032,1.007 0.048,2.03 0.048,3.069c0,2.339 -0.032,4.71 -0.097,7.114c-0.065,2.404 -0.097,4.678 -0.097,6.821c0,4.093 0.178,7.926 0.536,11.499c0.357,3.573 0.536,7.341 0.536,11.304c0,1.689 -0.163,3.135 -0.488,4.337c-0.325,1.202 -0.714,2.517 -1.169,3.946c-0.585,1.884 -1.364,3.72 -2.339,5.506c-0.974,1.787 -2.127,3.411 -3.459,4.872c-1.332,1.462 -2.875,2.68 -4.629,3.655c-1.754,0.974 -3.703,1.591 -5.847,1.851c-1.169,0.13 -2.485,0.276 -3.947,0.439c-1.461,0.162 -2.939,0.243 -4.433,0.243c-0.78,0 -1.543,-0.032 -2.29,-0.097c-0.748,-0.065 -1.478,-0.162 -2.193,-0.292Z" style="fill:#64c191;fill-rule:nonzero;"/><path d="M364.904,300.621c-0.909,0 -1.624,-0.212 -2.144,-0.634c-0.52,-0.422 -0.942,-0.942 -1.267,-1.559c-0.324,-0.617 -0.536,-1.299 -0.633,-2.046c-0.097,-0.748 -0.146,-1.446 -0.146,-2.096l0,-0.682c0.455,-9.939 0.796,-19.7 1.023,-29.283c0.227,-9.582 0.341,-19.571 0.341,-29.965l0,-5.36c0,-1.754 -0.032,-3.54 -0.097,-5.359c0.13,-0.13 0.357,-0.293 0.682,-0.488c0.325,-0.194 0.649,-0.292 0.974,-0.292l4.288,0c0.13,-0.065 0.325,-0.13 0.585,-0.195c0.259,-0.065 0.454,-0.097 0.584,-0.097c0.065,0 0.163,0.016 0.293,0.048c0.13,0.033 0.195,0.114 0.195,0.244c0.909,1.559 1.867,3.118 2.874,4.678c1.007,1.559 1.901,3.118 2.68,4.677c0.455,0.91 1.234,2.485 2.339,4.726c1.104,2.242 2.387,4.775 3.849,7.601c1.462,2.826 3.021,5.766 4.678,8.819c1.656,3.054 3.248,5.847 4.774,8.381c1.527,2.533 2.891,4.629 4.093,6.285c1.202,1.657 2.128,2.485 2.778,2.485c0.194,0 0.357,-0.243 0.487,-0.731c0.13,-0.487 0.276,-1.088 0.438,-1.803c0.163,-0.714 0.293,-1.477 0.39,-2.29c0.098,-0.812 0.211,-1.542 0.341,-2.192l-0.097,-3.606c0,-3.313 0.081,-6.561 0.243,-9.744c0.163,-3.184 0.309,-6.4 0.439,-9.648c0,-0.714 -0.065,-1.397 -0.195,-2.046c-0.13,-0.65 -0.195,-1.332 -0.195,-2.047c0,-1.819 0.114,-3.573 0.341,-5.262c0.228,-1.689 0.341,-3.411 0.341,-5.165l0,-0.974l0.293,-0.195l5.164,0c0.455,0 0.747,0.227 0.877,0.682c0.13,0.455 0.195,0.845 0.195,1.17l0,18.904c0.39,2.924 0.585,5.847 0.585,8.771c0,4.677 -0.26,9.322 -0.78,13.935c-0.519,4.612 -0.812,9.257 -0.877,13.935c-0.325,0.844 -0.503,2.144 -0.536,3.898c-0.032,1.754 -0.097,3.589 -0.195,5.506c-0.097,1.916 -0.276,3.686 -0.536,5.311c-0.259,1.624 -0.779,2.728 -1.559,3.313c-0.325,0.26 -0.828,0.438 -1.51,0.536c-0.682,0.097 -1.348,0.146 -1.998,0.146l-1.656,-0.098c-1.56,-1.299 -2.859,-2.826 -3.898,-4.58c-1.04,-1.754 -2.144,-3.475 -3.314,-5.164c-1.039,-1.495 -2.127,-2.973 -3.264,-4.434c-1.137,-1.462 -2.225,-2.94 -3.265,-4.434c-1.039,-1.559 -2.014,-3.151 -2.923,-4.775c-0.91,-1.624 -1.884,-3.216 -2.923,-4.775c-0.975,-1.559 -2.128,-3.151 -3.46,-4.775c-1.332,-1.624 -2.452,-3.248 -3.362,-4.872c-0.195,-0.325 -0.503,-0.845 -0.926,-1.56c-0.422,-0.714 -0.795,-1.071 -1.12,-1.071c-0.26,0 -0.39,0.487 -0.39,1.461c0,1.235 0.016,2.42 0.049,3.557c0.032,1.137 0.048,2.225 0.048,3.265c0,2.143 -0.016,4.206 -0.048,6.188c-0.033,1.981 -0.082,3.979 -0.146,5.993c-0.065,2.014 -0.13,4.092 -0.195,6.236c-0.065,2.144 -0.098,4.418 -0.098,6.822c0,0.195 0.049,0.519 0.146,0.974c0.098,0.455 0.211,0.975 0.341,1.559c0.13,0.585 0.244,1.186 0.341,1.803c0.098,0.617 0.147,1.153 0.147,1.608c0,0.65 -0.13,1.007 -0.39,1.072c-0.195,0 -0.39,-0.098 -0.585,-0.292l-3.508,0Z" style="fill:#64c191;fill-rule:nonzero;"/><path d="M456.895,299.061c-0.39,-0.13 -0.634,-0.617 -0.731,-1.461c-0.097,-0.845 -0.146,-1.722 -0.146,-2.631c0,-3.249 0.114,-6.464 0.341,-9.648c0.227,-3.183 0.341,-6.399 0.341,-9.647c0,-1.494 -0.081,-2.956 -0.244,-4.385c-0.162,-1.43 -0.276,-2.891 -0.341,-4.385c-0.13,-4.418 -0.178,-8.868 -0.146,-13.351c0.033,-4.482 -0.016,-8.965 -0.146,-13.448c0,-0.519 0.032,-1.201 0.097,-2.046c0.065,-0.845 0.098,-1.722 0.098,-2.631c0,-0.715 -0.033,-1.381 -0.098,-1.998c-0.065,-0.617 -0.194,-1.12 -0.389,-1.51c-0.845,-0.065 -2.079,-0.114 -3.703,-0.146c-1.625,-0.033 -3.232,-0.065 -4.824,-0.098c-1.592,-0.032 -3.021,-0.13 -4.288,-0.292c-1.267,-0.163 -1.932,-0.406 -1.997,-0.731c-0.065,-0.455 -0.147,-1.023 -0.244,-1.705c-0.098,-0.683 -0.146,-1.381 -0.146,-2.096c0,-0.584 0.065,-1.169 0.195,-1.754c0.13,-0.584 0.422,-1.072 0.877,-1.461l19.099,1.169c2.859,0 5.246,-0.032 7.163,-0.097c1.916,-0.065 3.654,-0.147 5.213,-0.244c1.56,-0.097 3.119,-0.195 4.678,-0.292c1.559,-0.098 3.378,-0.147 5.457,-0.147c1.299,0 2.452,0.049 3.459,0.147c1.007,0.097 1.576,0.308 1.706,0.633l0,4.678c0,0.519 -0.374,0.877 -1.121,1.071c-0.747,0.195 -1.673,0.293 -2.777,0.293c-1.04,0 -2.16,-0.049 -3.362,-0.146c-1.202,-0.098 -2.323,-0.147 -3.362,-0.147c-0.845,0 -1.592,0.065 -2.241,0.195c-0.65,0.13 -1.072,0.358 -1.267,0.683c-0.715,3.508 -1.153,7.081 -1.316,10.719c-0.162,3.638 -0.243,7.373 -0.243,11.206c0,4.353 0.081,8.722 0.243,13.107c0.163,4.385 0.341,8.624 0.536,12.717c0.13,2.599 0.309,5.197 0.536,7.796c0.227,2.598 0.374,5.197 0.439,7.796c0.065,0.324 0.113,0.649 0.146,0.974c0.032,0.325 0.049,0.65 0.049,0.975c0,1.299 -0.813,2.143 -2.437,2.533c-1.624,0.39 -4.028,0.585 -7.211,0.585c-1.754,0 -3.378,-0.065 -4.872,-0.195c-1.494,-0.13 -2.501,-0.325 -3.021,-0.585Z" style="fill:#64c191;fill-rule:nonzero;"/><path d="M509.712,299.841c-1.884,-0.26 -3.573,-0.763 -5.068,-1.51c-1.494,-0.748 -2.874,-1.657 -4.141,-2.729c-1.267,-1.072 -2.42,-2.258 -3.46,-3.557c-1.039,-1.299 -2.013,-2.631 -2.923,-3.995c-0.455,-0.715 -0.958,-1.348 -1.51,-1.9c-0.553,-0.553 -0.959,-1.251 -1.219,-2.096c-1.299,-4.092 -2.273,-8.088 -2.923,-11.986c-0.65,-3.898 -0.974,-7.958 -0.974,-12.181c0,-1.299 0.129,-2.939 0.389,-4.921c0.26,-1.981 0.634,-4.093 1.121,-6.334c0.487,-2.241 1.137,-4.531 1.949,-6.87c0.812,-2.339 1.754,-4.564 2.826,-6.675c1.072,-2.112 2.322,-4.012 3.752,-5.701c1.429,-1.689 3.021,-2.988 4.775,-3.898c3.768,-2.014 7.795,-3.021 12.083,-3.021c4.288,0 8.413,0.926 12.376,2.778c3.963,1.851 7.406,4.336 10.33,7.454c0.259,0.39 0.682,0.877 1.266,1.462c0.585,0.585 1.186,1.202 1.803,1.852c0.617,0.649 1.153,1.299 1.608,1.949c0.455,0.649 0.682,1.169 0.682,1.559l0,0.974c0.325,1.299 0.65,2.42 0.975,3.362c0.324,0.942 0.633,1.949 0.925,3.021c0.293,1.072 0.52,2.355 0.683,3.849c0.162,1.494 0.243,3.508 0.243,6.042c0.13,1.104 0.292,2.29 0.487,3.557c0.195,1.267 0.293,2.452 0.293,3.557l0,0.877c-0.195,2.079 -0.358,3.881 -0.488,5.408c-0.129,1.527 -0.357,2.972 -0.682,4.336c-0.324,1.365 -0.795,2.762 -1.413,4.191c-0.617,1.429 -1.478,3.053 -2.582,4.872c-1.364,2.339 -3.005,4.515 -4.921,6.529c-1.917,2.014 -4.012,3.752 -6.286,5.214c-2.273,1.461 -4.758,2.614 -7.454,3.459c-2.696,0.845 -5.506,1.267 -8.43,1.267l-1.997,0c-0.682,0 -1.381,-0.065 -2.095,-0.195Zm7.503,-9.258c0.325,0.13 0.634,0.195 0.926,0.195l0.926,0c1.104,0 2.079,-0.243 2.923,-0.731c0.845,-0.487 1.592,-1.12 2.241,-1.9c0.65,-0.779 1.218,-1.673 1.706,-2.68c0.487,-1.007 0.925,-1.997 1.315,-2.972c0,-2.728 0.098,-5.327 0.293,-7.796c0.195,-2.468 0.292,-5.067 0.292,-7.795c0,-2.924 -0.162,-5.929 -0.487,-9.014c-0.325,-3.086 -0.552,-6.123 -0.682,-9.112c-0.065,-1.364 -0.179,-3.069 -0.341,-5.116c-0.163,-2.046 -0.536,-4.028 -1.121,-5.944c-0.585,-1.917 -1.494,-3.557 -2.729,-4.921c-1.234,-1.364 -2.923,-2.047 -5.067,-2.047c-0.52,0 -1.186,0.179 -1.998,0.536c-0.812,0.358 -1.624,0.812 -2.436,1.365c-0.812,0.552 -1.559,1.169 -2.241,1.851c-0.682,0.682 -1.121,1.348 -1.316,1.998c-0.26,0.779 -0.438,1.64 -0.536,2.582c-0.097,0.942 -0.162,1.9 -0.195,2.875c-0.032,0.974 -0.048,1.916 -0.048,2.826c0,0.909 -0.033,1.721 -0.098,2.436c-0.13,1.819 -0.357,4.499 -0.682,8.04c-0.325,3.54 -0.487,7.357 -0.487,11.45c0,2.663 0.13,5.327 0.39,7.99c0.26,2.664 0.763,5.084 1.51,7.26c0.747,2.177 1.754,4.044 3.021,5.604c1.267,1.559 2.907,2.566 4.921,3.02Z" style="fill:#64c191;fill-rule:nonzero;"/><path d="M550.932,299.061c-0.52,-0.065 -0.828,-0.292 -0.926,-0.682c-0.097,-0.39 -0.146,-0.844 -0.146,-1.364c0,-2.923 0.179,-5.782 0.536,-8.575c0.357,-2.794 0.536,-5.717 0.536,-8.771l0,-37.322c0,-1.884 -0.243,-3.963 -0.731,-6.237c-0.487,-2.274 -0.731,-4.418 -0.731,-6.432c0,-1.429 0.358,-2.663 1.072,-3.703c0,-0.519 0.699,-0.925 2.095,-1.218c1.397,-0.292 3.021,-0.503 4.873,-0.633c1.851,-0.13 3.67,-0.211 5.457,-0.244c1.786,-0.032 3.07,-0.048 3.849,-0.048c1.559,0 3.508,0.146 5.847,0.438c2.339,0.292 4.694,0.763 7.065,1.413c2.371,0.65 4.58,1.494 6.626,2.534c2.047,1.039 3.557,2.306 4.532,3.8c1.689,2.729 2.972,5.571 3.849,8.527c0.877,2.956 1.316,5.895 1.316,8.819c0,6.302 -1.949,12.278 -5.847,17.93c-1.3,1.949 -2.859,3.525 -4.678,4.727c-1.819,1.201 -3.784,2.16 -5.895,2.874c-2.112,0.715 -4.288,1.251 -6.529,1.608c-2.242,0.357 -4.434,0.634 -6.578,0.828c-0.065,0.065 -0.146,0.325 -0.244,0.78c-0.097,0.455 -0.178,0.975 -0.243,1.559c-0.065,0.585 -0.114,1.202 -0.147,1.852c-0.032,0.649 -0.048,1.202 -0.048,1.656c0,0.585 -0.049,1.738 -0.147,3.46c-0.097,1.721 -0.243,3.492 -0.438,5.311c-0.195,1.819 -0.39,3.443 -0.585,4.872c-0.195,1.429 -0.39,2.176 -0.584,2.241c-0.65,0.325 -1.43,0.488 -2.339,0.488c-0.91,0 -1.835,-0.082 -2.777,-0.244c-0.942,-0.162 -1.673,-0.244 -2.193,-0.244l-5.847,0Zm15.884,-32.937c0.065,0.39 0.179,0.731 0.341,1.023c0.163,0.293 0.471,0.439 0.926,0.439l2.387,-1.121l3.07,-1.413c0.325,-0.13 0.796,-0.406 1.413,-0.828c0.617,-0.423 0.991,-0.666 1.121,-0.731c0.519,-0.26 0.974,-0.861 1.364,-1.803c0.39,-0.942 0.731,-2.046 1.023,-3.313c0.292,-1.267 0.504,-2.647 0.634,-4.142c0.129,-1.494 0.194,-2.891 0.194,-4.19c0,-2.274 -0.194,-4.548 -0.584,-6.821c-0.39,-2.274 -1.007,-4.337 -1.852,-6.188c-0.844,-1.852 -1.965,-3.362 -3.362,-4.532c-1.396,-1.169 -3.069,-1.754 -5.018,-1.754c-0.715,0 -1.17,0.13 -1.365,0.39l0,2.144c0,3.118 -0.097,6.253 -0.292,9.404c-0.195,3.151 -0.292,6.285 -0.292,9.403l0,2.778c0,1.332 0.016,2.745 0.049,4.239c0.032,1.494 0.064,2.907 0.097,4.239c0.032,1.331 0.081,2.257 0.146,2.777Z" style="fill:#64c191;fill-rule:nonzero;"/><path d="M606.477,299.061c-0.519,-0.065 -0.828,-0.292 -0.925,-0.682c-0.098,-0.39 -0.146,-0.844 -0.146,-1.364c0,-2.923 0.178,-5.782 0.535,-8.575c0.358,-2.794 0.536,-5.717 0.536,-8.771l0,-37.322c0,-1.884 -0.243,-3.963 -0.73,-6.237c-0.488,-2.274 -0.731,-4.418 -0.731,-6.432c0,-1.429 0.357,-2.663 1.072,-3.703c0,-0.519 0.698,-0.925 2.095,-1.218c1.397,-0.292 3.021,-0.503 4.872,-0.633c1.852,-0.13 3.671,-0.211 5.457,-0.244c1.787,-0.032 3.07,-0.048 3.849,-0.048c1.56,0 3.509,0.146 5.847,0.438c2.339,0.292 4.694,0.763 7.065,1.413c2.372,0.65 4.58,1.494 6.627,2.534c2.046,1.039 3.557,2.306 4.531,3.8c1.689,2.729 2.972,5.571 3.849,8.527c0.877,2.956 1.316,5.895 1.316,8.819c0,6.302 -1.949,12.278 -5.847,17.93c-1.299,1.949 -2.859,3.525 -4.678,4.727c-1.819,1.201 -3.784,2.16 -5.895,2.874c-2.112,0.715 -4.288,1.251 -6.529,1.608c-2.241,0.357 -4.434,0.634 -6.578,0.828c-0.065,0.065 -0.146,0.325 -0.244,0.78c-0.097,0.455 -0.178,0.975 -0.243,1.559c-0.065,0.585 -0.114,1.202 -0.146,1.852c-0.033,0.649 -0.049,1.202 -0.049,1.656c0,0.585 -0.049,1.738 -0.146,3.46c-0.098,1.721 -0.244,3.492 -0.439,5.311c-0.195,1.819 -0.39,3.443 -0.584,4.872c-0.195,1.429 -0.39,2.176 -0.585,2.241c-0.65,0.325 -1.429,0.488 -2.339,0.488c-0.909,0 -1.835,-0.082 -2.777,-0.244c-0.942,-0.162 -1.673,-0.244 -2.193,-0.244l-5.847,0Zm15.884,-32.937c0.065,0.39 0.179,0.731 0.342,1.023c0.162,0.293 0.471,0.439 0.925,0.439l2.388,-1.121l3.069,-1.413c0.325,-0.13 0.796,-0.406 1.413,-0.828c0.618,-0.423 0.991,-0.666 1.121,-0.731c0.52,-0.26 0.974,-0.861 1.364,-1.803c0.39,-0.942 0.731,-2.046 1.023,-3.313c0.293,-1.267 0.504,-2.647 0.634,-4.142c0.13,-1.494 0.195,-2.891 0.195,-4.19c0,-2.274 -0.195,-4.548 -0.585,-6.821c-0.39,-2.274 -1.007,-4.337 -1.851,-6.188c-0.845,-1.852 -1.966,-3.362 -3.362,-4.532c-1.397,-1.169 -3.07,-1.754 -5.019,-1.754c-0.715,0 -1.169,0.13 -1.364,0.39l0,2.144c0,3.118 -0.098,6.253 -0.293,9.404c-0.194,3.151 -0.292,6.285 -0.292,9.403l0,2.778c0,1.332 0.016,2.745 0.049,4.239c0.032,1.494 0.065,2.907 0.097,4.239c0.033,1.331 0.081,2.257 0.146,2.777Z" style="fill:#64c191;fill-rule:nonzero;"/><path d="M663.29,299.159c-0.26,-0.65 -0.423,-1.413 -0.488,-2.29c-0.065,-0.877 -0.097,-1.543 -0.097,-1.998l0,-2.241c0,-3.898 -0.114,-7.715 -0.341,-11.45c-0.228,-3.736 -0.406,-7.553 -0.536,-11.45c-0.13,-6.107 -0.293,-12.165 -0.487,-18.174c-0.195,-6.01 -0.293,-12.068 -0.293,-18.175c0,-1.364 0.016,-2.712 0.049,-4.044c0.032,-1.331 0.049,-2.679 0.049,-4.044c0.065,-0.519 0.974,-0.893 2.728,-1.12c1.754,-0.228 3.768,-0.341 6.042,-0.341c2.209,0 4.336,0.065 6.383,0.194c2.046,0.13 3.492,0.26 4.336,0.39c0,0.325 0.033,0.926 0.098,1.803c0.065,0.877 0.13,1.446 0.195,1.705c0,2.599 -0.049,5.165 -0.147,7.699c-0.097,2.533 -0.146,5.1 -0.146,7.698l0,8.235c0,2.631 0.049,5.278 0.146,7.942c0.098,2.663 0.212,5.392 0.342,8.185c0.129,2.794 0.357,5.75 0.682,8.868l0,1.267c0,0.649 -0.017,1.413 -0.049,2.29c-0.033,0.877 -0.049,1.819 -0.049,2.826l0,2.777c0,1.169 0.033,2.144 0.098,2.923c0.065,0.78 0.146,1.495 0.243,2.144c0.098,0.65 0.179,1.316 0.244,1.998c0.065,0.682 0.097,1.543 0.097,2.582c0,1.105 -0.195,2.047 -0.584,2.826c-0.39,0.78 -1.17,1.17 -2.339,1.17l-14.325,0c-0.65,0.26 -1.072,0.39 -1.267,0.39c-0.325,0 -0.519,-0.195 -0.584,-0.585Z" style="fill:#64c191;fill-rule:nonzero;"/><path d="M696.422,300.621c-0.91,0 -1.624,-0.212 -2.144,-0.634c-0.52,-0.422 -0.942,-0.942 -1.267,-1.559c-0.325,-0.617 -0.536,-1.299 -0.633,-2.046c-0.098,-0.748 -0.146,-1.446 -0.146,-2.096l0,-0.682c0.454,-9.939 0.795,-19.7 1.023,-29.283c0.227,-9.582 0.341,-19.571 0.341,-29.965l0,-5.36c0,-1.754 -0.033,-3.54 -0.098,-5.359c0.13,-0.13 0.358,-0.293 0.683,-0.488c0.324,-0.194 0.649,-0.292 0.974,-0.292l4.288,0c0.13,-0.065 0.325,-0.13 0.584,-0.195c0.26,-0.065 0.455,-0.097 0.585,-0.097c0.065,0 0.163,0.016 0.292,0.048c0.13,0.033 0.195,0.114 0.195,0.244c0.91,1.559 1.868,3.118 2.875,4.678c1.007,1.559 1.9,3.118 2.68,4.677c0.455,0.91 1.234,2.485 2.339,4.726c1.104,2.242 2.387,4.775 3.849,7.601c1.462,2.826 3.021,5.766 4.677,8.819c1.657,3.054 3.249,5.847 4.775,8.381c1.527,2.533 2.891,4.629 4.093,6.285c1.202,1.657 2.128,2.485 2.777,2.485c0.195,0 0.358,-0.243 0.488,-0.731c0.13,-0.487 0.276,-1.088 0.438,-1.803c0.163,-0.714 0.292,-1.477 0.39,-2.29c0.097,-0.812 0.211,-1.542 0.341,-2.192l-0.097,-3.606c0,-3.313 0.081,-6.561 0.243,-9.744c0.163,-3.184 0.309,-6.4 0.439,-9.648c0,-0.714 -0.065,-1.397 -0.195,-2.046c-0.13,-0.65 -0.195,-1.332 -0.195,-2.047c0,-1.819 0.114,-3.573 0.341,-5.262c0.227,-1.689 0.341,-3.411 0.341,-5.165l0,-0.974l0.292,-0.195l5.165,0c0.455,0 0.747,0.227 0.877,0.682c0.13,0.455 0.195,0.845 0.195,1.17l0,18.904c0.39,2.924 0.585,5.847 0.585,8.771c0,4.677 -0.26,9.322 -0.78,13.935c-0.52,4.612 -0.812,9.257 -0.877,13.935c-0.325,0.844 -0.503,2.144 -0.536,3.898c-0.032,1.754 -0.097,3.589 -0.195,5.506c-0.097,1.916 -0.276,3.686 -0.536,5.311c-0.26,1.624 -0.779,2.728 -1.559,3.313c-0.325,0.26 -0.828,0.438 -1.51,0.536c-0.682,0.097 -1.348,0.146 -1.998,0.146l-1.657,-0.098c-1.559,-1.299 -2.858,-2.826 -3.898,-4.58c-1.039,-1.754 -2.143,-3.475 -3.313,-5.164c-1.039,-1.495 -2.127,-2.973 -3.264,-4.434c-1.137,-1.462 -2.225,-2.94 -3.265,-4.434c-1.039,-1.559 -2.014,-3.151 -2.923,-4.775c-0.91,-1.624 -1.884,-3.216 -2.924,-4.775c-0.974,-1.559 -2.127,-3.151 -3.459,-4.775c-1.332,-1.624 -2.453,-3.248 -3.362,-4.872c-0.195,-0.325 -0.504,-0.845 -0.926,-1.56c-0.422,-0.714 -0.796,-1.071 -1.12,-1.071c-0.26,0 -0.39,0.487 -0.39,1.461c0,1.235 0.016,2.42 0.048,3.557c0.033,1.137 0.049,2.225 0.049,3.265c0,2.143 -0.016,4.206 -0.049,6.188c-0.032,1.981 -0.081,3.979 -0.146,5.993c-0.065,2.014 -0.13,4.092 -0.195,6.236c-0.065,2.144 -0.097,4.418 -0.097,6.822c0,0.195 0.049,0.519 0.146,0.974c0.098,0.455 0.211,0.975 0.341,1.559c0.13,0.585 0.244,1.186 0.341,1.803c0.098,0.617 0.146,1.153 0.146,1.608c0,0.65 -0.129,1.007 -0.389,1.072c-0.195,0 -0.39,-0.098 -0.585,-0.292l-3.508,0Z" style="fill:#64c191;fill-rule:nonzero;"/><path d="M794.26,301.985c-0.39,-0.26 -0.829,-0.666 -1.316,-1.218c-0.487,-0.553 -1.007,-1.153 -1.559,-1.803c-0.552,-0.65 -1.121,-1.299 -1.706,-1.949c-0.584,-0.65 -1.136,-1.169 -1.656,-1.559c-0.13,0 -0.357,0.113 -0.682,0.341l-2.193,1.51c-0.357,0.26 -0.601,0.423 -0.731,0.488c-2.273,0.909 -4.222,1.607 -5.847,2.095c-1.624,0.487 -3.443,0.731 -5.457,0.731c-3.443,0 -6.48,-0.585 -9.111,-1.755c-2.631,-1.169 -4.921,-2.744 -6.87,-4.726c-1.949,-1.981 -3.573,-4.287 -4.873,-6.919c-1.299,-2.631 -2.354,-5.424 -3.167,-8.38c-0.812,-2.956 -1.38,-5.977 -1.705,-9.063c-0.325,-3.086 -0.487,-6.09 -0.487,-9.014c0,-3.313 0.341,-6.285 1.023,-8.916c0.682,-2.631 1.543,-5.473 2.582,-8.527c0.13,-0.585 0.374,-1.397 0.731,-2.436c0.358,-1.039 0.796,-1.819 1.316,-2.339l4.482,-4.775c1.04,-1.884 2.583,-3.378 4.629,-4.482c2.047,-1.105 4.077,-2.079 6.091,-2.924c0.13,0 0.373,-0.081 0.731,-0.243l2.436,-0.975c0.357,-0.162 0.601,-0.243 0.731,-0.243c2.338,-0.975 4.872,-1.462 7.601,-1.462c2.013,0 4.06,0.292 6.139,0.877c0.779,0.26 1.575,0.406 2.387,0.438c0.812,0.033 1.608,0.211 2.388,0.536c2.663,1.105 4.807,2.826 6.431,5.165c1.624,2.339 2.956,4.743 3.996,7.211l0,5.36c0,1.169 -0.358,2.29 -1.072,3.362c-0.715,1.072 -1.624,1.997 -2.729,2.777c-1.104,0.78 -2.339,1.413 -3.703,1.9c-1.364,0.488 -2.696,0.731 -3.995,0.731c-1.754,0 -3.281,-0.536 -4.58,-1.608c-1.3,-1.072 -1.949,-2.874 -1.949,-5.408c0,-0.585 0.049,-1.381 0.146,-2.388c0.097,-1.007 0.406,-1.867 0.926,-2.582c0.39,-0.585 0.796,-1.056 1.218,-1.413c0.422,-0.357 0.796,-0.666 1.12,-0.926c0.325,-0.26 0.601,-0.519 0.829,-0.779c0.227,-0.26 0.341,-0.553 0.341,-0.877c0,-0.65 -0.682,-1.754 -2.047,-3.314c-0.129,-0.129 -0.471,-0.389 -1.023,-0.779c-0.552,-0.39 -0.99,-0.585 -1.315,-0.585l-5.847,0c-0.65,0 -1.511,0.293 -2.583,0.877c-1.071,0.585 -1.802,1.17 -2.192,1.754c-0.78,1.105 -1.283,2.307 -1.511,3.606c-0.227,1.299 -0.503,2.566 -0.828,3.8c-0.779,3.314 -1.283,6.659 -1.51,10.037c-0.228,3.379 -0.341,6.822 -0.341,10.33c0,0.78 0.016,1.803 0.048,3.07c0.033,1.266 0.065,2.663 0.098,4.19c0.032,1.526 0.065,3.134 0.097,4.823c0.033,1.69 0.081,3.346 0.146,4.97c0,1.3 0.065,2.615 0.195,3.947c0.13,1.332 0.423,2.55 0.877,3.654c0.455,1.105 1.153,2.014 2.095,2.729c0.942,0.714 2.258,1.072 3.947,1.072c0.975,0 1.819,-0.228 2.534,-0.682c0.714,-0.455 1.315,-1.04 1.803,-1.754c0.487,-0.715 0.844,-1.543 1.071,-2.485c0.228,-0.942 0.342,-1.868 0.342,-2.778c0,-0.714 0.016,-1.673 0.048,-2.874c0.033,-1.202 0.081,-2.404 0.146,-3.606c0.065,-1.202 0.114,-2.306 0.147,-3.313c0.032,-1.007 0.048,-1.706 0.048,-2.095c0,-0.78 -0.065,-1.608 -0.195,-2.485c-0.13,-0.877 -0.649,-1.316 -1.559,-1.316c-0.649,0 -1.445,0.098 -2.387,0.293c-0.942,0.194 -1.835,0.292 -2.68,0.292c-0.715,0 -1.299,-0.114 -1.754,-0.341c-0.455,-0.228 -0.682,-0.764 -0.682,-1.608l0.292,-2.729l0.292,-0.292l1.852,0c4.418,0 8.819,-0.341 13.204,-1.023c4.385,-0.682 8.787,-1.023 13.204,-1.023c1.235,0 2.014,0.211 2.339,0.633c0.325,0.422 0.487,1.478 0.487,3.167c0,0.78 -0.097,1.169 -0.292,1.169c-0.195,0.065 -0.536,0.114 -1.023,0.147c-0.487,0.032 -1.056,0.048 -1.706,0.048l-3.897,0c-0.455,0.195 -0.764,0.569 -0.926,1.121c-0.163,0.552 -0.244,1.186 -0.244,1.9c0,1.3 0.146,2.713 0.439,4.239c0.292,1.527 0.438,2.648 0.438,3.362c0,0.52 -0.081,1.056 -0.243,1.608c-0.163,0.552 -0.244,1.023 -0.244,1.413c0,0.715 0.065,1.446 0.195,2.193c0.13,0.747 0.227,1.38 0.292,1.9c0.13,1.299 0.276,2.647 0.439,4.044c0.162,1.397 0.308,2.777 0.438,4.142c0.13,1.494 0.374,3.02 0.731,4.58c0.357,1.559 0.536,3.085 0.536,4.58c0,0.779 -0.227,1.299 -0.682,1.559c-0.455,0.26 -1.429,0.39 -2.924,0.39c-0.259,0 -0.617,-0.13 -1.071,-0.39Z" style="fill:#64c191;fill-rule:nonzero;"/></g></g></svg>