<?xml version="1.0" encoding="UTF-8" standalone="no"?><!DOCTYPE svg PUBLIC "-//W3C//DTD SVG 1.1//EN" "http://www.w3.org/Graphics/SVG/1.1/DTD/svg11.dtd"><svg width="100%" height="100%" viewBox="0 0 642 257" version="1.1" xmlns="http://www.w3.org/2000/svg" xmlns:xlink="http://www.w3.org/1999/xlink" xml:space="preserve" xmlns:serif="http://www.serif.com/" style="fill-rule:evenodd;clip-rule:evenodd;stroke-linejoin:round;stroke-miterlimit:2;"><g><g><path d="M50,0c0,0 -50,0 -50,50l0,156.021c0,0 0,50 50,50l541.921,0c0,0 50,0 50,-50l0,-156.021c0,0 0,-50 -50,-50l-541.921,0Z" style="fill:#9e8c5c;fill-rule:nonzero;"/></g><path d="M60.331,109.701c-1,0 -2.055,-0.027 -3.166,-0.083c-1.112,-0.056 -2.125,-0.222 -3.042,-0.5c-0.917,-0.278 -1.667,-0.681 -2.25,-1.208c-0.583,-0.528 -0.875,-1.264 -0.875,-2.209c0,-0.777 0.097,-1.569 0.292,-2.375c0.194,-0.805 0.319,-1.514 0.375,-2.125c0.277,-5.111 0.486,-10.208 0.625,-15.291c0.138,-5.084 0.208,-10.209 0.208,-15.375c0,-1.278 -0.07,-2.625 -0.208,-4.042c-0.139,-1.417 -0.209,-2.57 -0.209,-3.458c0,-0.945 -0.014,-2.139 -0.041,-3.584c-0.028,-1.444 -0.042,-2.944 -0.042,-4.5c0,-1.166 0.014,-2.319 0.042,-3.458c0.027,-1.139 0.083,-2.139 0.166,-3c0.084,-0.861 0.222,-1.556 0.417,-2.083c0.194,-0.528 0.43,-0.792 0.708,-0.792c0.945,-0.222 2,-0.333 3.167,-0.333c1.278,0 2.542,0.069 3.792,0.208c1.25,0.139 2.43,0.208 3.541,0.208c1.5,0 3,-0.028 4.5,-0.083c1.5,-0.056 2.972,-0.167 4.417,-0.333c1.667,-0.167 3.583,-0.473 5.75,-0.917c2.167,-0.445 4.222,-0.667 6.167,-0.667c1.666,0 2.958,0.264 3.875,0.792c0.916,0.528 1.375,1.403 1.375,2.625c0,0.778 -0.223,1.375 -0.667,1.792c-0.444,0.416 -1.014,0.722 -1.708,0.916c-0.695,0.195 -1.5,0.306 -2.417,0.334c-0.917,0.027 -1.82,0.041 -2.708,0.041c-0.778,0 -1.57,-0.069 -2.375,-0.208c-0.806,-0.139 -1.598,-0.208 -2.375,-0.208c-0.667,0 -1.5,0.027 -2.5,0.083c-1,0.055 -1.973,0.153 -2.917,0.292c-0.945,0.138 -1.778,0.291 -2.5,0.458c-0.722,0.167 -1.139,0.361 -1.25,0.583c-0.445,0.778 -0.736,1.792 -0.875,3.042c-0.139,1.25 -0.208,2.597 -0.208,4.042c0,1.777 0.069,3.43 0.208,4.958c0.139,1.528 0.208,2.68 0.208,3.458l-0.083,1.417c0,0.555 0.028,1.125 0.083,1.708c0.056,0.584 0.195,1.125 0.417,1.625c0.222,0.5 0.542,0.903 0.958,1.209c0.417,0.305 0.986,0.458 1.709,0.458c0.555,0 1.319,-0.028 2.291,-0.083c0.972,-0.056 2.028,-0.125 3.167,-0.209c1.139,-0.083 2.278,-0.153 3.417,-0.208c1.138,-0.056 2.208,-0.083 3.208,-0.083c0.5,0 1.042,0.055 1.625,0.166c0.583,0.111 1.125,0.292 1.625,0.542c0.5,0.25 0.917,0.597 1.25,1.042c0.333,0.444 0.5,1 0.5,1.666c0,0.445 -0.125,0.847 -0.375,1.209c-0.25,0.361 -0.542,0.625 -0.875,0.791l-3.667,-0.083c-0.611,0 -1.278,-0.014 -2,-0.042c-0.722,-0.028 -1.583,-0.041 -2.583,-0.041c-0.833,0 -1.583,0.013 -2.25,0.041c-0.667,0.028 -1.083,0.042 -1.25,0.042c-0.333,0 -0.861,0.028 -1.583,0.083c-0.723,0.056 -1.473,0.167 -2.25,0.334c-0.778,0.166 -1.459,0.402 -2.042,0.708c-0.583,0.305 -0.903,0.708 -0.958,1.208c-0.5,3.778 -0.75,7.528 -0.75,11.25c0,1.945 0.027,3.931 0.083,5.959c0.055,2.027 0.083,4.041 0.083,6.041l0.25,0.25c0.556,0.056 1.111,0.084 1.667,0.084c0.444,0.055 0.917,0.083 1.417,0.083l1.25,0c2.111,-0.111 4.277,-0.208 6.5,-0.292c2.222,-0.083 4.361,-0.208 6.416,-0.375c0.667,-0.055 1.403,-0.194 2.209,-0.416c0.805,-0.223 1.597,-0.334 2.375,-0.334c0.611,0 1.305,0.223 2.083,0.667c0.778,0.444 1.167,1.139 1.167,2.083c0,0.611 -0.334,1.125 -1,1.542c-0.667,0.417 -1.445,0.75 -2.334,1c-0.889,0.25 -1.736,0.417 -2.541,0.5c-0.806,0.083 -1.348,0.125 -1.625,0.125c-2.556,0.056 -5.181,0.097 -7.875,0.125c-2.695,0.028 -5.32,0.153 -7.875,0.375c-1.556,0.111 -3.098,0.278 -4.625,0.5c-1.528,0.222 -3.098,0.333 -4.709,0.333Z" style="fill:#fff;fill-rule:nonzero;"/><path d="M100.998,111.451c-0.333,-0.111 -0.639,-0.277 -0.917,-0.5c-0.277,-0.222 -0.416,-0.527 -0.416,-0.916c0.111,-3.445 0.264,-6.875 0.458,-10.292c0.194,-3.417 0.292,-6.875 0.292,-10.375c0,-4.278 -0.056,-8.528 -0.167,-12.75c-0.111,-4.222 -0.167,-8.5 -0.167,-12.833c0,-3.056 0.028,-6.084 0.084,-9.084c0.055,-3 0.139,-6.055 0.25,-9.166c0.055,-0.112 0.18,-0.25 0.375,-0.417c0.194,-0.167 0.375,-0.25 0.541,-0.25l11.167,-0.333c0.5,0 1.125,0.18 1.875,0.541c0.75,0.361 1.264,0.764 1.542,1.209l0,1c0,1.944 0.125,3.833 0.375,5.666c0.25,1.834 0.375,3.667 0.375,5.5c-0.056,0.278 -0.098,0.945 -0.125,2c-0.028,1.056 -0.056,2.195 -0.084,3.417c-0.027,1.222 -0.041,2.361 -0.041,3.417l0,3.583l-0.084,3.583l0,0.834c0,1.666 0.111,3.388 0.334,5.166c0.222,1.778 0.333,3.528 0.333,5.25l0,8c0,0.611 0.014,1.181 0.042,1.709c0.027,0.527 0.041,0.875 0.041,1.041c0,0.334 0.014,0.82 0.042,1.459c0.028,0.639 0.097,1.305 0.208,2c0.111,0.694 0.264,1.347 0.459,1.958c0.194,0.611 0.458,1.083 0.791,1.417c0.167,0.166 0.695,0.25 1.584,0.25c0.722,0 1.611,-0.042 2.666,-0.125c1.056,-0.084 2.181,-0.181 3.375,-0.292c1.195,-0.111 2.403,-0.208 3.625,-0.292c1.223,-0.083 2.361,-0.125 3.417,-0.125c1.278,0 2.319,0.084 3.125,0.25c0.806,0.167 1.236,0.473 1.292,0.917l0.083,4.667l-2.5,0.666c-5.222,0.111 -10.431,0.348 -15.625,0.709c-5.194,0.361 -10.403,0.847 -15.625,1.458c-0.5,0.222 -1.056,0.333 -1.667,0.333c-0.333,0 -0.777,-0.083 -1.333,-0.25Z" style="fill:#fff;fill-rule:nonzero;"/><path d="M143.415,109.118c-0.223,-0.556 -0.361,-1.208 -0.417,-1.958c-0.056,-0.75 -0.083,-1.32 -0.083,-1.709l0,-1.916c0,-3.334 -0.098,-6.598 -0.292,-9.792c-0.194,-3.195 -0.347,-6.458 -0.458,-9.792c-0.111,-5.222 -0.25,-10.403 -0.417,-15.541c-0.167,-5.139 -0.25,-10.32 -0.25,-15.542c0,-1.167 0.014,-2.32 0.042,-3.458c0.027,-1.139 0.041,-2.292 0.041,-3.459c0.056,-0.444 0.834,-0.764 2.334,-0.958c1.5,-0.195 3.222,-0.292 5.166,-0.292c1.889,0 3.709,0.056 5.459,0.167c1.75,0.111 2.986,0.222 3.708,0.333c0,0.278 0.028,0.792 0.083,1.542c0.056,0.75 0.111,1.236 0.167,1.458c0,2.222 -0.042,4.417 -0.125,6.584c-0.083,2.166 -0.125,4.361 -0.125,6.583l0,7.042c0,2.25 0.042,4.513 0.125,6.791c0.083,2.278 0.181,4.611 0.292,7c0.111,2.389 0.305,4.917 0.583,7.584l0,1.083c0,0.556 -0.014,1.208 -0.042,1.958c-0.027,0.75 -0.041,1.556 -0.041,2.417l0,2.375c0,1 0.027,1.833 0.083,2.5c0.056,0.667 0.125,1.278 0.208,1.833c0.084,0.556 0.153,1.125 0.209,1.709c0.055,0.583 0.083,1.319 0.083,2.208c0,0.944 -0.167,1.75 -0.5,2.417c-0.333,0.666 -1,1 -2,1l-12.25,0c-0.556,0.222 -0.917,0.333 -1.083,0.333c-0.278,0 -0.445,-0.167 -0.5,-0.5Z" style="fill:#fff;fill-rule:nonzero;"/><path d="M187.998,109.785c-5.222,-0.445 -9.389,-1.945 -12.5,-4.5c-3.111,-2.556 -5.556,-6.278 -7.333,-11.167c-0.5,-1.278 -0.889,-2.5 -1.167,-3.667c-0.278,-1.166 -0.486,-2.347 -0.625,-3.541c-0.139,-1.195 -0.222,-2.445 -0.25,-3.75c-0.028,-1.306 -0.042,-2.709 -0.042,-4.209c0,-3.666 0.459,-7.083 1.375,-10.25c0.917,-3.166 2.459,-6.278 4.625,-9.333c0.111,-0.111 0.32,-0.389 0.625,-0.833c0.306,-0.445 0.625,-0.931 0.959,-1.459c0.333,-0.528 0.639,-1.014 0.916,-1.458c0.278,-0.445 0.473,-0.722 0.584,-0.833c1.111,-1.445 2.472,-2.792 4.083,-4.042c1.611,-1.25 3.375,-2.347 5.292,-3.292c1.916,-0.944 3.93,-1.694 6.041,-2.25c2.111,-0.555 4.167,-0.833 6.167,-0.833c3.056,0 5.806,0.667 8.25,2c2.167,2.055 3.708,4.042 4.625,5.958c0.917,1.917 1.375,3.681 1.375,5.292c0,1.5 -0.292,2.847 -0.875,4.042c-0.583,1.194 -1.347,2.222 -2.292,3.083c-0.944,0.861 -2.014,1.528 -3.208,2c-1.194,0.472 -2.403,0.708 -3.625,0.708c-0.778,0 -1.611,-0.153 -2.5,-0.458c-0.889,-0.306 -1.722,-0.764 -2.5,-1.375c-0.778,-0.611 -1.431,-1.389 -1.958,-2.333c-0.528,-0.945 -0.792,-2.056 -0.792,-3.334c0,-1.111 0.236,-2.139 0.708,-3.083c0.473,-0.945 1.181,-1.639 2.125,-2.083c0.611,-0.223 1.264,-0.334 1.959,-0.334c0.694,0 1.291,-0.222 1.791,-0.666c-0.277,-0.445 -0.75,-0.737 -1.416,-0.875c-0.667,-0.139 -1.278,-0.209 -1.834,-0.209c-4.333,0 -7.389,1.209 -9.166,3.625c-1.778,2.417 -2.667,5.764 -2.667,10.042c0,2.278 -0.014,4.611 -0.042,7c-0.027,2.389 -0.055,4.694 -0.083,6.917c-0.028,2.222 -0.056,4.25 -0.083,6.083c-0.028,1.833 -0.042,3.333 -0.042,4.5c0,1.444 0.083,2.889 0.25,4.333c0.167,1.445 0.694,2.723 1.583,3.834c0.778,1.055 1.625,1.819 2.542,2.291c0.917,0.473 1.819,0.709 2.708,0.709c1.223,0 2.306,-0.306 3.25,-0.917c0.945,-0.611 1.75,-1.417 2.417,-2.417c0.667,-1 1.167,-2.166 1.5,-3.5c0.333,-1.333 0.5,-2.722 0.5,-4.166c0,-0.612 -0.014,-1.362 -0.042,-2.25c-0.027,-0.889 -0.083,-1.737 -0.166,-2.542c-0.084,-0.806 -0.223,-1.486 -0.417,-2.042c-0.194,-0.555 -0.431,-0.833 -0.708,-0.833c-1.111,0 -2.195,0.153 -3.25,0.458c-1.056,0.306 -2.139,0.459 -3.25,0.459c-0.611,0 -1.098,-0.125 -1.459,-0.375c-0.361,-0.25 -0.541,-0.987 -0.541,-2.209c0,-0.778 0.125,-1.403 0.375,-1.875c0.25,-0.472 0.764,-0.708 1.541,-0.708c2.778,-0.389 5.5,-0.792 8.167,-1.208c2.667,-0.417 5.389,-0.764 8.167,-1.042c1.333,-0.167 2.555,-0.347 3.666,-0.542c1.111,-0.194 2.306,-0.291 3.584,-0.291c0.555,0 0.972,0.055 1.25,0.166c0.277,0.111 0.472,0.306 0.583,0.584c0.111,0.277 0.167,0.666 0.167,1.166c0,0.5 0.055,1.167 0.166,2c0,0.5 -0.264,0.82 -0.791,0.959c-0.528,0.138 -1.111,0.236 -1.75,0.291c-0.639,0.056 -1.25,0.111 -1.834,0.167c-0.583,0.055 -0.93,0.222 -1.041,0.5l0,2.083c0,1.889 0.166,3.778 0.5,5.667c0.333,1.889 0.75,3.778 1.25,5.667c0.5,1.889 1.055,3.75 1.666,5.583c0.611,1.833 1.195,3.611 1.75,5.333l0,0.334c0,0.777 -0.43,1.444 -1.291,2c-0.861,0.555 -1.764,0.833 -2.709,0.833c-0.389,0 -0.666,-0.028 -0.833,-0.083c-0.167,-0.167 -0.486,-0.584 -0.958,-1.25c-0.473,-0.667 -0.973,-1.348 -1.5,-2.042c-0.528,-0.694 -1.014,-1.333 -1.459,-1.917c-0.444,-0.583 -0.75,-0.875 -0.916,-0.875c-2.389,2.389 -4.931,4.098 -7.625,5.125c-2.695,1.028 -5.625,1.542 -8.792,1.542l-1.333,0c-0.445,0 -0.917,-0.028 -1.417,-0.083Z" style="fill:#fff;fill-rule:nonzero;"/><path d="M226.248,110.285c-0.389,-0.334 -0.639,-0.931 -0.75,-1.792c-0.111,-0.861 -0.167,-1.819 -0.167,-2.875c0,-0.889 0.028,-1.778 0.084,-2.667c0.055,-0.889 0.083,-1.555 0.083,-2l-0.25,-42.333l0,-4.375c0,-0.861 -0.014,-1.695 -0.042,-2.5c-0.027,-0.806 -0.069,-1.486 -0.125,-2.042c-0.055,-0.444 -0.139,-0.875 -0.25,-1.291c-0.111,-0.417 -0.166,-0.82 -0.166,-1.209c0,-0.555 0.139,-0.944 0.416,-1.166c0.278,-0.223 0.611,-0.375 1,-0.459c0.389,-0.083 0.82,-0.111 1.292,-0.083c0.472,0.028 0.931,-0.014 1.375,-0.125c1.222,0.111 2.528,0.194 3.917,0.25c1.389,0.055 2.736,0.097 4.041,0.125c1.306,0.028 2.5,0.055 3.584,0.083c1.083,0.028 1.958,0.042 2.625,0.042l2.416,0c0.778,0 1.362,-0.028 1.75,-0.083l0.917,0.083c0.778,0 1.403,-0.014 1.875,-0.042c0.472,-0.028 0.945,-0.069 1.417,-0.125c0.472,-0.055 1.014,-0.139 1.625,-0.25c0.611,-0.111 1.416,-0.25 2.416,-0.416c0.389,-0.056 0.834,-0.181 1.334,-0.375c0.5,-0.195 0.972,-0.292 1.416,-0.292c0.778,0 1.292,0.444 1.542,1.333c0.25,0.889 0.375,1.889 0.375,3c0,0.556 -0.028,1.084 -0.083,1.584c-0.056,0.5 -0.111,0.888 -0.167,1.166c-0.389,0.167 -0.944,0.292 -1.667,0.375c-0.722,0.084 -1.513,0.153 -2.375,0.209c-0.861,0.055 -1.722,0.097 -2.583,0.125c-0.861,0.027 -1.597,0.069 -2.208,0.125l-7.667,0c-0.722,0.222 -1.264,0.666 -1.625,1.333c-0.361,0.667 -0.625,1.25 -0.792,1.75c-0.111,2.111 -0.194,4.236 -0.25,6.375c-0.055,2.139 -0.083,4.264 -0.083,6.375l0,3.917c0.111,0.277 0.445,0.444 1,0.5c0.556,0.055 1.278,0.083 2.167,0.083c0.889,0 1.903,-0.028 3.041,-0.083c1.139,-0.056 2.306,-0.125 3.5,-0.209c1.195,-0.083 2.375,-0.166 3.542,-0.25c1.167,-0.083 2.222,-0.125 3.167,-0.125c1.555,0 2.68,0.111 3.375,0.334c0.694,0.222 1.041,1.111 1.041,2.666c0,0.722 -0.055,1.403 -0.166,2.042c-0.111,0.639 -0.306,1.097 -0.584,1.375c-0.333,-0.056 -0.666,-0.083 -1,-0.083l-1.166,0c-1.389,0 -2.903,0.069 -4.542,0.208c-1.639,0.139 -3.264,0.305 -4.875,0.5c-1.611,0.194 -3.139,0.389 -4.583,0.583c-1.445,0.195 -2.667,0.32 -3.667,0.375l-0.333,0.084l0,3.916c0,1 0.014,2.347 0.041,4.042c0.028,1.694 0.056,3.375 0.084,5.042l0.125,6.333l0.166,2c0,0.222 0.473,0.389 1.417,0.5c0.945,0.111 2.125,0.194 3.542,0.25c1.416,0.056 2.972,0.097 4.666,0.125c1.695,0.028 3.32,0.069 4.875,0.125c1.556,0.056 2.903,0.111 4.042,0.167c1.139,0.055 1.903,0.139 2.292,0.25c0.444,0.166 0.736,0.597 0.875,1.291c0.139,0.695 0.208,1.403 0.208,2.125c0,0.445 -0.028,0.861 -0.083,1.25c-0.056,0.389 -0.139,0.667 -0.25,0.834c-0.056,0.055 -0.847,0.139 -2.375,0.25c-1.528,0.111 -3.445,0.25 -5.75,0.416c-2.306,0.167 -4.847,0.361 -7.625,0.584c-2.778,0.222 -5.431,0.444 -7.959,0.666c-2.527,0.223 -4.791,0.431 -6.791,0.625c-2,0.195 -3.361,0.375 -4.084,0.542l-0.166,0c-0.278,0 -0.556,-0.167 -0.834,-0.5c-0.277,-0.333 -0.472,-0.528 -0.583,-0.583Z" style="fill:#fff;fill-rule:nonzero;"/><path d="M303.831,109.035c-0.333,-0.111 -0.541,-0.528 -0.625,-1.25c-0.083,-0.723 -0.125,-1.473 -0.125,-2.25c0,-2.778 0.098,-5.528 0.292,-8.25c0.195,-2.723 0.292,-5.473 0.292,-8.25c0,-1.278 -0.07,-2.528 -0.209,-3.75c-0.138,-1.223 -0.236,-2.473 -0.291,-3.75c-0.111,-3.778 -0.153,-7.584 -0.125,-11.417c0.028,-3.833 -0.014,-7.667 -0.125,-11.5c0,-0.445 0.028,-1.028 0.083,-1.75c0.056,-0.722 0.083,-1.472 0.083,-2.25c0,-0.611 -0.027,-1.181 -0.083,-1.708c-0.055,-0.528 -0.167,-0.959 -0.333,-1.292c-0.722,-0.056 -1.778,-0.097 -3.167,-0.125c-1.389,-0.028 -2.764,-0.056 -4.125,-0.083c-1.361,-0.028 -2.583,-0.112 -3.667,-0.25c-1.083,-0.139 -1.652,-0.348 -1.708,-0.625c-0.055,-0.389 -0.125,-0.875 -0.208,-1.459c-0.084,-0.583 -0.125,-1.18 -0.125,-1.791c0,-0.5 0.055,-1 0.166,-1.5c0.112,-0.5 0.362,-0.917 0.75,-1.25l16.334,1c2.444,0 4.486,-0.028 6.125,-0.084c1.639,-0.055 3.125,-0.125 4.458,-0.208c1.333,-0.083 2.667,-0.167 4,-0.25c1.333,-0.083 2.889,-0.125 4.667,-0.125c1.111,0 2.097,0.042 2.958,0.125c0.861,0.083 1.347,0.264 1.458,0.542l0,4c0,0.444 -0.319,0.75 -0.958,0.916c-0.639,0.167 -1.43,0.25 -2.375,0.25c-0.889,0 -1.847,-0.041 -2.875,-0.125c-1.028,-0.083 -1.986,-0.125 -2.875,-0.125c-0.722,0 -1.361,0.056 -1.917,0.167c-0.555,0.111 -0.916,0.305 -1.083,0.583c-0.611,3 -0.986,6.056 -1.125,9.167c-0.139,3.111 -0.208,6.305 -0.208,9.583c0,3.722 0.069,7.459 0.208,11.209c0.139,3.75 0.292,7.375 0.458,10.875c0.112,2.222 0.264,4.444 0.459,6.666c0.194,2.223 0.319,4.445 0.375,6.667c0.055,0.278 0.097,0.556 0.125,0.833c0.028,0.278 0.041,0.556 0.041,0.834c0,1.111 -0.694,1.833 -2.083,2.166c-1.389,0.334 -3.444,0.5 -6.167,0.5c-1.5,0 -2.888,-0.055 -4.166,-0.166c-1.278,-0.111 -2.139,-0.278 -2.584,-0.5Z" style="fill:#fff;fill-rule:nonzero;"/><path d="M355.498,109.368c-0.278,-0.056 -0.639,-0.153 -1.083,-0.292c-0.445,-0.139 -0.917,-0.291 -1.417,-0.458c-0.5,-0.167 -0.958,-0.333 -1.375,-0.5c-0.417,-0.167 -0.708,-0.306 -0.875,-0.417c-2.111,-0.777 -3.889,-1.847 -5.333,-3.208c-1.445,-1.361 -2.611,-2.917 -3.5,-4.667c-0.889,-1.75 -1.57,-3.652 -2.042,-5.708c-0.472,-2.056 -0.805,-4.195 -1,-6.417c-0.194,-2.222 -0.319,-4.486 -0.375,-6.791c-0.055,-2.306 -0.111,-4.57 -0.167,-6.792c0,-1.389 0.056,-2.653 0.167,-3.792c0.111,-1.139 0.25,-2.305 0.417,-3.5c0.166,-1.194 0.305,-2.486 0.416,-3.875c0.112,-1.389 0.167,-3.055 0.167,-5l0,-0.416c0,-0.445 0.014,-1.306 0.042,-2.584c0.028,-1.278 0.055,-2.611 0.083,-4c0.028,-1.389 0.097,-2.639 0.208,-3.75c0.112,-1.111 0.25,-1.694 0.417,-1.75c2.389,-0.222 4.778,-0.319 7.167,-0.291c2.389,0.027 4.778,-0.07 7.166,-0.292l0.167,0.333c0.056,0 0.111,0.264 0.167,0.792c0.055,0.528 0.083,1.014 0.083,1.458l0,0.417c0.056,1.167 0.083,2.347 0.083,3.542l0,3.541c0,1.945 -0.013,3.875 -0.041,5.792c-0.028,1.917 -0.042,3.847 -0.042,5.792c0,1.444 0.028,2.888 0.083,4.333c0.056,1.444 0.084,2.889 0.084,4.333c0,1.778 -0.07,3.542 -0.209,5.292c-0.138,1.75 -0.208,3.514 -0.208,5.292c0,2.777 0.333,5.583 1,8.416c0.278,1 0.583,2.125 0.917,3.375c0.333,1.25 0.805,2.292 1.416,3.125c0.612,0.778 1.445,1.278 2.5,1.5c1.056,0.223 1.973,0.334 2.751,0.334c0.666,0 1.333,-0.111 2,-0.334c0.666,-0.222 1.305,-0.639 1.916,-1.25c1.222,-1.111 2.097,-2.083 2.625,-2.916c0.528,-0.834 0.917,-1.653 1.167,-2.459c0.25,-0.805 0.458,-1.68 0.625,-2.625c0.167,-0.944 0.5,-2.111 1,-3.5c-0.111,-1.611 -0.167,-3.208 -0.167,-4.791l0,-4.792c0,-2.667 0.014,-5.25 0.042,-7.75c0.028,-2.5 0.042,-5.056 0.042,-7.667c0,-2.666 -0.028,-5.347 -0.084,-8.041c-0.055,-2.695 -0.194,-5.459 -0.416,-8.292l0.166,-2.167l0.167,-0.25c0.722,-0.111 1.444,-0.25 2.167,-0.416c0.611,-0.112 1.291,-0.209 2.041,-0.292c0.75,-0.083 1.431,-0.125 2.042,-0.125c1.389,0 2.333,0.361 2.833,1.083c0.445,3.278 0.736,6.486 0.875,9.625c0.139,3.139 0.209,6.292 0.209,9.459c0,1.166 -0.014,2.208 -0.042,3.125c-0.028,0.916 -0.042,1.875 -0.042,2.875c0,1 -0.014,2.083 -0.041,3.25c-0.028,1.166 -0.042,2.583 -0.042,4.25l0,0.333c0,0.222 0.014,0.625 0.042,1.208l0.166,3.792c0.028,0.611 0.042,1.028 0.042,1.25c0,2 -0.111,4.139 -0.333,6.417c-0.223,2.277 -0.695,4.416 -1.417,6.416c-0.445,1.111 -1.07,2.167 -1.875,3.167c-0.806,1 -1.597,1.917 -2.375,2.75c-2,2.111 -4.417,3.639 -7.25,4.583c-2.833,0.945 -5.75,1.417 -8.75,1.417c-1.778,0 -3.5,-0.167 -5.167,-0.5Z" style="fill:#fff;fill-rule:nonzero;"/><path d="M426.748,109.035c-0.333,-0.111 -0.541,-0.528 -0.625,-1.25c-0.083,-0.723 -0.125,-1.473 -0.125,-2.25c0,-2.778 0.097,-5.528 0.292,-8.25c0.194,-2.723 0.292,-5.473 0.292,-8.25c0,-1.278 -0.07,-2.528 -0.209,-3.75c-0.139,-1.223 -0.236,-2.473 -0.291,-3.75c-0.112,-3.778 -0.153,-7.584 -0.125,-11.417c0.027,-3.833 -0.014,-7.667 -0.125,-11.5c0,-0.445 0.027,-1.028 0.083,-1.75c0.055,-0.722 0.083,-1.472 0.083,-2.25c0,-0.611 -0.028,-1.181 -0.083,-1.708c-0.056,-0.528 -0.167,-0.959 -0.333,-1.292c-0.723,-0.056 -1.778,-0.097 -3.167,-0.125c-1.389,-0.028 -2.764,-0.056 -4.125,-0.083c-1.361,-0.028 -2.583,-0.112 -3.667,-0.25c-1.083,-0.139 -1.653,-0.348 -1.708,-0.625c-0.056,-0.389 -0.125,-0.875 -0.208,-1.459c-0.084,-0.583 -0.125,-1.18 -0.125,-1.791c0,-0.5 0.055,-1 0.166,-1.5c0.111,-0.5 0.361,-0.917 0.75,-1.25l16.334,1c2.444,0 4.486,-0.028 6.125,-0.084c1.638,-0.055 3.125,-0.125 4.458,-0.208c1.333,-0.083 2.667,-0.167 4,-0.25c1.333,-0.083 2.889,-0.125 4.667,-0.125c1.111,0 2.097,0.042 2.958,0.125c0.861,0.083 1.347,0.264 1.458,0.542l0,4c0,0.444 -0.319,0.75 -0.958,0.916c-0.639,0.167 -1.431,0.25 -2.375,0.25c-0.889,0 -1.847,-0.041 -2.875,-0.125c-1.028,-0.083 -1.986,-0.125 -2.875,-0.125c-0.722,0 -1.361,0.056 -1.917,0.167c-0.555,0.111 -0.916,0.305 -1.083,0.583c-0.611,3 -0.986,6.056 -1.125,9.167c-0.139,3.111 -0.208,6.305 -0.208,9.583c0,3.722 0.069,7.459 0.208,11.209c0.139,3.75 0.292,7.375 0.458,10.875c0.111,2.222 0.264,4.444 0.459,6.666c0.194,2.223 0.319,4.445 0.375,6.667c0.055,0.278 0.097,0.556 0.125,0.833c0.027,0.278 0.041,0.556 0.041,0.834c0,1.111 -0.694,1.833 -2.083,2.166c-1.389,0.334 -3.445,0.5 -6.167,0.5c-1.5,0 -2.889,-0.055 -4.166,-0.166c-1.278,-0.111 -2.139,-0.278 -2.584,-0.5Z" style="fill:#fff;fill-rule:nonzero;"/><path d="M461.665,109.201c-0.278,-0.444 -0.486,-1.083 -0.625,-1.916c-0.139,-0.834 -0.208,-1.723 -0.208,-2.667c0,-1.333 0.069,-2.694 0.208,-4.083c0.139,-1.389 0.208,-2.5 0.208,-3.334l-0.083,-4.75c0,-7.555 0.153,-15.333 0.458,-23.333c0.306,-8 0.486,-15.667 0.542,-23c0,-0.222 0.083,-0.361 0.25,-0.417l1.167,0c1.611,0 3.111,-0.041 4.5,-0.125c1.388,-0.083 2.972,-0.319 4.75,-0.708c0.388,0 0.944,0.042 1.666,0.125c0.722,0.083 1.139,0.347 1.25,0.792c0.278,1.222 0.417,2.305 0.417,3.25c0,1.166 -0.097,2.333 -0.292,3.5c-0.194,1.166 -0.291,2.305 -0.291,3.416c-0.112,3.389 -0.195,6.945 -0.25,10.667c-0.056,3.722 -0.125,7.458 -0.209,11.208c-0.083,3.75 -0.139,7.445 -0.166,11.084c-0.028,3.639 -0.042,7.097 -0.042,10.375c0,1.444 0.055,2.861 0.167,4.25c0.111,1.389 0.166,2.75 0.166,4.083l0,0.75c-0.778,0.444 -1.986,0.764 -3.625,0.958c-1.639,0.195 -3.264,0.292 -4.875,0.292c-1.055,0 -2.041,-0.042 -2.958,-0.125c-0.917,-0.083 -1.625,-0.181 -2.125,-0.292Z" style="fill:#fff;fill-rule:nonzero;"/><path d="M489.165,109.035c-0.445,-0.056 -0.708,-0.25 -0.792,-0.584c-0.083,-0.333 -0.125,-0.722 -0.125,-1.166c0,-2.5 0.153,-4.945 0.459,-7.334c0.305,-2.389 0.458,-4.889 0.458,-7.5l0,-31.916c0,-1.612 -0.208,-3.389 -0.625,-5.334c-0.417,-1.944 -0.625,-3.778 -0.625,-5.5c0,-1.222 0.305,-2.278 0.917,-3.166c0,-0.445 0.597,-0.792 1.791,-1.042c1.195,-0.25 2.584,-0.431 4.167,-0.542c1.583,-0.111 3.139,-0.18 4.667,-0.208c1.527,-0.028 2.625,-0.042 3.291,-0.042c1.334,0 3,0.125 5,0.375c2,0.25 4.014,0.653 6.042,1.209c2.028,0.555 3.917,1.277 5.667,2.166c1.75,0.889 3.041,1.972 3.875,3.25c1.444,2.334 2.541,4.764 3.291,7.292c0.75,2.528 1.125,5.042 1.125,7.542c0,5.388 -1.666,10.5 -5,15.333c-1.111,1.667 -2.444,3.014 -4,4.042c-1.555,1.027 -3.236,1.847 -5.041,2.458c-1.806,0.611 -3.667,1.069 -5.584,1.375c-1.916,0.305 -3.791,0.542 -5.625,0.708c-0.055,0.056 -0.125,0.278 -0.208,0.667c-0.083,0.389 -0.153,0.833 -0.208,1.333c-0.056,0.5 -0.098,1.028 -0.125,1.584c-0.028,0.555 -0.042,1.027 -0.042,1.416c0,0.5 -0.042,1.486 -0.125,2.959c-0.083,1.472 -0.208,2.986 -0.375,4.541c-0.167,1.556 -0.333,2.945 -0.5,4.167c-0.167,1.222 -0.333,1.861 -0.5,1.917c-0.556,0.277 -1.222,0.416 -2,0.416c-0.778,0 -1.57,-0.069 -2.375,-0.208c-0.806,-0.139 -1.431,-0.208 -1.875,-0.208l-5,0Zm13.583,-28.167c0.056,0.333 0.153,0.625 0.292,0.875c0.139,0.25 0.403,0.375 0.792,0.375l2.041,-0.958l2.625,-1.209c0.278,-0.111 0.681,-0.347 1.209,-0.708c0.527,-0.361 0.847,-0.57 0.958,-0.625c0.444,-0.222 0.833,-0.736 1.167,-1.542c0.333,-0.805 0.625,-1.75 0.875,-2.833c0.25,-1.083 0.43,-2.264 0.541,-3.542c0.111,-1.278 0.167,-2.472 0.167,-3.583c0,-1.945 -0.167,-3.889 -0.5,-5.833c-0.333,-1.945 -0.861,-3.709 -1.583,-5.292c-0.723,-1.583 -1.681,-2.875 -2.875,-3.875c-1.195,-1 -2.625,-1.5 -4.292,-1.5c-0.611,0 -1,0.111 -1.167,0.333l0,1.834c0,2.666 -0.083,5.347 -0.25,8.041c-0.166,2.695 -0.25,5.375 -0.25,8.042l0,2.375c0,1.139 0.014,2.347 0.042,3.625c0.028,1.278 0.055,2.486 0.083,3.625c0.028,1.139 0.07,1.93 0.125,2.375Z" style="fill:#fff;fill-rule:nonzero;"/><path d="M550.415,109.701c-1.611,-0.222 -3.056,-0.652 -4.333,-1.291c-1.278,-0.639 -2.459,-1.417 -3.542,-2.334c-1.083,-0.916 -2.069,-1.93 -2.958,-3.041c-0.889,-1.111 -1.723,-2.25 -2.5,-3.417c-0.389,-0.611 -0.82,-1.153 -1.292,-1.625c-0.472,-0.472 -0.819,-1.069 -1.042,-1.792c-1.111,-3.5 -1.944,-6.916 -2.5,-10.25c-0.555,-3.333 -0.833,-6.805 -0.833,-10.416c0,-1.112 0.111,-2.514 0.333,-4.209c0.223,-1.694 0.542,-3.5 0.959,-5.416c0.416,-1.917 0.972,-3.875 1.666,-5.875c0.695,-2 1.5,-3.903 2.417,-5.709c0.917,-1.805 1.986,-3.43 3.208,-4.875c1.223,-1.444 2.584,-2.555 4.084,-3.333c3.222,-1.722 6.666,-2.583 10.333,-2.583c3.667,0 7.194,0.791 10.583,2.375c3.389,1.583 6.334,3.708 8.834,6.375c0.222,0.333 0.583,0.75 1.083,1.25c0.5,0.5 1.014,1.027 1.542,1.583c0.527,0.555 0.986,1.111 1.375,1.667c0.389,0.555 0.583,1 0.583,1.333l0,0.833c0.278,1.111 0.556,2.07 0.833,2.875c0.278,0.806 0.542,1.667 0.792,2.584c0.25,0.916 0.444,2.013 0.583,3.291c0.139,1.278 0.209,3 0.209,5.167c0.111,0.944 0.25,1.958 0.416,3.042c0.167,1.083 0.25,2.097 0.25,3.041l0,0.75c-0.166,1.778 -0.305,3.32 -0.416,4.625c-0.111,1.306 -0.306,2.542 -0.584,3.709c-0.277,1.166 -0.68,2.361 -1.208,3.583c-0.528,1.222 -1.264,2.611 -2.208,4.167c-1.167,2 -2.57,3.861 -4.209,5.583c-1.639,1.722 -3.43,3.208 -5.375,4.458c-1.944,1.25 -4.069,2.236 -6.375,2.959c-2.305,0.722 -4.708,1.083 -7.208,1.083l-1.708,0c-0.584,0 -1.181,-0.056 -1.792,-0.167Zm6.417,-7.916c0.277,0.111 0.541,0.166 0.791,0.166l0.792,0c0.944,0 1.778,-0.208 2.5,-0.625c0.722,-0.416 1.361,-0.958 1.917,-1.625c0.555,-0.666 1.041,-1.43 1.458,-2.291c0.417,-0.861 0.792,-1.709 1.125,-2.542c0,-2.333 0.083,-4.556 0.25,-6.667c0.167,-2.111 0.25,-4.333 0.25,-6.666c0,-2.5 -0.139,-5.07 -0.417,-7.709c-0.277,-2.639 -0.472,-5.236 -0.583,-7.791c-0.056,-1.167 -0.153,-2.625 -0.292,-4.375c-0.139,-1.75 -0.458,-3.445 -0.958,-5.084c-0.5,-1.639 -1.278,-3.041 -2.333,-4.208c-1.056,-1.167 -2.5,-1.75 -4.334,-1.75c-0.444,0 -1.014,0.153 -1.708,0.458c-0.694,0.306 -1.389,0.695 -2.083,1.167c-0.695,0.472 -1.334,1 -1.917,1.583c-0.583,0.584 -0.958,1.153 -1.125,1.709c-0.222,0.666 -0.375,1.402 -0.458,2.208c-0.084,0.805 -0.139,1.625 -0.167,2.458c-0.028,0.834 -0.042,1.639 -0.042,2.417c0,0.778 -0.027,1.472 -0.083,2.083c-0.111,1.556 -0.306,3.847 -0.583,6.875c-0.278,3.028 -0.417,6.292 -0.417,9.792c0,2.278 0.111,4.555 0.333,6.833c0.223,2.278 0.653,4.348 1.292,6.209c0.639,1.861 1.5,3.458 2.583,4.791c1.084,1.334 2.486,2.195 4.209,2.584Z" style="fill:#fff;fill-rule:nonzero;"/><path d="M152.665,209.535c-0.611,-0.334 -0.973,-0.931 -1.084,-1.792c-0.111,-0.861 -0.166,-1.764 -0.166,-2.708l0,-8c0,-1.834 -0.084,-3.667 -0.25,-5.5c-0.167,-1.834 -0.278,-3.695 -0.334,-5.584c-0.055,-3 -0.097,-6 -0.125,-9c-0.027,-3 -0.041,-6 -0.041,-9c0,-2.166 0.014,-4.319 0.041,-6.458c0.028,-2.139 0.042,-4.264 0.042,-6.375c0,-0.944 -0.042,-1.889 -0.125,-2.833c-0.083,-0.945 -0.125,-1.889 -0.125,-2.834c0,-0.555 0.028,-1.097 0.083,-1.625c0.056,-0.527 0.139,-1.069 0.25,-1.625c0.056,-0.333 0.361,-0.597 0.917,-0.791c0.556,-0.195 1.194,-0.348 1.917,-0.459c0.722,-0.111 1.402,-0.208 2.041,-0.291c0.639,-0.084 1.098,-0.153 1.375,-0.209c2.334,-0.166 4.5,-0.25 6.5,-0.25c1.445,0 3.264,0.098 5.459,0.292c2.194,0.194 4.444,0.583 6.75,1.167c2.305,0.583 4.527,1.402 6.666,2.458c2.139,1.056 3.875,2.444 5.209,4.167c1.444,1.889 2.486,4.041 3.125,6.458c0.639,2.417 0.958,4.986 0.958,7.708c0,2.223 -0.181,4.5 -0.542,6.834c-0.361,2.333 -0.861,4.625 -1.5,6.875c-0.639,2.25 -1.375,4.389 -2.208,6.416c-0.833,2.028 -1.722,3.848 -2.667,5.459c-1.166,2 -2.666,3.861 -4.5,5.583c-1.833,1.722 -3.833,3.292 -6,4.708c-2.166,1.417 -4.402,2.681 -6.708,3.792c-2.306,1.111 -4.514,2.083 -6.625,2.917c-0.222,0.111 -0.569,0.208 -1.042,0.291c-0.472,0.084 -1,0.167 -1.583,0.25c-0.583,0.084 -1.208,0.153 -1.875,0.209c-0.667,0.055 -1.278,0.083 -1.833,0.083c-1.111,0 -1.778,-0.111 -2,-0.333Zm10.5,-11.584c0.166,0.167 0.361,0.25 0.583,0.25c0.722,0 1.667,-0.639 2.833,-1.916c1.167,-1.278 2.32,-2.723 3.459,-4.334c1.139,-1.611 2.125,-3.18 2.958,-4.708c0.833,-1.528 1.333,-2.514 1.5,-2.958c0.167,-0.611 0.347,-1.445 0.542,-2.5c0.194,-1.056 0.361,-2.236 0.5,-3.542c0.139,-1.306 0.25,-2.694 0.333,-4.167c0.083,-1.472 0.125,-2.958 0.125,-4.458c0,-2.167 -0.097,-4.056 -0.292,-5.667c-0.194,-1.611 -0.541,-3.014 -1.041,-4.208c-0.5,-1.194 -1.153,-2.236 -1.959,-3.125c-0.805,-0.889 -1.819,-1.667 -3.041,-2.333c-1.445,-0.334 -2.764,-0.653 -3.959,-0.959c-1.194,-0.305 -2.541,-0.43 -4.041,-0.375l-0.334,1.5c-0.111,0.445 -0.194,1.278 -0.25,2.5c-0.055,1.223 -0.097,2.528 -0.125,3.917c-0.027,1.389 -0.041,2.653 -0.041,3.792l0,1.958c0,5.222 0.208,10.375 0.625,15.458c0.416,5.084 0.764,10.209 1.041,15.375c0,0.111 0.084,0.223 0.25,0.334c0.167,0.111 0.278,0.166 0.334,0.166Z" style="fill:#fff;fill-rule:nonzero;"/><path d="M199.748,209.701c-0.278,-0.166 -0.486,-0.958 -0.625,-2.375c-0.139,-1.416 -0.25,-2.972 -0.333,-4.666c-0.084,-1.695 -0.125,-3.292 -0.125,-4.792l0,-2.75c0,-6.056 0.18,-12.069 0.541,-18.042c0.361,-5.972 0.542,-11.986 0.542,-18.041l0,-4.667c0,-1.444 0.042,-2.903 0.125,-4.375c0.083,-1.472 0.264,-2.931 0.542,-4.375c0.277,-0.389 0.847,-0.625 1.708,-0.708c0.861,-0.084 1.597,-0.125 2.208,-0.125c4.334,0 8.639,0.097 12.917,0.291c4.278,0.195 8.5,0.292 12.667,0.292c2.722,0 5.416,-0.167 8.083,-0.5c0.5,0 0.833,0.278 1,0.833c0.167,0.556 0.25,1.306 0.25,2.25c0,0.945 -0.069,1.848 -0.208,2.709c-0.139,0.861 -0.264,1.486 -0.375,1.875c-0.111,0 -0.403,0.014 -0.875,0.041c-0.472,0.028 -0.792,0.07 -0.959,0.125c-0.166,0 -0.597,-0.027 -1.291,-0.083l-4.625,-0.333c-0.722,-0.056 -1.167,-0.084 -1.334,-0.084c-0.055,0 -0.305,0.014 -0.75,0.042c-0.444,0.028 -0.916,0.042 -1.416,0.042l-1.334,-0.084l-3.583,0c-1.056,0 -1.778,0.084 -2.167,0.25l-1.083,0.75c-0.056,0.111 -0.125,0.556 -0.208,1.334c-0.084,0.777 -0.153,1.389 -0.209,1.833c-0.277,1.722 -0.444,3.444 -0.5,5.167c-0.055,1.722 -0.083,3.472 -0.083,5.25l0,3.25c0,1.055 0.028,2.139 0.083,3.25c0.167,0.389 0.431,0.597 0.792,0.625c0.361,0.027 0.736,0.069 1.125,0.125c1.667,0 3.333,-0.014 5,-0.042c1.667,-0.028 3.361,-0.042 5.083,-0.042c3,0 5.973,0.084 8.917,0.25c0.167,0.111 0.333,0.611 0.5,1.5c0.167,0.889 0.25,1.778 0.25,2.667c0,0.5 -0.042,0.931 -0.125,1.292c-0.083,0.361 -0.208,0.597 -0.375,0.708c-1,0.111 -2,0.194 -3,0.25c-1,0.056 -1.972,0.083 -2.917,0.083c-2.277,0 -4.527,-0.069 -6.75,-0.208c-2.222,-0.139 -4.472,-0.208 -6.75,-0.208c-0.611,0 -1.027,0.097 -1.25,0.291c-0.222,0.195 -0.389,0.514 -0.5,0.959c-0.166,2 -0.319,4.014 -0.458,6.041c-0.139,2.028 -0.236,3.903 -0.292,5.625c-0.055,1.723 -0.097,3.223 -0.125,4.5c-0.027,1.278 -0.041,2.139 -0.041,2.584c0,0.666 0.222,1.139 0.666,1.416c0.445,0.278 1,0.459 1.667,0.542c0.667,0.083 1.403,0.111 2.208,0.083c0.806,-0.027 1.57,0.014 2.292,0.125c0.444,0 1.222,-0.027 2.333,-0.083c1.112,-0.056 2.348,-0.125 3.709,-0.208c1.361,-0.084 2.736,-0.167 4.125,-0.25c1.389,-0.084 2.639,-0.125 3.75,-0.125c1.666,0 2.639,0.139 2.916,0.416c0.112,0.278 0.195,0.834 0.25,1.667c0.056,0.833 0.084,1.722 0.084,2.667c0,0.777 -0.028,1.444 -0.084,2c-0.055,0.555 -0.194,0.861 -0.416,0.916c-1.945,-0.166 -3.792,-0.277 -5.542,-0.333c-1.75,-0.056 -3.514,-0.083 -5.292,-0.083c-1.944,0 -3.958,0.041 -6.041,0.125c-2.084,0.083 -4.195,0.194 -6.334,0.333c-2.139,0.139 -4.277,0.25 -6.416,0.333c-2.139,0.084 -4.181,0.125 -6.125,0.125c-1.778,0 -3.584,-0.083 -5.417,-0.25Z" style="fill:#fff;fill-rule:nonzero;"/><path d="M267.665,209.368c-0.445,-0.111 -0.722,-0.486 -0.834,-1.125c-0.111,-0.639 -0.166,-1.153 -0.166,-1.542c0,-1.277 0.083,-2.527 0.25,-3.75c0.166,-1.222 0.25,-2.472 0.25,-3.75c0,-0.5 0.014,-1.639 0.041,-3.416c0.028,-1.778 0.07,-3.959 0.125,-6.542c0.056,-2.583 0.112,-5.458 0.167,-8.625c0.056,-3.167 0.125,-6.361 0.208,-9.583c0.084,-3.223 0.181,-6.361 0.292,-9.417c0.111,-3.056 0.208,-5.764 0.292,-8.125c0.083,-2.361 0.194,-4.25 0.333,-5.667c0.139,-1.416 0.264,-2.125 0.375,-2.125l0.417,-0.25c0.444,0 1.236,-0.027 2.375,-0.083c1.139,-0.056 2.319,-0.111 3.541,-0.167c1.223,-0.055 2.362,-0.097 3.417,-0.125c1.056,-0.027 1.75,-0.041 2.083,-0.041c0.612,0 1.167,0.041 1.667,0.125c0.5,0.083 0.75,0.264 0.75,0.541l0,22.25c0,0.334 0.111,0.5 0.333,0.5c0.334,0 0.834,-0.402 1.5,-1.208c0.667,-0.806 1.348,-1.764 2.042,-2.875c0.695,-1.111 1.375,-2.236 2.042,-3.375c0.666,-1.139 1.194,-2.042 1.583,-2.708c0.5,-0.889 1.07,-1.973 1.708,-3.25c0.639,-1.278 1.306,-2.57 2,-3.875c0.695,-1.306 1.431,-2.528 2.209,-3.667c0.778,-1.139 1.583,-2.014 2.416,-2.625l1.417,-0.083c0.945,0 1.833,0.097 2.667,0.291c0.833,0.195 1.25,0.625 1.25,1.292c0,0.333 -0.139,0.611 -0.417,0.833c-0.278,0.223 -0.417,0.445 -0.417,0.667c-2.166,3.222 -4.319,6.486 -6.458,9.792c-2.139,3.305 -4.18,6.652 -6.125,10.041c0,0.056 -0.014,0.111 -0.042,0.167c-0.027,0.056 -0.041,0.111 -0.041,0.167c0,0.889 0.43,2.25 1.291,4.083c0.862,1.833 1.848,3.778 2.959,5.833c1.111,2.056 2.194,3.986 3.25,5.792c1.055,1.806 1.778,3.125 2.166,3.958c0.612,1.278 1.153,2.584 1.625,3.917c0.473,1.333 1.014,2.583 1.625,3.75c0.667,1.278 1.348,2.583 2.042,3.917c0.695,1.333 1.333,2.597 1.917,3.791c0.583,1.195 1.069,2.278 1.458,3.25c0.389,0.973 0.583,1.764 0.583,2.375c0,0.167 -0.18,0.306 -0.541,0.417c-0.361,0.111 -0.792,0.181 -1.292,0.208c-0.5,0.028 -1.042,0.056 -1.625,0.084c-0.583,0.027 -1.097,0.041 -1.542,0.041c-1.611,0 -3.25,-0.027 -4.916,-0.083c-1.667,-0.056 -3.334,-0.083 -5,-0.083c-0.334,-0.556 -0.667,-1.236 -1,-2.042c-0.334,-0.806 -0.667,-1.639 -1,-2.5c-0.334,-0.861 -0.639,-1.694 -0.917,-2.5c-0.278,-0.806 -0.528,-1.486 -0.75,-2.042c-0.778,-2 -1.611,-4 -2.5,-6c-0.889,-2 -1.722,-3.972 -2.5,-5.916c-0.167,-0.334 -0.389,-0.875 -0.667,-1.625c-0.277,-0.75 -0.583,-1.514 -0.916,-2.292c-0.334,-0.778 -0.667,-1.458 -1,-2.042c-0.334,-0.583 -0.639,-0.875 -0.917,-0.875c-0.389,0 -0.653,0.334 -0.792,1c-0.138,0.667 -0.208,2.167 -0.208,4.5c0,0.667 0.028,1.653 0.083,2.959c0.056,1.305 0.125,2.75 0.209,4.333c0.083,1.583 0.153,3.181 0.208,4.792c0.056,1.611 0.083,3.055 0.083,4.333c0,1.556 -0.125,2.708 -0.375,3.458c-0.25,0.75 -0.694,1.264 -1.333,1.542c-0.639,0.278 -1.486,0.431 -2.542,0.458c-1.055,0.028 -2.388,0.098 -4,0.209c-0.777,0.055 -1.541,0.166 -2.291,0.333c-0.75,0.167 -1.514,0.25 -2.292,0.25c-0.667,0 -1.278,-0.083 -1.833,-0.25Z" style="fill:#fff;fill-rule:nonzero;"/><path d="M316.248,209.701c-0.278,-0.166 -0.486,-0.958 -0.625,-2.375c-0.139,-1.416 -0.25,-2.972 -0.333,-4.666c-0.084,-1.695 -0.125,-3.292 -0.125,-4.792l0,-2.75c0,-6.056 0.18,-12.069 0.541,-18.042c0.362,-5.972 0.542,-11.986 0.542,-18.041l0,-4.667c0,-1.444 0.042,-2.903 0.125,-4.375c0.083,-1.472 0.264,-2.931 0.542,-4.375c0.278,-0.389 0.847,-0.625 1.708,-0.708c0.861,-0.084 1.597,-0.125 2.208,-0.125c4.334,0 8.639,0.097 12.917,0.291c4.278,0.195 8.5,0.292 12.667,0.292c2.722,0 5.416,-0.167 8.083,-0.5c0.5,0 0.833,0.278 1,0.833c0.167,0.556 0.25,1.306 0.25,2.25c0,0.945 -0.069,1.848 -0.208,2.709c-0.139,0.861 -0.264,1.486 -0.375,1.875c-0.111,0 -0.403,0.014 -0.875,0.041c-0.472,0.028 -0.792,0.07 -0.959,0.125c-0.166,0 -0.597,-0.027 -1.291,-0.083l-4.625,-0.333c-0.722,-0.056 -1.167,-0.084 -1.334,-0.084c-0.055,0 -0.305,0.014 -0.75,0.042c-0.444,0.028 -0.916,0.042 -1.416,0.042l-1.334,-0.084l-3.583,0c-1.055,0 -1.778,0.084 -2.167,0.25l-1.083,0.75c-0.055,0.111 -0.125,0.556 -0.208,1.334c-0.084,0.777 -0.153,1.389 -0.209,1.833c-0.277,1.722 -0.444,3.444 -0.5,5.167c-0.055,1.722 -0.083,3.472 -0.083,5.25l0,3.25c0,1.055 0.028,2.139 0.083,3.25c0.167,0.389 0.431,0.597 0.792,0.625c0.361,0.027 0.736,0.069 1.125,0.125c1.667,0 3.333,-0.014 5,-0.042c1.667,-0.028 3.361,-0.042 5.083,-0.042c3,0 5.973,0.084 8.917,0.25c0.167,0.111 0.333,0.611 0.5,1.5c0.167,0.889 0.25,1.778 0.25,2.667c0,0.5 -0.042,0.931 -0.125,1.292c-0.083,0.361 -0.208,0.597 -0.375,0.708c-1,0.111 -2,0.194 -3,0.25c-1,0.056 -1.972,0.083 -2.917,0.083c-2.277,0 -4.527,-0.069 -6.75,-0.208c-2.222,-0.139 -4.472,-0.208 -6.75,-0.208c-0.611,0 -1.027,0.097 -1.25,0.291c-0.222,0.195 -0.388,0.514 -0.5,0.959c-0.166,2 -0.319,4.014 -0.458,6.041c-0.139,2.028 -0.236,3.903 -0.292,5.625c-0.055,1.723 -0.097,3.223 -0.125,4.5c-0.027,1.278 -0.041,2.139 -0.041,2.584c0,0.666 0.222,1.139 0.666,1.416c0.445,0.278 1,0.459 1.667,0.542c0.667,0.083 1.403,0.111 2.208,0.083c0.806,-0.027 1.57,0.014 2.292,0.125c0.445,0 1.222,-0.027 2.333,-0.083c1.112,-0.056 2.348,-0.125 3.709,-0.208c1.361,-0.084 2.736,-0.167 4.125,-0.25c1.389,-0.084 2.639,-0.125 3.75,-0.125c1.666,0 2.639,0.139 2.916,0.416c0.112,0.278 0.195,0.834 0.25,1.667c0.056,0.833 0.084,1.722 0.084,2.667c0,0.777 -0.028,1.444 -0.084,2c-0.055,0.555 -0.194,0.861 -0.416,0.916c-1.945,-0.166 -3.792,-0.277 -5.542,-0.333c-1.75,-0.056 -3.514,-0.083 -5.292,-0.083c-1.944,0 -3.958,0.041 -6.041,0.125c-2.084,0.083 -4.195,0.194 -6.334,0.333c-2.138,0.139 -4.277,0.25 -6.416,0.333c-2.139,0.084 -4.181,0.125 -6.125,0.125c-1.778,0 -3.584,-0.083 -5.417,-0.25Z" style="fill:#fff;fill-rule:nonzero;"/><path d="M368.248,209.535c-0.389,-0.111 -0.722,-0.181 -1,-0.209c-0.278,-0.027 -0.5,-0.083 -0.666,-0.166c-0.167,-0.084 -0.292,-0.25 -0.375,-0.5c-0.084,-0.25 -0.125,-0.653 -0.125,-1.209c-0.167,-3.666 -0.25,-7.333 -0.25,-11c0,-3.5 0.055,-6.944 0.166,-10.333c0.111,-3.389 0.167,-6.806 0.167,-10.25c0,-3.556 -0.111,-7.097 -0.333,-10.625c-0.223,-3.528 -0.334,-7.069 -0.334,-10.625c0.111,-1.889 0.139,-3.611 0.084,-5.167c-0.056,-1.555 0.25,-2.555 0.916,-3c0.945,-0.555 2.389,-0.958 4.334,-1.208c1.944,-0.25 3.861,-0.375 5.75,-0.375l1.458,0c0.472,0 0.93,0.028 1.375,0.083c1.944,0.167 4.069,0.403 6.375,0.709c2.305,0.305 4.458,0.833 6.458,1.583c2,0.75 3.667,1.833 5,3.25c1.334,1.417 2,3.347 2,5.792c0,1.944 -0.333,3.791 -1,5.541c-0.666,1.75 -1.666,3.264 -3,4.542c-0.333,0.333 -0.736,0.694 -1.208,1.083c-0.472,0.389 -0.931,0.778 -1.375,1.167c-0.445,0.389 -0.82,0.736 -1.125,1.042c-0.306,0.305 -0.458,0.541 -0.458,0.708c0,0.167 0.152,0.319 0.458,0.458c0.305,0.139 0.653,0.278 1.042,0.417c0.388,0.139 0.763,0.25 1.125,0.333c0.361,0.084 0.569,0.153 0.625,0.209c1.777,0.666 3.319,1.402 4.625,2.208c1.305,0.806 2.388,1.764 3.25,2.875c0.861,1.111 1.5,2.431 1.916,3.958c0.417,1.528 0.625,3.348 0.625,5.459c0,1.5 -0.139,3.027 -0.416,4.583c-0.278,1.556 -0.737,3.069 -1.375,4.542c-0.639,1.472 -1.459,2.819 -2.459,4.041c-1,1.223 -2.222,2.195 -3.666,2.917c-1.5,0.944 -3.25,1.875 -5.25,2.792c-2,0.916 -4.084,1.722 -6.25,2.416c-2.167,0.695 -4.362,1.25 -6.584,1.667c-2.222,0.417 -4.333,0.625 -6.333,0.625c-0.778,0 -1.514,-0.014 -2.208,-0.042c-0.695,-0.027 -1.348,-0.125 -1.959,-0.291Zm11.084,-11.834c0.111,0.167 0.402,0.361 0.875,0.584c0.472,0.222 0.875,0.333 1.208,0.333l0.25,0c1.167,-0.278 2.361,-0.625 3.583,-1.042c1.222,-0.416 2.334,-0.986 3.334,-1.708c1.444,-1.056 2.5,-2.486 3.166,-4.292c0.667,-1.805 1,-3.68 1,-5.625c0,-2.222 -0.416,-4.333 -1.25,-6.333c-0.833,-2 -2.111,-3.417 -3.833,-4.25l-6,-0.25c-0.333,0 -0.792,0.083 -1.375,0.25c-0.583,0.167 -0.958,0.417 -1.125,0.75c-0.111,1.389 -0.195,2.792 -0.25,4.208c-0.056,1.417 -0.083,2.848 -0.083,4.292c0,1.944 0.041,3.903 0.125,5.875c0.083,1.972 0.18,3.931 0.291,5.875l0.042,0.917c0.028,0.222 0.042,0.361 0.042,0.416Zm-0.75,-30.666c0.111,0.277 0.305,0.416 0.583,0.416c0.611,-0.222 1.278,-0.527 2,-0.916c0.722,-0.389 1.403,-0.861 2.042,-1.417c0.638,-0.556 1.18,-1.181 1.625,-1.875c0.444,-0.694 0.722,-1.431 0.833,-2.208c0.055,-0.334 0.083,-0.695 0.083,-1.084l0,-1.083c0,-1.111 -0.097,-2.167 -0.291,-3.167c-0.195,-1 -0.514,-1.889 -0.959,-2.666c-0.444,-0.778 -1.055,-1.403 -1.833,-1.875c-0.778,-0.473 -1.778,-0.709 -3,-0.709l-0.75,0c-0.222,0 -0.389,0.139 -0.5,0.417c-0.111,0.278 -0.195,0.639 -0.25,1.083c-0.056,0.445 -0.097,0.917 -0.125,1.417c-0.028,0.5 -0.042,0.944 -0.042,1.333c0,2.056 0.07,4.111 0.209,6.167c0.138,2.056 0.263,4.111 0.375,6.167Z" style="fill:#fff;fill-rule:nonzero;"/><path d="M410.494,209.118c-0.833,0 -1.722,-0.111 -2.667,-0.333c-0.944,-0.223 -1.472,-0.473 -1.583,-0.75c0,-0.056 0.097,-0.417 0.292,-1.084c0.194,-0.666 0.416,-1.402 0.666,-2.208c0.25,-0.806 0.5,-1.569 0.75,-2.292c0.25,-0.722 0.375,-1.166 0.375,-1.333c1.667,-7.778 3.361,-15.611 5.084,-23.5c1.722,-7.889 3.889,-15.806 6.5,-23.75c0.222,-0.833 0.416,-1.764 0.583,-2.792c0.167,-1.027 0.431,-1.986 0.792,-2.875c0.361,-0.889 0.916,-1.625 1.666,-2.208c0.75,-0.583 1.792,-0.875 3.125,-0.875c0.778,0 1.5,0.097 2.167,0.292c0.667,0.194 1.139,0.514 1.417,0.958c1,1.778 1.805,3.625 2.416,5.542c0.611,1.916 1.153,3.875 1.625,5.875c0.473,2 0.917,4.027 1.334,6.083c0.416,2.056 0.875,4.056 1.375,6c0.778,2.889 1.541,5.792 2.291,8.708c0.75,2.917 1.542,5.875 2.375,8.875c0.5,1.667 1.042,3.32 1.625,4.959c0.584,1.639 1.153,3.291 1.709,4.958c0.555,1.667 1.069,3.347 1.541,5.042c0.473,1.694 0.82,3.43 1.042,5.208c0,0.556 -0.5,0.958 -1.5,1.208c-1,0.25 -2.25,0.375 -3.75,0.375c-1.167,0 -2.375,-0.055 -3.625,-0.166c-1.25,-0.111 -2.403,-0.278 -3.458,-0.5c-1.056,-0.223 -1.945,-0.459 -2.667,-0.709c-0.722,-0.25 -1.111,-0.514 -1.167,-0.791c-0.333,-0.778 -0.541,-1.709 -0.625,-2.792c-0.083,-1.083 -0.18,-2.181 -0.291,-3.292c-0.111,-1.111 -0.292,-2.152 -0.542,-3.125c-0.25,-0.972 -0.708,-1.764 -1.375,-2.375c-1.056,-0.111 -2.069,-0.194 -3.042,-0.25c-0.972,-0.055 -1.93,-0.083 -2.875,-0.083c-2.277,0 -4.389,0.194 -6.333,0.583c-0.278,0.111 -0.486,0.32 -0.625,0.625c-0.139,0.306 -0.264,0.653 -0.375,1.042c-0.111,0.389 -0.194,0.778 -0.25,1.167c-0.056,0.389 -0.111,0.694 -0.167,0.916c0,0.167 -0.027,0.5 -0.083,1l-0.333,3.292c-0.056,0.528 -0.111,0.847 -0.167,0.958c-0.167,1.278 -0.333,2.348 -0.5,3.209c-0.167,0.861 -0.778,1.291 -1.833,1.291c-0.389,0 -0.695,-0.027 -0.917,-0.083Zm5.833,-18.75c0.056,0.111 0.306,0.222 0.75,0.333c0.445,0.111 0.973,0.195 1.584,0.25c0.611,0.056 1.277,0.098 2,0.125c0.722,0.028 1.444,0.042 2.166,0.042c1.889,0 3.125,-0.083 3.709,-0.25c0.583,-0.167 0.875,-0.556 0.875,-1.167c0,-0.444 -0.139,-1.166 -0.417,-2.166c-0.611,-2.667 -1.319,-5.375 -2.125,-8.125c-0.806,-2.75 -1.597,-5.542 -2.375,-8.375c-0.111,-0.223 -0.333,-0.334 -0.667,-0.334c-0.333,0 -0.555,0.111 -0.666,0.334c-0.111,0.222 -0.32,0.819 -0.625,1.791c-0.306,0.973 -0.639,2.153 -1,3.542c-0.361,1.389 -0.75,2.875 -1.167,4.458c-0.417,1.584 -0.778,3.07 -1.083,4.459c-0.306,1.389 -0.556,2.555 -0.75,3.5c-0.195,0.944 -0.264,1.472 -0.209,1.583Z" style="fill:#fff;fill-rule:nonzero;"/><path d="M453.744,208.535c-0.055,0 -0.139,-0.028 -0.25,-0.084c-0.111,-0.055 -0.194,-0.083 -0.25,-0.083c0.222,-1.056 0.333,-2.139 0.333,-3.25c0,-0.944 -0.055,-1.903 -0.166,-2.875c-0.111,-0.972 -0.167,-1.931 -0.167,-2.875c0,-5.389 0.111,-10.764 0.333,-16.125c0.223,-5.361 0.334,-10.764 0.334,-16.208c0,-1.223 -0.056,-2.931 -0.167,-5.125c-0.111,-2.195 -0.167,-4.431 -0.167,-6.709c0,-1.833 0.084,-3.569 0.25,-5.208c0.167,-1.639 0.473,-2.847 0.917,-3.625c0.389,-0.611 1.07,-1.014 2.042,-1.208c0.972,-0.195 2.041,-0.292 3.208,-0.292c1.445,0 2.875,0.083 4.292,0.25c1.416,0.167 2.458,0.278 3.125,0.333c1,0.056 2.055,0.111 3.166,0.167c1.112,0.056 2.223,0.181 3.334,0.375c1.111,0.194 2.194,0.486 3.25,0.875c1.055,0.389 2.028,0.917 2.916,1.583c1.167,0.889 1.973,1.75 2.417,2.584c0.445,0.833 1,1.833 1.667,3c1.889,3.222 2.833,6.361 2.833,9.416c0,1.778 -0.319,3.514 -0.958,5.209c-0.639,1.694 -1.514,3.43 -2.625,5.208c-0.445,0.611 -0.834,1.111 -1.167,1.5c-0.333,0.389 -0.5,0.917 -0.5,1.583c0,0.5 0.222,0.931 0.667,1.292c0.444,0.361 0.958,0.722 1.541,1.083c0.584,0.361 1.195,0.723 1.834,1.084c0.639,0.361 1.18,0.791 1.625,1.291c1.889,2.334 3.264,4.5 4.125,6.5c0.861,2 1.291,3.889 1.291,5.667c0,2.056 -0.486,3.931 -1.458,5.625c-0.972,1.694 -2.305,3.222 -4,4.583c-1.694,1.361 -3.68,2.542 -5.958,3.542c-2.278,1 -4.695,1.778 -7.25,2.333c-0.778,0.223 -1.584,0.361 -2.417,0.417c-0.833,0.056 -1.667,0.083 -2.5,0.083c-1.833,0 -3.694,-0.125 -5.583,-0.375c-1.889,-0.25 -3.639,-0.458 -5.25,-0.625c-0.889,-0.111 -1.681,-0.194 -2.375,-0.25c-0.695,-0.055 -1.459,-0.277 -2.292,-0.666Zm14.25,-7.584c0.889,0.723 2,1.084 3.333,1.084c1.278,0 2.389,-0.292 3.334,-0.875c0.944,-0.584 1.722,-1.375 2.333,-2.375c0.611,-1 1.056,-2.139 1.333,-3.417c0.278,-1.278 0.417,-2.639 0.417,-4.083c0,-2.778 -0.639,-5.07 -1.917,-6.875c-1.277,-1.806 -3.444,-2.709 -6.5,-2.709c-0.833,0 -1.666,0.098 -2.5,0.292c-0.833,0.194 -1.472,0.569 -1.916,1.125c-0.167,0.667 -0.278,1.347 -0.334,2.042c-0.055,0.694 -0.083,1.43 -0.083,2.208c0,2.056 0.139,4.139 0.417,6.25c0.278,2.111 0.528,4.056 0.75,5.833c0.111,0.167 0.333,0.431 0.666,0.792c0.334,0.361 0.556,0.597 0.667,0.708Zm-2.083,-27.583c0.055,0.278 0.278,0.417 0.666,0.417c0.112,0 0.237,-0.014 0.375,-0.042c0.139,-0.028 0.264,-0.042 0.375,-0.042l0.167,0c1.389,-0.166 2.667,-0.68 3.833,-1.541c1.167,-0.861 2.181,-1.931 3.042,-3.209c0.861,-1.277 1.542,-2.68 2.042,-4.208c0.5,-1.528 0.75,-3.042 0.75,-4.542c0,-1.055 -0.153,-2.097 -0.459,-3.125c-0.305,-1.027 -0.791,-1.944 -1.458,-2.75c-0.667,-0.805 -1.528,-1.444 -2.583,-1.916c-1.056,-0.473 -2.306,-0.709 -3.75,-0.709c-1.278,0 -2.084,0.403 -2.417,1.209c-0.333,0.805 -0.5,1.847 -0.5,3.125l0.083,3.583c0,1.722 -0.055,3.431 -0.166,5.125c-0.111,1.694 -0.167,3.347 -0.167,4.958c0,0.667 0.014,1.292 0.042,1.875c0.028,0.584 0.069,1.181 0.125,1.792Z" style="fill:#fff;fill-rule:nonzero;"/></g></svg>